{
.appVersion = "983";
classes = (
{
automatic = 1;
code = "A Aacute Abreve Acircumflex Adieresis Agrave Amacron Aogonek Aring Atilde AE B C Cacute Ccaron Ccedilla Ccircumflex D Eth Dcaron Dcroat E Eacute Ecaron Ecircumflex Edieresis Edotaccent Egrave Emacron Eogonek F G Gcircumflex Gcommaaccent H Hbar Hcircumflex I Iacute Icircumflex Idieresis Igrave Imacron Iogonek J Jcircumflex K Kcommaaccent L Lacute Lcaron Lcommaaccent Lslash M N Nacute Ncaron Ncommaaccent Eng Ntilde O Oacute Ocircumflex Odieresis Ograve Ohungarumlaut Omacron Oslash Otilde OE P Thorn Q R Racute Rcaron Rcommaaccent S Sacute Scaron Scedilla Scircumflex Germandbls T Tbar Tcaron Tcedilla U Uacute Ubreve Ucircumflex Udieresis Ugrave Uhungarumlaut Umacron Uogonek Uring V W Wacute Wcircumflex Wdieresis Wgrave X Y Yacute Ycircumflex Ydieresis Ygrave Z Z.ss01 Zacute Zcaron Zdotaccent";
name = Uppercase;
},
{
code = "b h k l kcommaaccent lacute lcaron lcommaaccent lslash thorn hcircumflex";
name = acender_left;
},
{
code = "abreve acircumflex adieresis amacron atilde ccaron eth iacute icircumflex idieresis igrave imacron iogonek jcircumflex racute rcaron scaron yacute ycircumflex ydieresis ygrave zcaron rcaron";
name = f_vs_diacritics;
}
);
customParameters = (
{
name = note;
value = "--- kerning italic numbers --- look at negative space and counters, bold in partic.---capitals need to thin in italic---2 & 5 too wide---";
}
);
date = "2015-10-09 09:15:36 +0000";
designer = "Mirco Monsees";
designerURL = "http://www.mircomonsees.com";
familyName = "Alenta Serif";
featurePrefixes = (
{
automatic = 1;
code = "languagesystem DFLT dflt;\012";
name = Languagesystems;
}
);
features = (
{
automatic = 1;
code = "feature ccmp;\012feature lnum;\012feature onum;\012feature case;\012feature calt;\012feature salt;\012feature ss01;\012";
name = aalt;
},
{
automatic = 1;

glyphs = (
{
color = 1;
glyphname = A;
lastChange = "2017-05-20 12:44:38 +0000";
layers = (
{
anchors = (
{
name = bottom;
position = "{311, 0}";
},
{
name = ogonek;
position = "{580, 10}";
},
{
name = top;
position = "{368, 680}";
}
);
layerId = "71FD7A9F-05F5-4D76-8D4F-547475A05E4C";
paths = (
{
closed = 1;
nodes = (
"207 1 LINE",
"215 46 LINE",
"145 58 LINE",
"212 220 OFFCURVE",
"290 390 OFFCURVE",
"356 539 CURVE SMOOTH",
"397 632 OFFCURVE",
"391 650 OFFCURVE",
"396 680 CURVE",
"330 617 LINE",
"262 451 OFFCURVE",
"113 139 OFFCURVE",
"74 59 CURVE",
"-6 46 LINE",
"-14 0 LINE"
);
},
{
closed = 1;
nodes = (
"472 279 LINE",
"217 281 LINE",
"207 237 LINE",
"472 236 LINE"
);
},
{
closed = 1;
nodes = (
"645 0 LINE",
"653 46 LINE",
"596 57 LINE",
"567 119 OFFCURVE",
"433 596 OFFCURVE",
"415 682 CURVE",
"270 680 LINE",
"260 635 LINE",
"365 617 LINE",
"369 594 OFFCURVE",
"491 119 OFFCURVE",
"502 87 CURVE SMOOTH",
"507 72 OFFCURVE",
"528 58 OFFCURVE",
"547 57 CURVE",
"438 47 LINE",
"430 0 LINE"
);
}
);
width = 673;
},
{
anchors = (
{
name = bottom;
position = "{310, 0}";
},
{
name = ogonek;
position = "{594, 10}";
},
{
name = top;
position = "{368, 680}";
}
);
background = {
paths = (
{
closed = 1;
nodes = (
"320 337 LINE",
"357 243 OFFCURVE",
"406 130 OFFCURVE",
"428 82 CURVE SMOOTH",
"433 71 OFFCURVE",
"445 59 OFFCURVE",
"468 49 CURVE",
"388 49 LINE",
"383 0 LINE",
"650 0 LINE",
"655 47 LINE",
"607 55 LINE",
"539 158 OFFCURVE",
"461 314 OFFCURVE",
"419 399 CURVE"
);
},
{
closed = 1;
nodes = (
"498 562 OFFCURVE",
"415 442 OFFCURVE",
"373 392 CURVE",
"408 316 LINE",
"476 409 OFFCURVE",
"602 586 OFFCURVE",
"631 615 CURVE SMOOTH",
"655 639 OFFCURVE",
"679 650 OFFCURVE",
"706 650 CURVE",
"711 700 LINE",
"477 700 LINE",
"472 653 LINE",
"526 645 LINE"
);
},
{
closed = 1;
nodes = (
"255 113 OFFCURVE",
"344 253 OFFCURVE",
"375 303 CURVE",
"326 368 LINE",
"266 275 OFFCURVE",
"155 112 OFFCURVE",
"124 85 CURVE SMOOTH",
"96 61 OFFCURVE",
"72 50 OFFCURVE",
"45 50 CURVE",
"40 0 LINE",
"263 0 LINE",
"268 47 LINE",
"221 55 LINE"
);
},
{
closed = 1;
nodes = (
"418 390 LINE",
"377 474 OFFCURVE",
"351 522 OFFCURVE",
"331 574 CURVE SMOOTH",
"317 610 OFFCURVE",
"303 651 OFFCURVE",
"362 651 CURVE",
"367 700 LINE",
"110 700 LINE",
"105 653 LINE",
"152 643 LINE",
"225 505 OFFCURVE",
"284 390 OFFCURVE",
"315 323 CURVE"
);
}
);
};
layerId = "977FCFA9-45AC-4A33-B2D7-4D17E6BBF8E0";
paths = (
{
closed = 1;
nodes = (
"253 1 LINE",
"263 66 LINE",
"191 78 LINE",
"245 240 OFFCURVE",
"318 390 OFFCURVE",
"383 539 CURVE SMOOTH",
"424 632 OFFCURVE",
"419 645 OFFCURVE",
"417 682 CURVE",
"341 681 LINE",
"270 511 OFFCURVE",
"112 158 OFFCURVE",
"64 78 CURVE",
"-5 65 LINE",
"-15 0 LINE"
);
},
{
closed = 1;
nodes = (
"490 292 LINE",
"209 294 LINE",
"173 220 LINE",
"488 219 LINE"
);
},
{
closed = 1;
nodes = (
"659 0 LINE",
"669 66 LINE",
"616 78 LINE",
"587 140 OFFCURVE",
"467 600 OFFCURVE",
"450 686 CURVE",
"236 681 LINE",
"221 615 LINE",
"344 585 LINE",
"376 419 OFFCURVE",
"455 116 OFFCURVE",
"459 107 CURVE SMOOTH",
"466 92 OFFCURVE",
"485 78 OFFCURVE",
"504 77 CURVE",
"394 66 LINE",
"384 0 LINE"
);
}
);
width = 715;
}
);
leftKerningGroup = A;
rightKerningGroup = A;
unicode = 0041;
},
{
glyphname = AE;
lastChange = "2017-05-20 11:17:38 +0000";
layers = (
{
background = {
paths = (
{
closed = 1;
nodes = (
"204 216 LINE",
"500 252 LINE",
"517 341 LINE",
"239 294 LINE"
);
},
{
closed = 1;
nodes = (
"550 280 LINE",
"692 297 LINE",
"699 249 LINE",
"757 252 LINE",
"765 295 OFFCURVE",
"778 392 OFFCURVE",
"763 392 CURVE SMOOTH",
"754 392 OFFCURVE",
"521 349 OFFCURVE",
"558 350 CURVE"
);
},
{
closed = 1;
nodes = (
"525 60 LINE",
"516 0 LINE",
"638 0 OFFCURVE",
"742 -1 OFFCURVE",
"864 -5 CURVE",
"900 168 LINE",
"850 176 LINE",
"812 106 LINE",
"768 92 OFFCURVE",
"674 88 OFFCURVE",
"598 90 CURVE"
);
},
{
closed = 1;
nodes = (
"360 636 LINE",
"280 460 OFFCURVE",
"167 198 OFFCURVE",
"128 126 CURVE SMOOTH",
"109 89 OFFCURVE",
"69 66 OFFCURVE",
"51 58 CURVE",
"55 0 LINE",
"250 1 LINE",
"264 56 LINE",
"207 68 LINE",
"254 195 OFFCURVE",
"447 600 OFFCURVE",
"476 640 CURVE"
);
},
{
closed = 1;
nodes = (
"441 440 OFFCURVE",
"459 105 OFFCURVE",
"462 97 CURVE",
"466 82 OFFCURVE",
"483 68 OFFCURVE",
"502 67 CURVE",
"403 57 LINE",
"395 0 LINE",
"649 0 LINE",
"667 54 LINE",
"612 66 LINE",
"597 115 OFFCURVE",
"572 433 OFFCURVE",
"561 604 CURVE",
"650 603 OFFCURVE",
"707 601 OFFCURVE",
"754 591 CURVE",
"781 529 LINE",
"838 539 LINE",
"828 704 LINE",
"798 703 OFFCURVE",
"641 698 OFFCURVE",
"531 698 CURVE SMOOTH",
"456 698 OFFCURVE",
"397 699 OFFCURVE",
"319 702 CURVE",
"306 638 LINE",
"434 603 LINE"
);
}
);
};
layerId = "71FD7A9F-05F5-4D76-8D4F-547475A05E4C";
paths = (
{
closed = 1;
nodes = (
"207 1 LINE",
"218 46 LINE",
"145 58 LINE",
"169.024 116.967 OFFCURVE",
"197.287 176.994 OFFCURVE",
"226.559 236.683 CURVE",
"413.554 278.311 LINE",
"412.511 163.474 OFFCURVE",
"410 134.201 OFFCURVE",
"410 93 CURVE SMOOTH",
"410 80 OFFCURVE",
"427 61 OFFCURVE",
"453 55 CURVE",
"342 46 LINE",
"338 0 LINE",
"586 0 LINE SMOOTH",
"646.166 -0.095 OFFCURVE",
"706.477 -1.179 OFFCURVE",
"769 -3 CURVE",
"805 152 LINE",
"764 159 LINE",
"722 70 LINE",
"689 60 OFFCURVE",
"616 53 OFFCURVE",
"521 55 CURVE",
"497.544 100.294 OFFCURVE",
"496.331 224.743 OFFCURVE",
"496.724 295.012 CURVE",
"695 321 LINE",
"698 390 LINE",
"684 395 LINE",
"646.399 384.472 OFFCURVE",
"536.408 355.28 OFFCURVE",
"496.93 344.853 CURVE",
"495.955 493.058 OFFCURVE",
"495.047 535.867 OFFCURVE",
"497 572 CURVE SMOOTH",
"497.541 598.485 OFFCURVE",
"501.879 614.453 OFFCURVE",
"515.543 623.85 CURVE",
"625.78 622.636 OFFCURVE",
"688.158 618.56 OFFCURVE",
"735 609 CURVE",
"743 527 LINE",
"789 537 LINE",
"805 689 LINE",
"699 683 OFFCURVE",
"606 680 OFFCURVE",
"490 680 CURVE SMOOTH",
"267 680 LINE",
"257 635 LINE",
"344.798 618.804 LINE",
"269.56 446.029 OFFCURVE",
"137.454 189.129 OFFCURVE",
"101 118 CURVE SMOOTH",
"68 55 OFFCURVE",
"46 47 OFFCURVE",
"-7 47 CURVE",
"-14 0 LINE"
);
},
{
closed = 1;
nodes = (
"275 334 OFFCURVE",
"363 515 OFFCURVE",
"410 619 CURVE",
"415 544 OFFCURVE",
"415 475 OFFCURVE",
"413.852 321.887 CURVE",
"360 310 OFFCURVE",
"305 298 OFFCURVE",
"251.081 286.244 CURVE"
);
}
);
width = 799;
},
{
background = {
paths = (
{
closed = 1;
nodes = (
"198 216 LINE",
"494 252 LINE",
"511 341 LINE",
"233 294 LINE"
);
},
{
closed = 1;
nodes = (
"544 280 LINE",
"686 297 LINE",
"693 249 LINE",
"751 252 LINE",
"759 295 OFFCURVE",
"772 392 OFFCURVE",
"757 392 CURVE SMOOTH",
"748 392 OFFCURVE",
"515 349 OFFCURVE",
"552 350 CURVE"
);
},
{
closed = 1;
nodes = (
"519 60 LINE",
"510 0 LINE",
"632 0 OFFCURVE",
"736 -1 OFFCURVE",
"858 -5 CURVE",
"894 168 LINE",
"844 176 LINE",
"806 106 LINE",
"762 92 OFFCURVE",
"668 88 OFFCURVE",
"592 90 CURVE"
);
},
{
closed = 1;
nodes = (
"354 636 LINE",
"274 460 OFFCURVE",
"161 198 OFFCURVE",
"122 126 CURVE SMOOTH",
"103 89 OFFCURVE",
"63 66 OFFCURVE",
"45 58 CURVE",
"49 0 LINE",
"244 1 LINE",
"258 56 LINE",
"201 68 LINE",
"248 195 OFFCURVE",
"441 600 OFFCURVE",
"470 640 CURVE"
);
},
{
closed = 1;
nodes = (
"435 440 OFFCURVE",
"453 105 OFFCURVE",
"456 97 CURVE",
"460 82 OFFCURVE",
"477 68 OFFCURVE",
"496 67 CURVE",
"397 57 LINE",
"389 0 LINE",
"643 0 LINE",
"661 54 LINE",
"606 66 LINE",
"591 115 OFFCURVE",
"566 433 OFFCURVE",
"555 604 CURVE",
"644 603 OFFCURVE",
"701 601 OFFCURVE",
"748 591 CURVE",
"775 529 LINE",
"832 539 LINE",
"822 704 LINE",
"792 703 OFFCURVE",
"635 698 OFFCURVE",
"525 698 CURVE SMOOTH",
"450 698 OFFCURVE",
"391 699 OFFCURVE",
"313 702 CURVE",
"300 638 LINE",
"428 603 LINE"
);
}
);
};
layerId = "977FCFA9-45AC-4A33-B2D7-4D17E6BBF8E0";
paths = (
{
closed = 1;
nodes = (
"250 1 LINE",
"263 66 LINE",
"191 78 LINE",
"209.388 124.545 OFFCURVE",
"228.932 170.099 OFFCURVE",
"249.015 214.924 CURVE",
"423.535 250.936 LINE",
"423.083 187.796 OFFCURVE",
"421.636 152.094 OFFCURVE",
"421 133 CURVE SMOOTH",
"421 97 OFFCURVE",
"437 84 OFFCURVE",
"464 78 CURVE",
"348 66 LINE",
"345 0 LINE",
"662.913 0 LINE SMOOTH",
"706.796 -0.245 OFFCURVE",
"730.714 -1.143 OFFCURVE",
"833 -4 CURVE",
"872 189 LINE",
"808 197 LINE",
"770 115 LINE",
"734.404 103.926 OFFCURVE",
"663.142 98.483 OFFCURVE",
"595.811 98.182 CURVE",
"576.745 143.702 OFFCURVE",
"573.409 206.118 OFFCURVE",
"572.53 270.932 CURVE",
"724 286 LINE",
"726 393 LINE",
"708 399 LINE",
"664.574 389.267 OFFCURVE",
"617.224 377.291 OFFCURVE",
"571.406 365.591 CURVE",
"570 431 OFFCURVE",
"569 481 OFFCURVE",
"570 519 CURVE SMOOTH",
"570 547 OFFCURVE",
"571 569 OFFCURVE",
"573.131 584.927 CURVE",
"653.216 583.316 OFFCURVE",
"713.736 580.122 OFFCURVE",
"752 574 CURVE",
"762 482 LINE",
"834 492 LINE",
"851 688 LINE",
"701 678 OFFCURVE",
"637 683 OFFCURVE",
"487 680 CURVE SMOOTH",
"254 681 LINE",
"233 615 LINE",
"320.738 594.697 LINE",
"243.702 423.206 OFFCURVE",
"128.872 194.121 OFFCURVE",
"88 126 CURVE SMOOTH",
"57 75 OFFCURVE",
"32 67 OFFCURVE",
"-3 66 CURVE",
"-15 0 LINE"
);
},
{
closed = 1;
nodes = (
"328 386 OFFCURVE",
"358 447 OFFCURVE",
"414.793 576.26 CURVE",
"420 546 OFFCURVE",
"420 527 OFFCURVE",
"423.585 324.394 CURVE",
"378 315 OFFCURVE",
"332 306 OFFCURVE",
"286.651 297.105 CURVE"
);
}
);
width = 857;
}
);
leftKerningGroup = A;
leftMetricsKey = A;
rightKerningGroup = E;
rightMetricsKey = "=E-30";
unicode = 00C6;
},
{
color = 1;
glyphname = B;
lastChange = "2017-05-20 12:49:53 +0000";
layers = (
{
components = (
{
name = _part.stem.cap;
transform = "{1, 0, 0, 1, -12, 0}";
piece = {
"BPR?" = 1;
};
}
);
layerId = "71FD7A9F-05F5-4D76-8D4F-547475A05E4C";
paths = (
{
closed = 1;
nodes = (
"226 628 LINE",
"476 690 OFFCURVE",
"516 438 OFFCURVE",
"355 376 CURVE",
"296 373 OFFCURVE",
"250 375 OFFCURVE",
"204 381 CURVE",
"197 320 LINE",
"260 325 LINE",
"502 344 OFFCURVE",
"516 119 OFFCURVE",
"375 50 CURVE",
"189 61 LINE",
"132 0 LINE",
"305 -3 LINE SMOOTH",
"467 -6 OFFCURVE",
"549 103 OFFCURVE",
"549 201 CURVE SMOOTH",
"549 278 OFFCURVE",
"498 348 OFFCURVE",
"395 352 CURVE",
"480 368 OFFCURVE",
"554 464 OFFCURVE",
"535 555 CURVE SMOOTH",
"510 676 OFFCURVE",
"392 689 OFFCURVE",
"227 685 CURVE SMOOTH",
"185 684 OFFCURVE",
"109 682 OFFCURVE",
"101 679 CURVE"
);
}
);
width = 601;
},
{
anchors = (
{
name = bottom;
position = "{219, 0}";
},
{
name = top;
position = "{363, 680}";
}
);
background = {
components = (
{
name = R;
}
);
};
components = (
{
name = _part.stem.cap;
transform = "{1, 0, 0.0002, 1, -166, 0}";
piece = {
"BPR?" = 1;
};
}
);
layerId = "977FCFA9-45AC-4A33-B2D7-4D17E6BBF8E0";
paths = (
{
closed = 1;
nodes = (
"236 596 LINE",
"412 640 OFFCURVE",
"431 455 OFFCURVE",
"345 394 CURVE",
"305 388 OFFCURVE",
"238 388 OFFCURVE",
"202 399 CURVE",
"171 304 LINE",
"257 311 LINE",
"452 315 OFFCURVE",
"447 119 OFFCURVE",
"336 77 CURVE",
"196 85 LINE",
"138 0 LINE",
"317 -3 LINE SMOOTH",
"444 -5 OFFCURVE",
"600 73 OFFCURVE",
"559 257 CURVE SMOOTH",
"545 319 OFFCURVE",
"487 355 OFFCURVE",
"427 363 CURVE",
"505 389 OFFCURVE",
"567 479 OFFCURVE",
"550 564 CURVE SMOOTH",
"526 685 OFFCURVE",
"394 688 OFFCURVE",
"229 685 CURVE SMOOTH",
"177 684 OFFCURVE",
"88 680 OFFCURVE",
"80 677 CURVE"
);
}
);
width = 634;
}
);
leftKerningGroup = I;
leftMetricsKey = H;
rightKerningGroup = B;
unicode = 0042;
},
{
color = 1;
glyphname = C;
lastChange = "2017-05-20 12:50:57 +0000";
layers = (
{
anchors = (
{
name = bottom;
position = "{324, 0}";
},
{
name = top;
position = "{372, 680}";
}
);
layerId = "71FD7A9F-05F5-4D76-8D4F-547475A05E4C";
paths = (
{
closed = 1;
nodes = (
"526 74 OFFCURVE",
"448 44 OFFCURVE",
"355 48 CURVE SMOOTH",
"265 52 OFFCURVE",
"168 87 OFFCURVE",
"137 273 CURVE SMOOTH",
"107 454 OFFCURVE",
"228 613 OFFCURVE",
"344 642 CURVE",
"434 642 OFFCURVE",
"516 622 OFFCURVE",
"538 599 CURVE",
"542 516 LINE",
"592 526 LINE",
"609 649 LINE",
"576 676 OFFCURVE",
"502 692 OFFCURVE",
"409 693 CURVE SMOOTH",
"150 695 OFFCURVE",
"6 447 OFFCURVE",
"52 209 CURVE SMOOTH",
"83 49 OFFCURVE",
"200 -19 OFFCURVE",
"342 -13 CURVE SMOOTH",
"468 -8 OFFCURVE",
"554 40 OFFCURVE",
"576 58 CURVE",
"563 102 LINE"
);
},
{
closed = 1;
nodes = (
"576 58 LINE",
"587 181 LINE",
"539 177 LINE",
"506 63 LINE"
);
}
);
width = 625;
},
{
anchors = (
{
name = bottom;
position = "{289, 0}";
},
{
name = top;
position = "{397, 680}";
}
);
background = {
paths = (
{
closed = 1;
nodes = (
"182 724 OFFCURVE",
"29 495 OFFCURVE",
"63 235 CURVE SMOOTH",
"86 64 OFFCURVE",
"202 -5 OFFCURVE",
"316 -14 CURVE SMOOTH",
"445 -24 OFFCURVE",
"557 12 OFFCURVE",
"612 51 CURVE",
"612 129 OFFCURVE",
"618 227 OFFCURVE",
"625 249 CURVE SMOOTH",
"634 276 OFFCURVE",
"656 282 OFFCURVE",
"664 282 CURVE",
"668 343 LINE",
"583 340 OFFCURVE",
"539 341 OFFCURVE",
"459 344 CURVE",
"451 285 LINE",
"504 269 LINE",
"503 213 OFFCURVE",
"503 117 OFFCURVE",
"466 76 CURVE",
"329 62 OFFCURVE",
"248 113 OFFCURVE",
"221 270 CURVE SMOOTH",
"185 489 OFFCURVE",
"289 598 OFFCURVE",
"352 625 CURVE",
"449 619 OFFCURVE",
"511 584 OFFCURVE",
"538 547 CURVE",
"543 492 LINE",
"608 502 LINE",
"633 640 LINE",
"601 673 OFFCURVE",
"533 718 OFFCURVE",
"416 720 CURVE SMOOTH"
);
}
);
};
layerId = "977FCFA9-45AC-4A33-B2D7-4D17E6BBF8E0";
paths = (
{
closed = 1;
nodes = (
"522 106 OFFCURVE",
"433 79 OFFCURVE",
"371 86 CURVE SMOOTH",
"261 98 OFFCURVE",
"197 159 OFFCURVE",
"180 269 CURVE SMOOTH",
"151 452 OFFCURVE",
"267 578 OFFCURVE",
"342 604 CURVE",
"389 605 OFFCURVE",
"483 589 OFFCURVE",
"505 569 CURVE",
"518 484 LINE",
"591 494 LINE",
"612 656 LINE",
"577 680 OFFCURVE",
"499 699 OFFCURVE",
"382 696 CURVE SMOOTH",
"132 690 OFFCURVE",
"-21 431 OFFCURVE",
"25 202 CURVE SMOOTH",
"57 42 OFFCURVE",
"198 -20 OFFCURVE",
"340 -16 CURVE SMOOTH",
"468 -12 OFFCURVE",
"550 37 OFFCURVE",
"572 55 CURVE",
"559 126 LINE"
);
},
{
closed = 1;
nodes = (
"572 55 LINE",
"588 204 LINE",
"517 204 LINE",
"468 59 LINE"
);
}
);
width = 602;
}
);
leftKerningGroup = O;
leftMetricsKey = O;
rightKerningGroup = C;
unicode = 0043;
},
{
glyphname = D;
lastChange = "2017-05-20 12:45:43 +0000";
layers = (
{
anchors = (
{
name = bottom;
position = "{311, 0}";
},
{
name = center;
position = "{200, 340}";
},
{
name = top;
position = "{364, 680}";
}
);
components = (
{
name = _part.stem.cap;
transform = "{1, 0, 0, 1, -23, 0}";
}
);
layerId = "71FD7A9F-05F5-4D76-8D4F-547475A05E4C";
paths = (
{
closed = 1;
nodes = (
"22 0 LINE",
"309 -4 LINE SMOOTH",
"533 -7 OFFCURVE",
"705 233 OFFCURVE",
"649 479 CURVE SMOOTH",
"612 646 OFFCURVE",
"477 685 OFFCURVE",
"311 689 CURVE SMOOTH",
"247 691 OFFCURVE",
"119 682 OFFCURVE",
"86 680 CURVE",
"237 638 LINE",
"407 644 OFFCURVE",
"527 594 OFFCURVE",
"561 447 CURVE SMOOTH",
"609 233 OFFCURVE",
"458 79 OFFCURVE",
"370 45 CURVE",
"185 55 LINE"
);
}
);
width = 672;
},
{
anchors = (
{
name = bottom;
position = "{304, 0}";
},
{
name = center;
position = "{195, 350}";
},
{
name = top;
position = "{347, 680}";
}
);
background = {
paths = (
{
closed = 1;
nodes = (
"521 683 OFFCURVE",
"434 727 OFFCURVE",
"300 709 CURVE",
"11 647 OFFCURVE",
"-48 244 OFFCURVE",
"86 81 CURVE SMOOTH",
"157 -7 OFFCURVE",
"266 -28 OFFCURVE",
"383 0 CURVE",
"638 77 OFFCURVE",
"709 439 OFFCURVE",
"572 616 CURVE SMOOTH"
);
},
{
closed = 1;
nodes = (
"297 74 OFFCURVE",
"244 99 OFFCURVE",
"209 176 CURVE SMOOTH",
"135 333 OFFCURVE",
"163 545 OFFCURVE",
"303 626 CURVE",
"362 626 OFFCURVE",
"412 608 OFFCURVE",
"452 519 CURVE SMOOTH",
"520 371 OFFCURVE",
"495 162 OFFCURVE",
"357 75 CURVE"
);
}
);
};
components = (
{
name = _part.stem.cap;
transform = "{1, 0, 0, 1, -177, 0}";
piece = {
"BPR?" = 1;
};
}
);
layerId = "977FCFA9-45AC-4A33-B2D7-4D17E6BBF8E0";
paths = (
{
closed = 1;
nodes = (
"16 0 LINE",
"314 -2 LINE SMOOTH",
"543 -4 OFFCURVE",
"704 225 OFFCURVE",
"657 480 CURVE SMOOTH",
"626 650 OFFCURVE",
"477 688 OFFCURVE",
"296 688 CURVE SMOOTH",
"214 688 OFFCURVE",
"101 682 OFFCURVE",
"67 680 CURVE",
"278 606 LINE",
"397 620 OFFCURVE",
"483 552 OFFCURVE",
"500 427 CURVE SMOOTH",
"525 245 OFFCURVE",
"440 112 OFFCURVE",
"353 75 CURVE",
"224 90 LINE"
);
}
);
width = 662;
}
);
leftKerningGroup = I;
leftMetricsKey = H;
rightKerningGroup = O;
rightMetricsKey = O;
unicode = 0044;
},
{
color = 1;
glyphname = E;
lastChange = "2017-05-20 12:51:21 +0000";
layers = (
{
anchors = (
{
name = bottom;
position = "{251, 0}";
},
{
name = ogonek;
position = "{472, 10}";
},
{
name = top;
position = "{322, 680}";
},
{
name = topleft;
position = "{66, 680}";
}
);
components = (
{
name = _part.stem.cap;
transform = "{1, 0, -0.0171, 1, -6, 0}";
}
);
layerId = "71FD7A9F-05F5-4D76-8D4F-547475A05E4C";
paths = (
{
closed = 1;
nodes = (
"178 1 LINE",
"278 1 OFFCURVE",
"388 0 OFFCURVE",
"492 -3 CURVE",
"528 152 LINE",
"487 159 LINE",
"445 70 LINE",
"400 56 OFFCURVE",
"261 51 OFFCURVE",
"184 55 CURVE"
);
},
{
closed = 1;
nodes = (
"330 623 OFFCURVE",
"423 619 OFFCURVE",
"472 609 CURVE",
"480 527 LINE",
"526 537 LINE",
"541 680 LINE",
"533 689 LINE",
"429 683 OFFCURVE",
"313 680 OFFCURVE",
"200 680 CURVE",
"210 624 LINE"
);
},
{
closed = 1;
nodes = (
"193 348 LINE",
"409 330 LINE",
"428 397 LINE",
"416 405 LINE",
"364 402 OFFCURVE",
"170 396 OFFCURVE",
"202 397 CURVE"
);
}
);
width = 552;
},
{
anchors = (
{
name = bottom;
position = "{258, 0}";
},
{
name = ogonek;
position = "{481, 10}";
},
{
name = top;
position = "{316, 680}";
},
{
name = topleft;
position = "{84, 700}";
}
);
background = {
paths = (
{
closed = 1;
nodes = (
"79 700 LINE",
"71 653 LINE",
"121 642 LINE",
"132 602 OFFCURVE",
"125 484 OFFCURVE",
"122 427 CURVE SMOOTH",
"113 249 OFFCURVE",
"88 101 OFFCURVE",
"91 88 CURVE SMOOTH",
"95 74 OFFCURVE",
"133 56 OFFCURVE",
"152 50 CURVE",
"32 51 LINE",
"29 0 LINE",
"527 -1 LINE",
"553 164 LINE",
"503 175 LINE",
"498 165 OFFCURVE",
"483 127 OFFCURVE",
"469 98 CURVE",
"430 85 OFFCURVE",
"331 80 OFFCURVE",
"257 81 CURVE",
"227 114 OFFCURVE",
"235 228 OFFCURVE",
"243 331 CURVE",
"365 325 LINE",
"376 279 LINE",
"416 282 LINE",
"421 325 OFFCURVE",
"428 410 OFFCURVE",
"413 410 CURVE SMOOTH",
"405 410 OFFCURVE",
"242 404 OFFCURVE",
"248 404 CURVE",
"249 455 OFFCURVE",
"265 570 OFFCURVE",
"276 614 CURVE",
"347 614 OFFCURVE",
"446 615 OFFCURVE",
"490 601 CURVE",
"497 585 OFFCURVE",
"509 561 OFFCURVE",
"524 524 CURVE",
"574 535 LINE",
"548 700 LINE"
);
}
);
};
components = (
{
name = _part.stem.cap;
transform = "{1, 0, 0, 1, -166, 0}";
}
);
guideLines = (
{
angle = 12;
position = "{495, 529}";
},
{
angle = -12;
position = "{476, 175}";
},
{
angle = 84;
position = "{490, 548}";
}
);
layerId = "977FCFA9-45AC-4A33-B2D7-4D17E6BBF8E0";
paths = (
{
closed = 1;
nodes = (
"172 0 LINE",
"398 0 OFFCURVE",
"337 1 OFFCURVE",
"517 -4 CURVE",
"556 189 LINE",
"491 197 LINE",
"453 115 LINE",
"409 101 OFFCURVE",
"307 96 OFFCURVE",
"228 99 CURVE"
);
},
{
closed = 1;
nodes = (
"328 585 OFFCURVE",
"417 582 OFFCURVE",
"466 574 CURVE",
"476 482 LINE",
"548 492 LINE",
"565 677 LINE",
"554 687 LINE",
"407 679 OFFCURVE",
"352 683 OFFCURVE",
"202 680 CURVE",
"208 586 LINE"
);
},
{
closed = 1;
nodes = (
"228 323 LINE",
"414 302 LINE",
"441 408 LINE",
"426 418 LINE",
"367 417 OFFCURVE",
"301 414 OFFCURVE",
"241 411 CURVE"
);
}
);
width = 571;
}
);
leftKerningGroup = I;
leftMetricsKey = H;
rightKerningGroup = E;
unicode = 0045;
},
{
color = 1;
glyphname = F;
lastChange = "2017-05-20 12:52:03 +0000";
layers = (
{
components = (
{
name = _part.stem.cap;
transform = "{1, 0, -0.0171, 1, -6, 0}";
}
);
layerId = "71FD7A9F-05F5-4D76-8D4F-547475A05E4C";
paths = (
{
closed = 1;
nodes = (
"328 623 OFFCURVE",
"422 618 OFFCURVE",
"471 610 CURVE",
"479 527 LINE",
"526 537 LINE",
"539 680 LINE",
"531 688 LINE",
"417 682 OFFCURVE",
"311 683 OFFCURVE",
"198 680 CURVE",
"208 624 LINE"
);
},
{
closed = 1;
nodes = (
"173 0 LINE",
"301 0 LINE",
"315 48 LINE",
"193 58 LINE",
"172 36 LINE"
);
},
{
closed = 1;
nodes = (
"188 338 LINE",
"405 320 LINE",
"424 387 LINE",
"413 395 LINE",
"361 392 OFFCURVE",
"165 386 OFFCURVE",
"196 387 CURVE"
);
}
);
width = 495;
},
{
background = {
components = (
{
name = E;
transform = "{1, 0, 0, 1, -9, 0}";
}
);
};
components = (
{
name = _part.stem.cap;
transform = "{1, 0, 0, 1, -166, 0}";
}
);
guideLines = (
{
position = "{492, 541}";
}
);
layerId = "977FCFA9-45AC-4A33-B2D7-4D17E6BBF8E0";
paths = (
{
closed = 1;
nodes = (
"330 595 OFFCURVE",
"417 592 OFFCURVE",
"466 584 CURVE",
"480 492 LINE",
"550 502 LINE",
"559 678 LINE",
"546 687 LINE",
"433 681 OFFCURVE",
"314 682 OFFCURVE",
"202 680 CURVE",
"210 596 LINE"
);
},
{
closed = 1;
nodes = (
"178 0 LINE",
"360 0 LINE",
"371 66 LINE",
"251 78 LINE",
"169 61 LINE"
);
},
{
closed = 1;
nodes = (
"235 313 LINE",
"421 292 LINE",
"448 398 LINE",
"433 408 LINE",
"374 407 OFFCURVE",
"308 404 OFFCURVE",
"248 401 CURVE"
);
}
);
width = 532;
}
);
leftKerningGroup = I;
leftMetricsKey = H;
rightKerningGroup = F;
unicode = 0046;
},
{
color = 1;
glyphname = G;
lastChange = "2017-05-20 10:52:14 +0000";
layers = (
{
layerId = "71FD7A9F-05F5-4D76-8D4F-547475A05E4C";
paths = (
{
closed = 1;
nodes = (
"171 686 OFFCURVE",
"18 482 OFFCURVE",
"47 235 CURVE SMOOTH",
"67 71 OFFCURVE",
"174 -4 OFFCURVE",
"291 -12 CURVE SMOOTH",
"436 -22 OFFCURVE",
"512 12 OFFCURVE",
"570 51 CURVE",
"572 129 OFFCURVE",
"585 249 OFFCURVE",
"588 271 CURVE",
"622 288 LINE",
"628 331 LINE",
"541 330 OFFCURVE",
"503 330 OFFCURVE",
"418 331 CURVE",
"410 288 LINE",
"514 267 LINE",
"512 211 OFFCURVE",
"508 101 OFFCURVE",
"479 60 CURVE",
"317 18 OFFCURVE",
"166 47 OFFCURVE",
"136 271 CURVE SMOOTH",
"111 462 OFFCURVE",
"224 604 OFFCURVE",
"341 642 CURVE",
"436 644 OFFCURVE",
"525 613 OFFCURVE",
"554 586 CURVE",
"556 503 LINE",
"607 513 LINE",
"626 638 LINE",
"588 666 OFFCURVE",
"506 699 OFFCURVE",
"399 695 CURVE SMOOTH"
);
}
);
width = 647;
},
{
anchors = (
{
name = bottom;
position = "{286, 0}";
},
{
name = top;
position = "{366, 680}";
}
);
background = {
components = (
{
name = C;
transform = "{1, 0, 0, 1, -1, 0}";
}
);
};
layerId = "977FCFA9-45AC-4A33-B2D7-4D17E6BBF8E0";
paths = (
{
closed = 1;
nodes = (
"150 692 OFFCURVE",
"-12 463 OFFCURVE",
"21 223 CURVE SMOOTH",
"44 59 OFFCURVE",
"171 -5 OFFCURVE",
"288 -14 CURVE SMOOTH",
"421 -24 OFFCURVE",
"523 12 OFFCURVE",
"580 51 CURVE",
"585 129 OFFCURVE",
"594 236 OFFCURVE",
"597 258 CURVE",
"633 274 LINE",
"645 344 LINE",
"558 343 OFFCURVE",
"474 343 OFFCURVE",
"391 345 CURVE",
"380 277 LINE",
"463 257 LINE",
"461 201 OFFCURVE",
"453 123 OFFCURVE",
"434 82 CURVE",
"345 64 OFFCURVE",
"207 103 OFFCURVE",
"180 267 CURVE SMOOTH",
"150 450 OFFCURVE",
"271 577 OFFCURVE",
"336 604 CURVE",
"400 607 OFFCURVE",
"487 591 OFFCURVE",
"525 555 CURVE",
"536 474 LINE",
"611 483 LINE",
"636 656 LINE",
"593 677 OFFCURVE",
"507 701 OFFCURVE",
"393 698 CURVE SMOOTH"
);
}
);
width = 644;
}
);
leftKerningGroup = O;
leftMetricsKey = O;
rightKerningGroup = I;
unicode = 0047;
},
{
color = 1;
glyphname = H;
lastChange = "2017-05-20 10:52:14 +0000";
layers = (
{
anchors = (
{
name = bottom;
position = "{332, 0}";
},
{
name = center;
position = "{368, 340}";
},
{
name = top;
position = "{403, 680}";
},
{
name = topleft;
position = "{66, 680}";
}
);
components = (
{
name = _part.stem.cap;
transform = "{1, 0, -0.0171, 1, -6, 0}";
},
{
name = _part.stem.cap;
transform = "{1, 0, -0.0171, 1, 396, 0}";
}
);
layerId = "71FD7A9F-05F5-4D76-8D4F-547475A05E4C";
paths = (
{
closed = 1;
nodes = (
"172 322 LINE",
"559 324 LINE",
"554 372 LINE",
"181 372 LINE"
);
}
);
width = 714;
},
{
anchors = (
{
name = bottom;
position = "{326, 0}";
},
{
name = center;
position = "{369, 350}";
},
{
name = top;
position = "{408, 680}";
},
{
name = topleft;
position = "{72, 700}";
}
);
background = {
paths = (
{
closed = 1;
nodes = (
"549 671 OFFCURVE",
"478 732 OFFCURVE",
"312 696 CURVE SMOOTH",
"60 641 OFFCURVE",
"6 234 OFFCURVE",
"130 89 CURVE SMOOTH",
"201 6 OFFCURVE",
"283 -23 OFFCURVE",
"423 8 CURVE SMOOTH",
"656 60 OFFCURVE",
"724 458 OFFCURVE",
"595 615 CURVE SMOOTH"
);
},
{
closed = 1;
nodes = (
"327 77 OFFCURVE",
"278 104 OFFCURVE",
"244 179 CURVE SMOOTH",
"175 333 OFFCURVE",
"195 544 OFFCURVE",
"330 627 CURVE",
"387 627 OFFCURVE",
"446 609 OFFCURVE",
"484 522 CURVE SMOOTH",
"548 377 OFFCURVE",
"532 162 OFFCURVE",
"395 77 CURVE"
);
}
);
};
components = (
{
name = _part.stem.cap;
transform = "{1, 0, 0, 1, -166, 0}";
},
{
name = _part.stem.cap;
transform = "{1, 0, 0, 1, 235, 0}";
}
);
guideLines = (
{
position = "{1802, 733}";
}
);
layerId = "977FCFA9-45AC-4A33-B2D7-4D17E6BBF8E0";
paths = (
{
closed = 1;
nodes = (
"213 305 LINE",
"539 308 LINE",
"537 391 LINE",
"225 391 LINE"
);
}
);
width = 757;
}
);
leftKerningGroup = I;
rightKerningGroup = I;
unicode = 0048;
},
{
glyphname = Hbar;
lastChange = "2017-05-20 10:52:14 +0000";
layers = (
{
components = (
{
name = H;
transform = "{1, 0, 0, 1, 27, 0}";
}
);
layerId = "71FD7A9F-05F5-4D76-8D4F-547475A05E4C";
paths = (
{
closed = 1;
nodes = (
"762 513 LINE",
"753 523 LINE",
"544 523 OFFCURVE",
"315 519 OFFCURVE",
"71 520 CURVE",
"60 474 LINE",
"71 467 LINE",
"297 469 OFFCURVE",
"521 469 OFFCURVE",
"750 468 CURVE"
);
}
);
width = 751;
},
{
components = (
{
name = H;
transform = "{1, 0, 0, 1, 28, 0}";
}
);
layerId = "977FCFA9-45AC-4A33-B2D7-4D17E6BBF8E0";
paths = (
{
closed = 1;
nodes = (
"821 529 LINE",
"805 537 LINE",
"572 537 OFFCURVE",
"323 533 OFFCURVE",
"52 535 CURVE",
"33 462 LINE",
"54 456 LINE",
"305 458 OFFCURVE",
"550 458 OFFCURVE",
"805 457 CURVE"
);
}
);
width = 801;
}
);
leftMetricsKey = H;
rightMetricsKey = H;
unicode = 0126;
},
{
color = 1;
glyphname = I;
lastChange = "2017-05-20 10:52:14 +0000";
layers = (
{
anchors = (
{
name = bottom;
position = "{127, 0}";
},
{
name = ogonek;
position = "{249, 10}";
},
{
name = top;
position = "{195, 680}";
},
{
name = topleft;
position = "{66, 680}";
}
);
components = (
{
name = _part.stem.cap;
transform = "{1, 0, -0.0171, 1, -6, 0}";
}
);
guideLines = (
{
position = "{431, 746}";
},
{
position = "{418, 865}";
}
);
layerId = "71FD7A9F-05F5-4D76-8D4F-547475A05E4C";
width = 304;
},
{
anchors = (
{
name = bottom;
position = "{210, 0}";
},
{
name = ogonek;
position = "{302, 10}";
},
{
name = top;
position = "{207, 680}";
},
{
name = topleft;
position = "{146, 700}";
}
);
background = {
paths = (
{
closed = 1;
nodes = (
"525 175 LINE",
"522 172 OFFCURVE",
"512 96 OFFCURVE",
"453 74 CURVE SMOOTH",
"410 58 OFFCURVE",
"353 58 OFFCURVE",
"302 61 CURVE",
"284 150 OFFCURVE",
"295 278 OFFCURVE",
"312 433 CURVE SMOOTH",
"320 505 OFFCURVE",
"330 614 OFFCURVE",
"359 637 CURVE SMOOTH",
"376 650 OFFCURVE",
"393 649 OFFCURVE",
"400 650 CURVE",
"405 700 LINE",
"300 697 OFFCURVE",
"243 697 OFFCURVE",
"145 700 CURVE",
"141 650 LINE",
"152 650 OFFCURVE",
"170 646 OFFCURVE",
"181 634 CURVE SMOOTH",
"205 608 OFFCURVE",
"193 510 OFFCURVE",
"183 418 CURVE SMOOTH",
"170 299 OFFCURVE",
"139 102 OFFCURVE",
"141 88 CURVE SMOOTH",
"145 77 OFFCURVE",
"161 67 OFFCURVE",
"197 51 CURVE",
"78 53 LINE",
"72 0 LINE",
"234 4 OFFCURVE",
"294 4 OFFCURVE",
"549 0 CURVE",
"559 89 OFFCURVE",
"573 159 OFFCURVE",
"574 165 CURVE"
);
}
);
};
components = (
{
name = _part.stem.cap;
transform = "{1, 0, 0, 1, -166, 0}";
}
);
layerId = "977FCFA9-45AC-4A33-B2D7-4D17E6BBF8E0";
width = 356;
}
);
leftKerningGroup = I;
leftMetricsKey = H;
rightKerningGroup = I;
rightMetricsKey = H;
unicode = 0049;
},
{
color = 1;
glyphname = J;
lastChange = "2017-05-20 11:25:00 +0000";
layers = (
{
layerId = "71FD7A9F-05F5-4D76-8D4F-547475A05E4C";
paths = (
{
closed = 1;
nodes = (
"90 681 LINE",
"82 636 LINE",
"152 626 LINE",
"163 601 OFFCURVE",
"139 338 OFFCURVE",
"124 186 CURVE SMOOTH",
"100 -57 OFFCURVE",
"50 -106 OFFCURVE",
"7 -151 CURVE",
"31 -187 LINE",
"128 -120 OFFCURVE",
"183 0 OFFCURVE",
"208 275 CURVE SMOOTH",
"222 441 OFFCURVE",
"232 600 OFFCURVE",
"241 623 CURVE",
"310 635 LINE",
"318 680 LINE"
);
}
);
width = 297;
},
{
anchors = (
{
name = bottom;
position = "{71, 0}";
},
{
name = top;
position = "{209, 680}";
}
);
background = {
paths = (
{
closed = 1;
nodes = (
"85 681 LINE",
"75 624 LINE",
"129 615 LINE",
"140 590 OFFCURVE",
"131 489 OFFCURVE",
"126 429 CURVE",
"94 30 OFFCURVE",
"74 -37 OFFCURVE",
"39 -97 CURVE",
"-12 -78 LINE",
"-37 -134 LINE",
"33 -174 LINE",
"148 -146 OFFCURVE",
"212 -56 OFFCURVE",
"223 67 CURVE SMOOTH",
"253 384 OFFCURVE",
"269 569 OFFCURVE",
"283 591 CURVE SMOOTH",
"295 611 OFFCURVE",
"318 619 OFFCURVE",
"341 621 CURVE",
"347 680 LINE"
);
}
);
};
guideLines = (
{
position = "{1345, 737}";
}
);
layerId = "977FCFA9-45AC-4A33-B2D7-4D17E6BBF8E0";
paths = (
{
closed = 1;
nodes = (
"60 681 LINE",
"49 613 LINE",
"102 603 LINE",
"113 578 OFFCURVE",
"82 269 OFFCURVE",
"77 209 CURVE SMOOTH",
"56 -39 OFFCURVE",
"23 -115 OFFCURVE",
"-21 -163 CURVE",
"12 -206 LINE",
"133 -145 OFFCURVE",
"201 -31 OFFCURVE",
"229 275 CURVE SMOOTH",
"244 441 OFFCURVE",
"254 561 OFFCURVE",
"266 603 CURVE",
"324 613 LINE",
"335 680 LINE"
);
}
);
width = 299;
}
);
leftKerningGroup = I;
rightKerningGroup = I;
unicode = 004A;
},
{
color = 1;
glyphname = K;
lastChange = "2017-05-20 12:53:30 +0000";
layers = (
{
background = {
components = (
{
name = _part.stem.cap;
transform = "{1, 0, 0, 1, 7, 0}";
}
);
paths = (
{
closed = 1;
nodes = (
"252 327 LINE",
"327 209 OFFCURVE",
"361 147 OFFCURVE",
"467 -5 CURVE",
"505 -3 OFFCURVE",
"543 5 OFFCURVE",
"589 18 CURVE",
"599 62 LINE",
"538 62 LINE",
"481 129 OFFCURVE",
"429 203 OFFCURVE",
"311 383 CURVE"
);
},
{
closed = 1;
nodes = (
"455 563 OFFCURVE",
"404 508 OFFCURVE",
"255 352 CURVE",
"252 327 LINE",
"307 350 LINE",
"625 680 LINE",
"436 680 LINE",
"428 635 LINE",
"495 624 LINE"
);
},
{
closed = 1;
nodes = (
"546 618 LINE",
"639 635 LINE",
"647 680 LINE",
"569 680 LINE"
);
}
);
};
components = (
{
name = _part.stem.cap;
transform = "{1, 0, 0, 1, 7, 0}";
}
);
layerId = "71FD7A9F-05F5-4D76-8D4F-547475A05E4C";
paths = (
{
closed = 1;
nodes = (
"647 680 LINE",
"435 680 LINE",
"427 635 LINE",
"494 624 LINE",
"454 563 OFFCURVE",
"403 508 OFFCURVE",
"254 352 CURVE",
"251 327 LINE",
"326 209 OFFCURVE",
"360 147 OFFCURVE",
"466 -5 CURVE",
"504 -3 OFFCURVE",
"542 5 OFFCURVE",
"588 18 CURVE",
"598 62 LINE",
"537 62 LINE",
"482 127 OFFCURVE",
"431 198 OFFCURVE",
"321 366 CURVE",
"403 451 OFFCURVE",
"486 537 OFFCURVE",
"568 622 CURVE",
"639 635 LINE"
);
}
);
width = 652;
},
{
anchors = (
{
name = bottom;
position = "{323, 0}";
},
{
name = top;
position = "{401, 680}";
}
);
background = {
components = (
{
name = _part.stem.cap;
transform = "{1, 0, 0, 1, -166, 0}";
}
);
paths = (
{
closed = 1;
nodes = (
"448 545 OFFCURVE",
"362 460 OFFCURVE",
"279 372 CURVE",
"274 321 LINE",
"369 351 LINE",
"452 444 OFFCURVE",
"571 572 OFFCURVE",
"600 601 CURVE",
"680 615 LINE",
"692 680 LINE",
"435 680 LINE",
"423 615 LINE",
"485 603 LINE"
);
},
{
closed = 1;
nodes = (
"274 321 LINE",
"319 220 OFFCURVE",
"400 69 OFFCURVE",
"441 0 CURVE",
"500 -9 OFFCURVE",
"582 -1 OFFCURVE",
"639 18 CURVE",
"651 78 LINE",
"591 82 LINE",
"525 150 OFFCURVE",
"435 281 OFFCURVE",
"370 381 CURVE"
);
}
);
};
components = (
{
name = _part.stem.cap;
transform = "{1, 0, 0, 1, -166, 0}";
}
);
layerId = "977FCFA9-45AC-4A33-B2D7-4D17E6BBF8E0";
paths = (
{
closed = 1;
nodes = (
"692 680 LINE",
"435 680 LINE",
"423 615 LINE",
"485 603 LINE",
"448 545 OFFCURVE",
"362 460 OFFCURVE",
"279 372 CURVE",
"274 321 LINE",
"319 220 OFFCURVE",
"400 69 OFFCURVE",
"441 0 CURVE",
"500 -9 OFFCURVE",
"582 -1 OFFCURVE",
"639 18 CURVE",
"651 78 LINE",
"591 82 LINE",
"529 146 OFFCURVE",
"445 267 OFFCURVE",
"381 364 CURVE",
"463 456 OFFCURVE",
"572 573 OFFCURVE",
"600 601 CURVE",
"680 615 LINE"
);
}
);
width = 701;
}
);
leftKerningGroup = I;
leftMetricsKey = H;
rightKerningGroup = X;
unicode = 004B;
},
{
color = 1;
glyphname = L;
lastChange = "2017-05-20 10:52:14 +0000";
layers = (
{
anchors = (
{
name = bottom;
position = "{244, 0}";
},
{
name = center;
position = "{172, 340}";
},
{
name = top;
position = "{201, 680}";
},
{
name = topright;
position = "{563, 680}";
}
);
components = (
{
name = _part.stem.cap;
transform = "{1, 0, -0.0171, 1, -6, 0}";
}
);
guideLines = (
{
position = "{431, 746}";
},
{
position = "{418, 865}";
}
);
layerId = "71FD7A9F-05F5-4D76-8D4F-547475A05E4C";
paths = (
{
closed = 1;
nodes = (
"122 0 LINE",
"487 0 LINE",
"498 64 OFFCURVE",
"516 153 OFFCURVE",
"517 159 CURVE",
"480 166 LINE",
"434 72 LINE",
"391 57 OFFCURVE",
"247 49 OFFCURVE",
"210 54 CURVE",
"155 54 LINE"
);
}
);
width = 536;
},
{
anchors = (
{
name = bottom;
position = "{235, 0}";
},
{
name = center;
position = "{187, 354}";
},
{
name = top;
position = "{210, 680}";
},
{
name = topright;
position = "{562, 700}";
}
);
background = {
paths = (
{
closed = 1;
nodes = (
"60 700 LINE",
"52 653 LINE",
"102 642 LINE",
"113 602 OFFCURVE",
"106 484 OFFCURVE",
"103 427 CURVE SMOOTH",
"94 249 OFFCURVE",
"69 101 OFFCURVE",
"72 88 CURVE SMOOTH",
"76 74 OFFCURVE",
"114 56 OFFCURVE",
"133 50 CURVE",
"13 51 LINE",
"10 0 LINE",
"508 -1 LINE",
"535 163 LINE",
"490 173 LINE",
"486 166 OFFCURVE",
"481 115 OFFCURVE",
"418 94 CURVE SMOOTH",
"379 81 OFFCURVE",
"312 80 OFFCURVE",
"238 81 CURVE",
"208 114 OFFCURVE",
"216 228 OFFCURVE",
"224 331 CURVE",
"346 325 LINE",
"357 279 LINE",
"397 282 LINE",
"402 325 OFFCURVE",
"409 410 OFFCURVE",
"394 410 CURVE SMOOTH",
"386 410 OFFCURVE",
"223 404 OFFCURVE",
"229 404 CURVE",
"230 455 OFFCURVE",
"246 569 OFFCURVE",
"257 613 CURVE",
"372 613 LINE",
"466 610 OFFCURVE",
"495 580 OFFCURVE",
"503 527 CURVE",
"550 537 LINE",
"532 699 LINE"
);
}
);
};
components = (
{
name = _part.stem.cap;
transform = "{1, 0, 0, 1, -166, 0}";
}
);
guideLines = (
{
angle = -12;
position = "{455, 184}";
}
);
layerId = "977FCFA9-45AC-4A33-B2D7-4D17E6BBF8E0";
paths = (
{
closed = 1;
nodes = (
"130 0 LINE",
"517 0 LINE",
"535 99 OFFCURVE",
"545 138 OFFCURVE",
"554 180 CURVE",
"487 188 LINE",
"446 106 LINE",
"404 91 OFFCURVE",
"285 85 OFFCURVE",
"249 91 CURVE",
"151 54 LINE"
);
}
);
width = 570;
}
);
leftKerningGroup = I;
leftMetricsKey = H;
rightKerningGroup = L;
unicode = 004C;
},
{
color = 1;
glyphname = M;
lastChange = "2017-05-20 10:52:14 +0000";
layers = (
{
layerId = "71FD7A9F-05F5-4D76-8D4F-547475A05E4C";
paths = (
{
closed = 1;
nodes = (
"268 468 LINE",
"307 317 OFFCURVE",
"385 -1 OFFCURVE",
"388 -7 CURVE",
"440 92 LINE",
"434 111 OFFCURVE",
"339 500 OFFCURVE",
"301 680 CURVE",
"296 675 LINE",
"299 680 LINE",
"237 613 LINE"
);
},
{
closed = 1;
nodes = (
"510 154 OFFCURVE",
"638 456 OFFCURVE",
"672 538 CURVE",
"671 455 OFFCURVE",
"679 144 OFFCURVE",
"681 104 CURVE SMOOTH",
"681 88 OFFCURVE",
"695 66 OFFCURVE",
"723 56 CURVE",
"618 46 LINE",
"610 0 LINE",
"823 0 LINE",
"831 46 LINE",
"771 56 LINE",
"751 141 OFFCURVE",
"755 232 OFFCURVE",
"744 622 CURVE",
"819 635 LINE",
"826 680 LINE",
"668 680 LINE",
"573 434 OFFCURVE",
"504 279 OFFCURVE",
"444 146 CURVE",
"421 87 OFFCURVE",
"414 52 OFFCURVE",
"388 -7 CURVE",
"442 2 LINE"
);
},
{
closed = 1;
nodes = (
"156 89 OFFCURVE",
"220 384 OFFCURVE",
"249 543 CURVE",
"265 598 OFFCURVE",
"276 660 OFFCURVE",
"301 680 CURVE",
"143 680 LINE",
"136 635 LINE",
"204 624 LINE",
"158 369 OFFCURVE",
"101 107 OFFCURVE",
"90 64 CURVE",
"13 45 LINE",
"5 0 LINE",
"222 0 LINE",
"230 46 LINE",
"167 55 LINE"
);
}
);
width = 869;
},
{
layerId = "977FCFA9-45AC-4A33-B2D7-4D17E6BBF8E0";
paths = (
{
closed = 1;
nodes = (
"234 467 LINE",
"273 316 OFFCURVE",
"366 -1 OFFCURVE",
"369 -7 CURVE",
"467 161 LINE",
"461 180 OFFCURVE",
"368 500 OFFCURVE",
"327 680 CURVE",
"304 680 LINE",
"315 680 LINE",
"197 588 LINE"
);
},
{
closed = 1;
nodes = (
"509 146 OFFCURVE",
"598 347 OFFCURVE",
"637 441 CURVE",
"633 179 OFFCURVE",
"636 156 OFFCURVE",
"638 141 CURVE SMOOTH",
"642 102 OFFCURVE",
"655 85 OFFCURVE",
"683 76 CURVE",
"576 66 LINE",
"566 0 LINE",
"849 0 LINE",
"858 66 LINE",
"798 76 LINE",
"776 161 OFFCURVE",
"778 472 OFFCURVE",
"776 603 CURVE",
"855 615 LINE",
"866 680 LINE",
"645 680 LINE",
"555 434 OFFCURVE",
"465 280 OFFCURVE",
"410 146 CURVE",
"387 87 OFFCURVE",
"395 52 OFFCURVE",
"369 -7 CURVE",
"452 3 LINE"
);
},
{
closed = 1;
nodes = (
"175 109 OFFCURVE",
"227 362 OFFCURVE",
"255 521 CURVE",
"270 565 OFFCURVE",
"292 660 OFFCURVE",
"317 680 CURVE",
"109 680 LINE",
"98 615 LINE",
"176 604 LINE",
"127 349 OFFCURVE",
"79 120 OFFCURVE",
"67 77 CURVE",
"-6 65 LINE",
"-15 0 LINE",
"254 0 LINE",
"264 66 LINE",
"187 75 LINE"
);
}
);
width = 886;
}
);
leftKerningGroup = A;
rightKerningGroup = A;
unicode = 004D;
},
{
color = 1;
glyphname = N;
lastChange = "2017-05-20 10:52:14 +0000";
layers = (
{
anchors = (
{
name = bottom;
position = "{331, 0}";
},
{
name = top;
position = "{402, 680}";
}
);
layerId = "71FD7A9F-05F5-4D76-8D4F-547475A05E4C";
paths = (
{
closed = 1;
nodes = (
"169 550 LINE",
"183 537 OFFCURVE",
"204 510 OFFCURVE",
"224 483 CURVE SMOOTH",
"245 454 OFFCURVE",
"270 415 OFFCURVE",
"291 383 CURVE SMOOTH",
"473 107 OFFCURVE",
"528 -5 OFFCURVE",
"531 -9 CURVE",
"558 76 LINE",
"541 100 OFFCURVE",
"582 109 OFFCURVE",
"551 147 CURVE SMOOTH",
"522 182 OFFCURVE",
"475 244 OFFCURVE",
"439 298 CURVE SMOOTH",
"288 522 OFFCURVE",
"273 562 OFFCURVE",
"221 680 CURVE",
"217 675 LINE",
"219 680 LINE",
"149 579 LINE"
);
},
{
closed = 1;
nodes = (
"165 82 OFFCURVE",
"165 160 OFFCURVE",
"172 236 CURVE SMOOTH",
"183 363 OFFCURVE",
"193 521 OFFCURVE",
"221 680 CURVE",
"80 680 LINE",
"72 635 LINE",
"127 626 LINE",
"146 600 OFFCURVE",
"136 479 OFFCURVE",
"122 317 CURVE SMOOTH",
"107 145 OFFCURVE",
"99 103 OFFCURVE",
"91 60 CURVE",
"16 45 LINE",
"8 0 LINE",
"223 0 LINE",
"231 46 LINE",
"174 57 LINE"
);
},
{
closed = 1;
nodes = (
"575 600 OFFCURVE",
"568 534 OFFCURVE",
"559 424 CURVE SMOOTH",
"528 73 OFFCURVE",
"534 99 OFFCURVE",
"531 -9 CURVE",
"580 0 LINE",
"601 286 OFFCURVE",
"632 560 OFFCURVE",
"645 622 CURVE",
"719 635 LINE",
"727 680 LINE",
"509 680 LINE",
"501 635 LINE",
"563 626 LINE"
);
}
);
width = 711;
},
{
anchors = (
{
name = bottom;
position = "{285, 0}";
},
{
name = top;
position = "{389, 680}";
}
);
layerId = "977FCFA9-45AC-4A33-B2D7-4D17E6BBF8E0";
paths = (
{
closed = 1;
nodes = (
"143 544 LINE",
"157 530 OFFCURVE",
"166 468 OFFCURVE",
"190 445 CURVE SMOOTH",
"224 414 OFFCURVE",
"251 363 OFFCURVE",
"277 330 CURVE SMOOTH",
"396 181 OFFCURVE",
"512 -7 OFFCURVE",
"515 -11 CURVE",
"610 115 LINE",
"593 139 OFFCURVE",
"578 191 OFFCURVE",
"543 223 CURVE SMOOTH",
"512 252 OFFCURVE",
"484 304 OFFCURVE",
"464 333 CURVE SMOOTH",
"385 444 OFFCURVE",
"298 562 OFFCURVE",
"246 680 CURVE",
"238 675 LINE",
"243 680 LINE",
"133 572 LINE"
);
},
{
closed = 1;
nodes = (
"186 102 OFFCURVE",
"186 171 OFFCURVE",
"192 236 CURVE SMOOTH",
"203 363 OFFCURVE",
"216 521 OFFCURVE",
"244 680 CURVE",
"60 680 LINE",
"49 615 LINE",
"106 605 LINE",
"125 579 OFFCURVE",
"119 502 OFFCURVE",
"105 340 CURVE SMOOTH",
"99 268 OFFCURVE",
"82 122 OFFCURVE",
"72 79 CURVE",
"-3 65 LINE",
"-13 0 LINE",
"256 0 LINE",
"266 66 LINE",
"196 77 LINE"
);
},
{
closed = 1;
nodes = (
"552 580 OFFCURVE",
"548 474 OFFCURVE",
"544 424 CURVE SMOOTH",
"513 73 OFFCURVE",
"518 97 OFFCURVE",
"515 -11 CURVE",
"606 3 LINE",
"627 289 OFFCURVE",
"652 541 OFFCURVE",
"664 603 CURVE",
"743 615 LINE",
"754 680 LINE",
"477 680 LINE",
"466 615 LINE",
"541 606 LINE"
);
}
);
width = 718;
}
);
leftKerningGroup = I;
rightKerningGroup = I;
unicode = 004E;
},
{
glyphname = Eng;
lastChange = "2017-05-20 10:52:14 +0000";
layers = (
{
anchors = (
{
name = bottom;
position = "{282, 0}";
},
{
name = top;
position = "{336, 661}";
}
);
background = {
paths = (
{
closed = 1;
nodes = (
"355 -271 OFFCURVE",
"441 -240 CURVE SMOOTH",
"558 -199 OFFCURVE",
"545 -45 OFFCURVE",
"472 23 CURVE",
"425 21 LINE",
"458 -16 OFFCURVE",
"457 -97 OFFCURVE",
"411 -140 CURVE SMOOTH",
"385 -165 OFFCURVE",
"359 -165 OFFCURVE",
"331 -153 CURVE SMOOTH",
"293 -136 OFFCURVE",
"267 -101 OFFCURVE",
"262 -87 CURVE",
"236 -119 LINE",
"261 -203 OFFCURVE"
);
}
);
};
layerId = "71FD7A9F-05F5-4D76-8D4F-547475A05E4C";
paths = (
{
closed = 1;
nodes = (
"510 49 LINE",
"574 -84 OFFCURVE",
"454 -190 OFFCURVE",
"309 -98 CURVE",
"295 -102 LINE",
"282 -128 LINE",
"313 -167 OFFCURVE",
"426 -234 OFFCURVE",
"516 -188 CURVE SMOOTH",
"588 -151 OFFCURVE",
"588 -64 OFFCURVE",
"593 15 CURVE"
);
},
{
closed = 1;
nodes = (
"179 550 LINE",
"194 537 OFFCURVE",
"215 510 OFFCURVE",
"234 483 CURVE SMOOTH",
"256 454 OFFCURVE",
"280 415 OFFCURVE",
"302 383 CURVE SMOOTH",
"484 107 OFFCURVE",
"539 -5 OFFCURVE",
"541 -9 CURVE",
"569 76 LINE",
"552 100 OFFCURVE",
"593 109 OFFCURVE",
"562 147 CURVE SMOOTH",
"533 182 OFFCURVE",
"486 244 OFFCURVE",
"449 298 CURVE SMOOTH",
"299 522 OFFCURVE",
"283 562 OFFCURVE",
"232 680 CURVE",
"227 675 LINE",
"230 680 LINE",
"160 579 LINE"
);
},
{
closed = 1;
nodes = (
"175 82 OFFCURVE",
"176 160 OFFCURVE",
"183 236 CURVE SMOOTH",
"194 363 OFFCURVE",
"204 521 OFFCURVE",
"232 680 CURVE",
"91 680 LINE",
"83 635 LINE",
"138 626 LINE",
"157 600 OFFCURVE",
"147 479 OFFCURVE",
"133 317 CURVE SMOOTH",
"118 145 OFFCURVE",
"110 103 OFFCURVE",
"101 60 CURVE",
"27 45 LINE",
"19 0 LINE",
"234 0 LINE",
"242 46 LINE",
"185 57 LINE"
);
},
{
closed = 1;
nodes = (
"586 600 OFFCURVE",
"579 534 OFFCURVE",
"569 424 CURVE SMOOTH",
"539 73 OFFCURVE",
"545 99 OFFCURVE",
"541 -9 CURVE",
"591 0 LINE",
"612 286 OFFCURVE",
"643 560 OFFCURVE",
"655 622 CURVE",
"730 635 LINE",
"738 680 LINE",
"520 680 LINE",
"512 635 LINE",
"574 626 LINE"
);
}
);
width = 664;
},
{
anchors = (
{
name = bottom;
position = "{314, 0}";
},
{
name = top;
position = "{368, 661}";
}
);
background = {
paths = (
{
closed = 1;
nodes = (
"387 -271 OFFCURVE",
"473 -240 CURVE SMOOTH",
"590 -199 OFFCURVE",
"577 -45 OFFCURVE",
"504 23 CURVE",
"457 21 LINE",
"490 -16 OFFCURVE",
"489 -97 OFFCURVE",
"443 -140 CURVE SMOOTH",
"417 -165 OFFCURVE",
"391 -165 OFFCURVE",
"363 -153 CURVE SMOOTH",
"325 -136 OFFCURVE",
"299 -101 OFFCURVE",
"294 -87 CURVE",
"268 -119 LINE",
"293 -203 OFFCURVE"
);
}
);
};
layerId = "977FCFA9-45AC-4A33-B2D7-4D17E6BBF8E0";
paths = (
{
closed = 1;
nodes = (
"207 91 OFFCURVE",
"207 160 OFFCURVE",
"214 236 CURVE SMOOTH",
"227 383 OFFCURVE",
"237 541 OFFCURVE",
"265 700 CURVE",
"84 700 LINE",
"74 643 LINE",
"131 633 LINE",
"149 607 OFFCURVE",
"141 499 OFFCURVE",
"127 337 CURVE SMOOTH",
"118 238 OFFCURVE",
"108 172 OFFCURVE",
"98 129 CURVE SMOOTH",
"85 70 OFFCURVE",
"44 55 OFFCURVE",
"18 55 CURVE",
"11 0 LINE",
"265 0 LINE",
"275 55 LINE",
"217 66 LINE"
);
},
{
closed = 1;
nodes = (
"472 645 LINE",
"534 636 LINE",
"546 610 OFFCURVE",
"540 494 OFFCURVE",
"535 444 CURVE SMOOTH",
"527 364 OFFCURVE",
"522 303 OFFCURVE",
"518 255 CURVE",
"492 285 OFFCURVE",
"469 325 OFFCURVE",
"454 351 CURVE SMOOTH",
"377 480 OFFCURVE",
"316 582 OFFCURVE",
"265 700 CURVE",
"260 695 LINE",
"263 700 LINE",
"156 592 LINE",
"167 564 LINE",
"180 550 OFFCURVE",
"191 500 OFFCURVE",
"215 477 CURVE SMOOTH",
"248 446 OFFCURVE",
"281 384 OFFCURVE",
"300 351 CURVE SMOOTH",
"374 223 OFFCURVE",
"471 59 OFFCURVE",
"496 13 CURVE SMOOTH",
"535 -60 OFFCURVE",
"502 -119 OFFCURVE",
"464 -148 CURVE",
"421 -175 OFFCURVE",
"361 -176 OFFCURVE",
"308 -138 CURVE",
"290 -185 LINE",
"321 -224 OFFCURVE",
"421 -283 OFFCURVE",
"505 -233 CURVE SMOOTH",
"594 -180 OFFCURVE",
"591 -78 OFFCURVE",
"596 0 CURVE SMOOTH",
"618 286 OFFCURVE",
"638 504 OFFCURVE",
"653 566 CURVE SMOOTH",
"666 619 OFFCURVE",
"699 645 OFFCURVE",
"737 645 CURVE",
"744 700 LINE",
"483 700 LINE"
);
}
);
width = 718;
}
);
leftKerningGroup = I;
rightKerningGroup = I;
unicode = 014A;
},
{
color = 1;
glyphname = O;
lastChange = "2017-05-20 10:52:14 +0000";
layers = (
{
anchors = (
{
name = bottom;
position = "{326, 0}";
},
{
name = center;
position = "{362, 340}";
},
{
name = ogonek;
position = "{606, 10}";
},
{
name = top;
position = "{386, 680}";
},
{
name = topleft;
position = "{66, 680}";
},
{
name = topright;
position = "{727, 680}";
}
);
guideLines = (
{
position = "{431, 746}";
},
{
position = "{418, 865}";
}
);
layerId = "71FD7A9F-05F5-4D76-8D4F-547475A05E4C";
paths = (
{
closed = 1;
nodes = (
"567 672 OFFCURVE",
"483 715 OFFCURVE",
"339 688 CURVE SMOOTH",
"24 629 OFFCURVE",
"-17 222 OFFCURVE",
"109 76 CURVE SMOOTH",
"186 -13 OFFCURVE",
"292 -34 OFFCURVE",
"420 0 CURVE SMOOTH",
"699 74 OFFCURVE",
"752 443 OFFCURVE",
"621 605 CURVE SMOOTH"
);
},
{
closed = 1;
nodes = (
"234 15 OFFCURVE",
"157 111 OFFCURVE",
"135 267 CURVE SMOOTH",
"112 430 OFFCURVE",
"194 605 OFFCURVE",
"368 656 CURVE",
"366 666 LINE",
"295 653 LINE",
"295 642 LINE",
"503 664 OFFCURVE",
"583 557 OFFCURVE",
"600 406 CURVE SMOOTH",
"619 241 OFFCURVE",
"528 78 OFFCURVE",
"376 31 CURVE",
"380 16 LINE",
"447 24 LINE",
"444 40 LINE"
);
}
);
width = 701;
},
{
anchors = (
{
name = bottom;
position = "{265, 0}";
},
{
name = center;
position = "{338, 350}";
},
{
name = ogonek;
position = "{535, 10}";
},
{
name = top;
position = "{388, 680}";
},
{
name = topleft;
position = "{94, 700}";
},
{
name = topright;
position = "{728, 700}";
}
);
background = {
paths = (
{
closed = 1;
nodes = (
"570 685 OFFCURVE",
"476 730 OFFCURVE",
"332 711 CURVE",
"22 649 OFFCURVE",
"-33 244 OFFCURVE",
"116 81 CURVE SMOOTH",
"194 -8 OFFCURVE",
"311 -29 OFFCURVE",
"437 -1 CURVE",
"710 77 OFFCURVE",
"778 440 OFFCURVE",
"626 618 CURVE SMOOTH"
);
},
{
closed = 1;
nodes = (
"343 77 OFFCURVE",
"267 99 OFFCURVE",
"227 176 CURVE SMOOTH",
"143 334 OFFCURVE",
"187 547 OFFCURVE",
"337 628 CURVE",
"400 628 OFFCURVE",
"474 610 OFFCURVE",
"518 521 CURVE SMOOTH",
"595 372 OFFCURVE",
"553 165 OFFCURVE",
"407 78 CURVE"
);
}
);
};
layerId = "977FCFA9-45AC-4A33-B2D7-4D17E6BBF8E0";
paths = (
{
closed = 1;
nodes = (
"590 662 OFFCURVE",
"488 719 OFFCURVE",
"333 692 CURVE SMOOTH",
"28 639 OFFCURVE",
"-55 249 OFFCURVE",
"77 85 CURVE SMOOTH",
"149 -4 OFFCURVE",
"286 -37 OFFCURVE",
"410 -5 CURVE SMOOTH",
"680 65 OFFCURVE",
"773 414 OFFCURVE",
"640 595 CURVE SMOOTH"
);
},
{
closed = 1;
nodes = (
"348 69 OFFCURVE",
"252 97 OFFCURVE",
"207 187 CURVE SMOOTH",
"131 338 OFFCURVE",
"201 554 OFFCURVE",
"360 615 CURVE",
"356 634 LINE",
"307 620 LINE",
"311 601 LINE",
"376 613 OFFCURVE",
"472 584 OFFCURVE",
"515 488 CURVE SMOOTH",
"583 336 OFFCURVE",
"514 137 OFFCURVE",
"356 63 CURVE",
"358 38 LINE",
"411 54 LINE",
"406 80 LINE"
);
}
);
width = 696;
}
);
leftKerningGroup = O;
rightKerningGroup = O;
unicode = 004F;
},
{
glyphname = OE;
lastChange = "2017-05-20 10:52:14 +0000";
layers = (
{
anchors = (
{
name = bottom;
position = "{363, 0}";
},
{
name = top;
position = "{497, 700}";
}
);
layerId = "71FD7A9F-05F5-4D76-8D4F-547475A05E4C";
paths = (
{
closed = 1;
nodes = (
"114 4 OFFCURVE",
"230 -3 OFFCURVE",
"360 0 CURVE",
"370 50 LINE",
"197 45 OFFCURVE",
"86 139 OFFCURVE",
"67 276 CURVE SMOOTH",
"46 427 OFFCURVE",
"114 565 OFFCURVE",
"265 626 CURVE",
"345 626 OFFCURVE",
"404 616 OFFCURVE",
"448 601 CURVE",
"464 680 LINE",
"410 680 OFFCURVE",
"336 685 OFFCURVE",
"247 671 CURVE",
"-50 599 OFFCURVE",
"-89 238 OFFCURVE",
"34 96 CURVE SMOOTH"
);
},
{
closed = 1;
nodes = (
"796 159 LINE",
"754 70 LINE",
"714 57 OFFCURVE",
"604 52 OFFCURVE",
"526 54 CURVE",
"515 55 LINE",
"491 111 OFFCURVE",
"511 288 OFFCURVE",
"515 334 CURVE SMOOTH",
"515 340 LINE",
"717 323 LINE",
"736 390 LINE",
"724 398 LINE",
"684 396 OFFCURVE",
"561 392 OFFCURVE",
"520 390 CURVE",
"530 514 OFFCURVE",
"539 591 OFFCURVE",
"543 623 CURVE",
"547 624 LINE",
"653 622 OFFCURVE",
"736 618 OFFCURVE",
"781 609 CURVE",
"789 527 LINE",
"835 537 LINE",
"851 689 LINE",
"745 683 OFFCURVE",
"625 680 OFFCURVE",
"509 680 CURVE SMOOTH",
"394 680 LINE",
"386 636 LINE",
"445 626 LINE",
"455 601 OFFCURVE",
"449 515 OFFCURVE",
"437 388 CURVE SMOOTH",
"419 178 OFFCURVE",
"411 145 OFFCURVE",
"407 93 CURVE SMOOTH",
"406 80 OFFCURVE",
"422 61 OFFCURVE",
"447 55 CURVE",
"335 46 LINE",
"327 0 LINE",
"575 0 LINE",
"575 1 LINE",
"650 0 OFFCURVE",
"726 -1 OFFCURVE",
"801 -3 CURVE",
"837 152 LINE"
);
}
);
width = 936;
},
{
anchors = (
{
name = bottom;
position = "{389, 0}";
},
{
name = top;
position = "{523, 700}";
}
);
layerId = "977FCFA9-45AC-4A33-B2D7-4D17E6BBF8E0";
paths = (
{
closed = 1;
nodes = (
"543 12 LINE",
"540 115 LINE",
"514 97 OFFCURVE",
"385 86 OFFCURVE",
"334 80 CURVE",
"335 55 LINE",
"389 71 LINE",
"382 82 LINE",
"324 71 OFFCURVE",
"230 111 OFFCURVE",
"195 207 CURVE SMOOTH",
"139 357 OFFCURVE",
"196 541 OFFCURVE",
"344 604 CURVE",
"339 623 LINE",
"290 609 LINE",
"294 590 LINE",
"355 595 OFFCURVE",
"502 582 OFFCURVE",
"558 522 CURVE",
"571 648 LINE",
"481 680 LINE",
"446 681 OFFCURVE",
"376 682 OFFCURVE",
"316 679 CURVE",
"21 617 OFFCURVE",
"-46 269 OFFCURVE",
"60 100 CURVE SMOOTH",
"123 1 OFFCURVE",
"260 -11 OFFCURVE",
"393 0 CURVE SMOOTH"
);
},
{
closed = 1;
nodes = (
"892 197 LINE",
"854 115 LINE",
"814 102 OFFCURVE",
"728 97 OFFCURVE",
"654 98 CURVE",
"637 156 OFFCURVE",
"646 250 OFFCURVE",
"653 310 CURVE",
"816 292 LINE",
"841 398 LINE",
"826 408 LINE",
"773 407 OFFCURVE",
"715 405 OFFCURVE",
"661 402 CURVE",
"669 484 OFFCURVE",
"675 547 OFFCURVE",
"683 585 CURVE",
"766 583 OFFCURVE",
"828 580 OFFCURVE",
"867 574 CURVE",
"877 482 LINE",
"949 492 LINE",
"966 676 LINE",
"952 688 LINE",
"802 678 OFFCURVE",
"752 683 OFFCURVE",
"602 680 CURVE SMOOTH",
"462 680 LINE",
"450 615 LINE",
"517 605 LINE",
"528 580 OFFCURVE",
"525 515 OFFCURVE",
"510 388 CURVE SMOOTH",
"485 166 OFFCURVE",
"487 190 OFFCURVE",
"483 159 CURVE SMOOTH",
"479 123 OFFCURVE",
"496 110 OFFCURVE",
"523 104 CURVE",
"404 66 LINE",
"393 0 LINE",
"717 0 LINE SMOOTH",
"784 0 OFFCURVE",
"793 -1 OFFCURVE",
"917 -4 CURVE",
"956 189 LINE"
);
}
);
width = 993;
}
);
unicode = 0152;
},
{
color = 1;
glyphname = P;
lastChange = "2017-05-20 12:46:03 +0000";
layers = (
{
components = (
{
name = _part.stem.cap;
transform = "{1, 0, 0, 1, -12, 0}";
}
);
layerId = "71FD7A9F-05F5-4D76-8D4F-547475A05E4C";
paths = (
{
closed = 1;
nodes = (
"175 299 LINE",
"205 287 OFFCURVE",
"298 288 OFFCURVE",
"333 293 CURVE",
"555 328 OFFCURVE",
"618 595 OFFCURVE",
"439 661 CURVE SMOOTH",
"344 696 OFFCURVE",
"280 687 OFFCURVE",
"98 680 CURVE",
"229 631 LINE",
"476 686 OFFCURVE",
"543 425 OFFCURVE",
"354 342 CURVE",
"305 341 OFFCURVE",
"235 342 OFFCURVE",
"188 357 CURVE"
);
},
{
closed = 1;
nodes = (
"113 0 LINE",
"285 0 LINE",
"294 46 LINE",
"173 60 LINE"
);
}
);
width = 532;
},
{
background = {
components = (
{
name = R;
transform = "{1, 0, 0, 1, -13, 0}";
}
);
};
components = (
{
name = _part.stem.cap;
transform = "{1, 0, 0, 1, -165, 0}";
piece = {
"BPR?" = 1;
};
}
);
guideLines = (
{
angle = 84;
position = "{609, 311}";
}
);
layerId = "977FCFA9-45AC-4A33-B2D7-4D17E6BBF8E0";
paths = (
{
closed = 1;
nodes = (
"228 274 LINE",
"258 262 OFFCURVE",
"328 261 OFFCURVE",
"363 266 CURVE",
"608 314 OFFCURVE",
"665 575 OFFCURVE",
"497 655 CURVE SMOOTH",
"403 700 OFFCURVE",
"252 689 OFFCURVE",
"88 678 CURVE",
"258 600 LINE",
"463 632 OFFCURVE",
"461 415 OFFCURVE",
"373 361 CURVE",
"348 353 OFFCURVE",
"263 356 OFFCURVE",
"228 373 CURVE"
);
},
{
closed = 1;
nodes = (
"124 0 LINE",
"346 0 LINE",
"358 66 LINE",
"211 83 LINE"
);
}
);
width = 576;
}
);
leftKerningGroup = I;
leftMetricsKey = H;
unicode = 0050;
},
{
glyphname = Thorn;
lastChange = "2017-05-20 10:52:14 +0000";
layers = (
{
layerId = "71FD7A9F-05F5-4D76-8D4F-547475A05E4C";
paths = (
{
closed = 1;
nodes = (
"128 163 LINE",
"158 151 OFFCURVE",
"251 152 OFFCURVE",
"286 157 CURVE",
"508 192 OFFCURVE",
"571 460 OFFCURVE",
"392 525 CURVE SMOOTH",
"321 551 OFFCURVE",
"259 553 OFFCURVE",
"155 549 CURVE",
"183 492 LINE",
"429 550 OFFCURVE",
"496 289 OFFCURVE",
"308 206 CURVE",
"258 205 OFFCURVE",
"189 206 OFFCURVE",
"141 221 CURVE"
);
},
{
closed = 1;
nodes = (
"71 0 LINE",
"243 0 LINE",
"252 46 LINE",
"130 60 LINE"
);
},
{
closed = 1;
nodes = (
"289 634 LINE",
"298 680 LINE",
"122 680 LINE",
"171 620 LINE"
);
},
{
closed = 1;
nodes = (
"50 680 LINE",
"42 636 LINE",
"100 626 LINE",
"110 601 OFFCURVE",
"104 515 OFFCURVE",
"92 388 CURVE SMOOTH",
"74 178 OFFCURVE",
"66 145 OFFCURVE",
"62 93 CURVE SMOOTH",
"61 80 OFFCURVE",
"77 61 OFFCURVE",
"102 55 CURVE",
"-10 46 LINE",
"-18 0 LINE",
"231 0 LINE",
"239 46 LINE",
"170 55 LINE",
"146 111 OFFCURVE",
"166 288 OFFCURVE",
"170 334 CURVE SMOOTH",
"183 491 OFFCURVE",
"188 532 OFFCURVE",
"192 569 CURVE SMOOTH",
"198 618 OFFCURVE",
"193 667 OFFCURVE",
"255 669 CURVE",
"282 680 LINE"
);
}
);
width = 512;
},
{
layerId = "977FCFA9-45AC-4A33-B2D7-4D17E6BBF8E0";
paths = (
{
closed = 1;
nodes = (
"210 142 LINE",
"240 130 OFFCURVE",
"310 129 OFFCURVE",
"345 134 CURVE",
"590 182 OFFCURVE",
"647 443 OFFCURVE",
"479 523 CURVE SMOOTH",
"408 557 OFFCURVE",
"303 559 OFFCURVE",
"186 553 CURVE",
"240 468 LINE",
"445 500 OFFCURVE",
"443 283 OFFCURVE",
"356 229 CURVE",
"330 221 OFFCURVE",
"245 224 OFFCURVE",
"210 241 CURVE"
);
},
{
closed = 1;
nodes = (
"118 0 LINE",
"335 0 LINE",
"346 66 LINE",
"205 83 LINE"
);
},
{
closed = 1;
nodes = (
"381 613 LINE",
"393 680 LINE",
"174 680 LINE",
"247 596 LINE"
);
},
{
closed = 1;
nodes = (
"56 680 LINE",
"45 616 LINE",
"113 605 LINE",
"124 580 OFFCURVE",
"120 515 OFFCURVE",
"104 388 CURVE SMOOTH",
"82 201 OFFCURVE",
"79 166 OFFCURVE",
"75 136 CURVE SMOOTH",
"71 100 OFFCURVE",
"89 84 OFFCURVE",
"115 78 CURVE",
"-2 66 LINE",
"-12 0 LINE",
"313 0 LINE",
"324 66 LINE",
"257 78 LINE",
"227 137 OFFCURVE",
"241 229 OFFCURVE",
"250 334 CURVE SMOOTH",
"263 491 OFFCURVE",
"272 587 OFFCURVE",
"286 609 CURVE SMOOTH",
"299 630 OFFCURVE",
"316 645 OFFCURVE",
"360 646 CURVE",
"368 680 LINE"
);
}
);
width = 566;
}
);
leftKerningGroup = I;
rightKerningGroup = B;
unicode = 00DE;
},
{
color = 1;
glyphname = Q;
lastChange = "2017-05-20 10:52:14 +0000";
layers = (
{
components = (
{
name = O;
}
);
layerId = "71FD7A9F-05F5-4D76-8D4F-547475A05E4C";
paths = (
{
closed = 1;
nodes = (
"397 -90 OFFCURVE",
"575 -192 OFFCURVE",
"668 -208 CURVE",
"760 -157 LINE",
"748 -118 LINE",
"696 -129 LINE",
"560 -103 OFFCURVE",
"416 -24 OFFCURVE",
"348 32 CURVE",
"297 42 LINE"
);
}
);
width = 717;
},
{
background = {
paths = (
{
closed = 1;
nodes = (
"360 -45 OFFCURVE",
"563 -202 OFFCURVE",
"671 -191 CURVE",
"724 -169 OFFCURVE",
"772 -133 OFFCURVE",
"794 -106 CURVE",
"767 -56 LINE",
"751 -71 OFFCURVE",
"732 -83 OFFCURVE",
"717 -88 CURVE",
"653 -73 OFFCURVE",
"307 61 OFFCURVE",
"271 138 CURVE",
"220 109 LINE"
);
},
{
closed = 1;
nodes = (
"564 683 OFFCURVE",
"477 727 OFFCURVE",
"343 709 CURVE",
"54 647 OFFCURVE",
"-5 244 OFFCURVE",
"129 81 CURVE SMOOTH",
"200 -7 OFFCURVE",
"309 -28 OFFCURVE",
"426 0 CURVE",
"681 77 OFFCURVE",
"752 439 OFFCURVE",
"615 616 CURVE SMOOTH"
);
},
{
closed = 1;
nodes = (
"340 58 OFFCURVE",
"287 99 OFFCURVE",
"252 176 CURVE SMOOTH",
"178 333 OFFCURVE",
"206 545 OFFCURVE",
"346 626 CURVE",
"405 626 OFFCURVE",
"455 608 OFFCURVE",
"495 519 CURVE SMOOTH",
"563 371 OFFCURVE",
"538 146 OFFCURVE",
"400 59 CURVE"
);
}
);
};
components = (
{
name = O;
}
);
layerId = "977FCFA9-45AC-4A33-B2D7-4D17E6BBF8E0";
paths = (
{
closed = 1;
nodes = (
"353 -72 OFFCURVE",
"547 -237 OFFCURVE",
"656 -226 CURVE",
"790 -158 LINE",
"770 -96 LINE",
"708 -109 LINE",
"645 -94 OFFCURVE",
"354 -4 OFFCURVE",
"297 73 CURVE",
"216 82 LINE"
);
}
);
width = 695;
}
);
leftKerningGroup = O;
leftMetricsKey = O;
rightKerningGroup = O;
unicode = 0051;
},
{
color = 1;
glyphname = R;
lastChange = "2017-05-20 12:48:27 +0000";
layers = (
{
anchors = (
{
name = bottom;
position = "{284, 0}";
},
{
name = top;
position = "{327, 680}";
}
);
components = (
{
name = _part.stem.cap;
transform = "{1, 0, 0, 1, -21, 0}";
}
);
layerId = "71FD7A9F-05F5-4D76-8D4F-547475A05E4C";
paths = (
{
closed = 1;
nodes = (
"182 309 LINE",
"188 306 OFFCURVE",
"301 303 OFFCURVE",
"328 304 CURVE",
"387 319 LINE",
"470 338 OFFCURVE",
"554 434 OFFCURVE",
"535 549 CURVE SMOOTH",
"503 727 OFFCURVE",
"265 685 OFFCURVE",
"86 679 CURVE",
"229 630 LINE",
"484 690 OFFCURVE",
"528 426 OFFCURVE",
"355 352 CURVE",
"311 351 OFFCURVE",
"240 351 OFFCURVE",
"197 365 CURVE"
);
},
{
closed = 1;
nodes = (
"287 327 LINE",
"345 204 OFFCURVE",
"367 139 OFFCURVE",
"458 -5 CURVE",
"496 -3 OFFCURVE",
"534 5 OFFCURVE",
"580 18 CURVE",
"590 62 LINE",
"529 62 LINE",
"469 126 OFFCURVE",
"453 147 OFFCURVE",
"339 327 CURVE"
);
}
);
width = 617;
},
{
anchors = (
{
name = bottom;
position = "{287, -2}";
},
{
name = top;
position = "{340, 680}";
}
);
background = {
components = (
{
name = k;
transform = "{1, 0, 0, 1, 155, 0}";
}
);
};
components = (
{
name = _part.stem.cap;
transform = "{1, 0, 0, 1, -163, 0}";
}
);
guideLines = (
{
position = "{505, 480}";
}
);
layerId = "977FCFA9-45AC-4A33-B2D7-4D17E6BBF8E0";
paths = (
{
closed = 1;
nodes = (
"242 283 LINE",
"247 280 OFFCURVE",
"320 281 OFFCURVE",
"347 282 CURVE",
"431 291 LINE",
"539 343 OFFCURVE",
"610 425 OFFCURVE",
"592 540 CURVE SMOOTH",
"560 743 OFFCURVE",
"278 684 OFFCURVE",
"79 678 CURVE",
"261 600 LINE",
"461 633 OFFCURVE",
"480 408 OFFCURVE",
"360 363 CURVE",
"337 363 OFFCURVE",
"288 357 OFFCURVE",
"230 382 CURVE"
);
},
{
closed = 1;
nodes = (
"296 322 LINE",
"337 221 OFFCURVE",
"399 69 OFFCURVE",
"440 0 CURVE",
"499 -9 OFFCURVE",
"581 -1 OFFCURVE",
"638 18 CURVE",
"650 78 LINE",
"590 82 LINE",
"524 150 OFFCURVE",
"458 253 OFFCURVE",
"393 353 CURVE"
);
}
);
width = 667;
}
);
leftKerningGroup = I;
leftMetricsKey = H;
rightKerningGroup = B;
unicode = 0052;
},
{
color = 1;
glyphname = S;
lastChange = "2017-05-20 10:52:14 +0000";
layers = (
{
anchors = (
{
name = bottom;
position = "{225, 0}";
},
{
name = top;
position = "{296, 680}";
}
);
layerId = "71FD7A9F-05F5-4D76-8D4F-547475A05E4C";
paths = (
{
closed = 1;
nodes = (
"450 56 OFFCURVE",
"477 118 OFFCURVE",
"481 178 CURVE SMOOTH",
"488 279 OFFCURVE",
"379 336 OFFCURVE",
"312 369 CURVE SMOOTH",
"211 420 OFFCURVE",
"144 451 OFFCURVE",
"149 529 CURVE SMOOTH",
"153 575 OFFCURVE",
"175 611 OFFCURVE",
"251 637 CURVE",
"308 637 OFFCURVE",
"377 630 OFFCURVE",
"415 583 CURVE",
"422 496 LINE",
"469 506 LINE",
"473 535 OFFCURVE",
"486 606 OFFCURVE",
"491 634 CURVE",
"441 678 OFFCURVE",
"372 695 OFFCURVE",
"274 688 CURVE SMOOTH",
"150 679 OFFCURVE",
"75 601 OFFCURVE",
"69 512 CURVE SMOOTH",
"62 412 OFFCURVE",
"153 360 OFFCURVE",
"224 322 CURVE SMOOTH",
"337 262 OFFCURVE",
"408 239 OFFCURVE",
"402 150 CURVE SMOOTH",
"399 108 OFFCURVE",
"362 64 OFFCURVE",
"301 42 CURVE",
"209 38 OFFCURVE",
"126 55 OFFCURVE",
"97 92 CURVE",
"91 180 LINE",
"43 170 LINE",
"37 136 OFFCURVE",
"22 55 OFFCURVE",
"20 43 CURVE",
"81 -19 OFFCURVE",
"242 -39 OFFCURVE",
"364 17 CURVE SMOOTH"
);
}
);
width = 499;
},
{
anchors = (
{
name = bottom;
position = "{161, 0}";
},
{
name = top;
position = "{293, 680}";
}
);
background = {
paths = (
{
closed = 1;
nodes = (
"536 47 LINE",
"526 53 OFFCURVE",
"510 65 OFFCURVE",
"497 76 CURVE SMOOTH",
"468 100 OFFCURVE",
"409 211 OFFCURVE",
"327 349 CURVE SMOOTH",
"245 487 OFFCURVE",
"223 525 OFFCURVE",
"186 589 CURVE",
"253 589 OFFCURVE",
"371 585 OFFCURVE",
"439 579 CURVE",
"473 511 LINE",
"520 519 LINE",
"486 700 LINE",
"342 700 OFFCURVE",
"165 693 OFFCURVE",
"10 700 CURVE",
"-3 650 LINE",
"8 645 OFFCURVE",
"21 635 OFFCURVE",
"38 620 CURVE SMOOTH",
"75 588 OFFCURVE",
"126 525 OFFCURVE",
"233 347 CURVE",
"307 213 OFFCURVE",
"329 172 OFFCURVE",
"355 114 CURVE",
"311 116 OFFCURVE",
"274 118 OFFCURVE",
"231 121 CURVE SMOOTH",
"133 128 OFFCURVE",
"94 143 OFFCURVE",
"80 188 CURVE",
"35 178 LINE",
"70 0 LINE",
"237 0 OFFCURVE",
"365 5 OFFCURVE",
"520 0 CURVE"
);
}
);
};
guideLines = (
{
position = "{-96, 57}";
}
);
layerId = "977FCFA9-45AC-4A33-B2D7-4D17E6BBF8E0";
paths = (
{
closed = 1;
nodes = (
"443 57 OFFCURVE",
"478 114 OFFCURVE",
"487 208 CURVE SMOOTH",
"497 322 OFFCURVE",
"391 374 OFFCURVE",
"301 418 CURVE SMOOTH",
"250 443 OFFCURVE",
"178 477 OFFCURVE",
"171 521 CURVE SMOOTH",
"165 556 OFFCURVE",
"193 586 OFFCURVE",
"240 599 CURVE",
"297 600 OFFCURVE",
"352 596 OFFCURVE",
"388 546 CURVE",
"398 461 LINE",
"467 474 LINE",
"472 503 OFFCURVE",
"490 610 OFFCURVE",
"495 638 CURVE",
"446 683 OFFCURVE",
"356 706 OFFCURVE",
"257 695 CURVE SMOOTH",
"139 682 OFFCURVE",
"47 613 OFFCURVE",
"37 500 CURVE SMOOTH",
"27 381 OFFCURVE",
"132 317 OFFCURVE",
"205 281 CURVE SMOOTH",
"282 243 OFFCURVE",
"337 209 OFFCURVE",
"346 170 CURVE SMOOTH",
"354 136 OFFCURVE",
"312 97 OFFCURVE",
"257 84 CURVE",
"205 81 OFFCURVE",
"145 80 OFFCURVE",
"99 132 CURVE",
"93 219 LINE",
"18 205 LINE",
"13 171 OFFCURVE",
"4 112 OFFCURVE",
"-7 43 CURVE",
"59 -20 OFFCURVE",
"229 -40 OFFCURVE",
"353 16 CURVE SMOOTH"
);
}
);
width = 500;
}
);
unicode = 0053;
},
{
glyphname = Germandbls;
lastChange = "2017-05-20 10:52:14 +0000";
layers = (
{
background = {
paths = (
{
closed = 1;
nodes = (
"148 716 OFFCURVE",
"-7 489 OFFCURVE",
"33 235 CURVE SMOOTH",
"59 71 OFFCURVE",
"177 -5 OFFCURVE",
"295 -14 CURVE SMOOTH",
"428 -24 OFFCURVE",
"530 12 OFFCURVE",
"587 51 CURVE",
"587 129 OFFCURVE",
"593 227 OFFCURVE",
"600 249 CURVE SMOOTH",
"609 276 OFFCURVE",
"632 282 OFFCURVE",
"640 282 CURVE",
"644 343 LINE",
"556 340 OFFCURVE",
"511 341 OFFCURVE",
"428 344 CURVE",
"420 285 LINE",
"475 269 LINE",
"474 213 OFFCURVE",
"474 117 OFFCURVE",
"436 76 CURVE",
"317 57 OFFCURVE",
"210 114 OFFCURVE",
"185 271 CURVE SMOOTH",
"153 469 OFFCURVE",
"267 601 OFFCURVE",
"331 628 CURVE",
"413 622 OFFCURVE",
"498 573 OFFCURVE",
"525 536 CURVE",
"530 481 LINE",
"593 492 LINE",
"622 651 LINE",
"588 684 OFFCURVE",
"517 716 OFFCURVE",
"390 716 CURVE SMOOTH"
);
}
);
};
layerId = "71FD7A9F-05F5-4D76-8D4F-547475A05E4C";
paths = (
{
closed = 1;
nodes = (
"394 -82 OFFCURVE",
"561 53 OFFCURVE",
"571 184 CURVE SMOOTH",
"581 331 OFFCURVE",
"503 410 OFFCURVE",
"283 383 CURVE",
"264 346 LINE",
"519 374 OFFCURVE",
"555 116 OFFCURVE",
"399 36 CURVE",
"295 36 LINE",
"282 117 LINE",
"236 106 LINE",
"224 21 LINE"
);
},
{
closed = 1;
nodes = (
"506 652 OFFCURVE",
"412 730 OFFCURVE",
"252 677 CURVE SMOOTH",
"137 639 OFFCURVE",
"74 534 OFFCURVE",
"60 377 CURVE SMOOTH",
"51 267 OFFCURVE",
"42 179 OFFCURVE",
"36 104 CURVE",
"34 80 OFFCURVE",
"47 57 OFFCURVE",
"71 55 CURVE",
"-38 45 LINE",
"-44 0 LINE",
"178 0 LINE",
"187 44 LINE",
"128 55 LINE",
"107 131 OFFCURVE",
"116 158 OFFCURVE",
"134 361 CURVE SMOOTH",
"151 552 OFFCURVE",
"194 598 OFFCURVE",
"250 633 CURVE",
"361 647 OFFCURVE",
"430 594 OFFCURVE",
"442 535 CURVE",
"333 448 OFFCURVE",
"301 429 OFFCURVE",
"243 383 CURVE",
"264 346 LINE",
"301 374 LINE",
"512 532 LINE",
"523 575 LINE"
);
}
);
width = 599;
},
{
background = {
components = (
{
name = N;
transform = "{1, 0, 0, 1, -50, 0}";
}
);
};
layerId = "977FCFA9-45AC-4A33-B2D7-4D17E6BBF8E0";
paths = (
{
closed = 1;
nodes = (
"365 -78 OFFCURVE",
"607 -1 OFFCURVE",
"634 184 CURVE SMOOTH",
"657 354 OFFCURVE",
"492 417 OFFCURVE",
"317 372 CURVE",
"288 320 LINE",
"469 320 OFFCURVE",
"508 162 OFFCURVE",
"441 76 CURVE",
"327 77 LINE",
"314 156 LINE",
"249 146 LINE",
"236 39 LINE"
);
},
{
closed = 1;
nodes = (
"549 714 OFFCURVE",
"310 743 OFFCURVE",
"175 645 CURVE SMOOTH",
"112 599 OFFCURVE",
"62 534 OFFCURVE",
"50 375 CURVE SMOOTH",
"42 265 OFFCURVE",
"34 193 OFFCURVE",
"30 118 CURVE SMOOTH",
"29 94 OFFCURVE",
"50 78 OFFCURVE",
"69 75 CURVE",
"-36 64 LINE",
"-45 0 LINE",
"197 0 LINE",
"209 65 LINE",
"168 74 LINE",
"183 275 OFFCURVE",
"189 345 OFFCURVE",
"193 389 CURVE SMOOTH",
"205 534 OFFCURVE",
"237 577 OFFCURVE",
"268 596 CURVE",
"354 596 OFFCURVE",
"411 562 OFFCURVE",
"431 528 CURVE",
"354 472 OFFCURVE",
"275 414 OFFCURVE",
"250 391 CURVE",
"287 319 LINE",
"345 372 LINE",
"559 522 LINE",
"571 579 LINE"
);
}
);
width = 633;
}
);
rightKerningGroup = B;
unicode = 1E9E;
},
{
color = 1;
glyphname = T;
lastChange = "2017-05-20 10:52:14 +0000";
layers = (
{
anchors = (
{
name = bottom;
position = "{262, 0}";
},
{
name = center;
position = "{298, 340}";
},
{
name = top;
position = "{333, 680}";
}
);
components = (
{
name = _part.stem.cap;
transform = "{1, 0, -0.0171, 1, 122, 0}";
}
);
guideLines = (
{
position = "{431, 746}";
},
{
position = "{418, 865}";
}
);
layerId = "71FD7A9F-05F5-4D76-8D4F-547475A05E4C";
paths = (
{
closed = 1;
nodes = (
"410 625 OFFCURVE",
"481 619 OFFCURVE",
"539 611 CURVE",
"547 533 LINE",
"594 539 LINE",
"609 687 LINE",
"417 676 OFFCURVE",
"237 677 OFFCURVE",
"57 687 CURVE",
"43 538 LINE",
"91 532 LINE",
"102 575 OFFCURVE",
"105 586 OFFCURVE",
"113 612 CURVE",
"135 620 OFFCURVE",
"190 621 OFFCURVE",
"255 624 CURVE",
"375 624 LINE"
);
}
);
width = 573;
},
{
anchors = (
{
name = bottom;
position = "{312, 0}";
},
{
name = center;
position = "{326, 350}";
},
{
name = top;
position = "{355, 680}";
}
);
background = {
components = (
{
name = H;
transform = "{1, 0, 0, 1, -64, 0}";
}
);
};
components = (
{
name = _part.stem.cap;
transform = "{1, 0, 0, 1, -33, 0}";
}
);
guideLines = (
{
position = "{412, 637}";
},
{
position = "{582, 535}";
}
);
layerId = "977FCFA9-45AC-4A33-B2D7-4D17E6BBF8E0";
paths = (
{
closed = 1;
nodes = (
"449 595 OFFCURVE",
"502 592 OFFCURVE",
"541 585 CURVE",
"554 499 LINE",
"622 509 LINE",
"640 689 LINE",
"469 679 OFFCURVE",
"241 678 OFFCURVE",
"57 688 CURVE",
"42 509 LINE",
"110 499 LINE",
"121 535 OFFCURVE",
"126 559 OFFCURVE",
"137 589 CURVE",
"172 594 OFFCURVE",
"224 596 OFFCURVE",
"281 595 CURVE",
"414 594 LINE"
);
}
);
width = 604;
}
);
leftKerningGroup = T;
rightKerningGroup = T;
unicode = 0054;
},
{
color = 1;
glyphname = U;
lastChange = "2017-05-20 10:52:14 +0000";
layers = (
{
anchors = (
{
name = bottom;
position = "{315, 0}";
},
{
name = ogonek;
position = "{405, 10}";
},
{
name = top;
position = "{386, 680}";
},
{
name = topright;
position = "{705, 680}";
}
);
layerId = "71FD7A9F-05F5-4D76-8D4F-547475A05E4C";
paths = (
{
closed = 1;
nodes = (
"485 636 LINE",
"562 626 LINE",
"574 598 OFFCURVE",
"560 486 OFFCURVE",
"544 304 CURVE SMOOTH",
"531 154 OFFCURVE",
"481 78 OFFCURVE",
"398 49 CURVE",
"237 40 OFFCURVE",
"173 114 OFFCURVE",
"186 253 CURVE SMOOTH",
"191 318 OFFCURVE",
"212 537 OFFCURVE",
"217 591 CURVE SMOOTH",
"219 613 OFFCURVE",
"187 625 OFFCURVE",
"177 627 CURVE",
"216 629 OFFCURVE",
"263 635 OFFCURVE",
"285 636 CURVE",
"293 679 LINE",
"65 680 LINE",
"57 636 LINE",
"121 625 LINE",
"130 590 OFFCURVE",
"106 374 OFFCURVE",
"97 265 CURVE SMOOTH",
"90 184 OFFCURVE",
"99 109 OFFCURVE",
"129 64 CURVE SMOOTH",
"186 -23 OFFCURVE",
"327 -38 OFFCURVE",
"433 2 CURVE SMOOTH",
"530 39 OFFCURVE",
"592 138 OFFCURVE",
"605 281 CURVE SMOOTH",
"617 418 OFFCURVE",
"629 555 OFFCURVE",
"636 622 CURVE",
"703 636 LINE",
"710 680 LINE",
"493 680 LINE"
);
}
);
width = 679;
},
{
anchors = (
{
name = bottom;
position = "{274, 0}";
},
{
name = ogonek;
position = "{381, 12}";
},
{
name = top;
position = "{407, 680}";
},
{
name = topright;
position = "{736, 700}";
}
);
background = {
paths = (
{
closed = 1;
nodes = (
"32 87 LINE",
"32 169 OFFCURVE",
"32 610 OFFCURVE",
"32 617 CURVE SMOOTH",
"32 628 OFFCURVE",
"32 642 OFFCURVE",
"32 650 CURVE",
"32 650 LINE",
"32 700 LINE",
"32 700 LINE",
"32 653 LINE",
"32 645 LINE",
"32 613 OFFCURVE",
"32 448 OFFCURVE",
"32 327 CURVE SMOOTH",
"32 220 OFFCURVE",
"32 44 OFFCURVE",
"32 0 CURVE"
);
}
);
};
layerId = "977FCFA9-45AC-4A33-B2D7-4D17E6BBF8E0";
paths = (
{
closed = 1;
nodes = (
"477 616 LINE",
"560 605 LINE",
"572 577 OFFCURVE",
"563 480 OFFCURVE",
"546 304 CURVE SMOOTH",
"533 169 OFFCURVE",
"476 117 OFFCURVE",
"436 91 CURVE",
"294 73 OFFCURVE",
"241 155 OFFCURVE",
"254 301 CURVE SMOOTH",
"260 368 OFFCURVE",
"271 459 OFFCURVE",
"281 574 CURVE SMOOTH",
"282 591 OFFCURVE",
"257 604 OFFCURVE",
"244 606 CURVE",
"282 610 OFFCURVE",
"320 613 OFFCURVE",
"345 615 CURVE",
"356 679 LINE",
"61 679 LINE",
"50 616 LINE",
"114 608 LINE",
"123 573 OFFCURVE",
"99 374 OFFCURVE",
"90 265 CURVE SMOOTH",
"83 184 OFFCURVE",
"101 114 OFFCURVE",
"132 69 CURVE SMOOTH",
"189 -17 OFFCURVE",
"362 -45 OFFCURVE",
"468 2 CURVE SMOOTH",
"554 40 OFFCURVE",
"632 125 OFFCURVE",
"645 272 CURVE SMOOTH",
"657 409 OFFCURVE",
"670 537 OFFCURVE",
"680 604 CURVE",
"747 615 LINE",
"758 680 LINE",
"487 680 LINE"
);
}
);
width = 722;
}
);
leftMetricsKey = H;
rightKerningGroup = U;
unicode = 0055;
},
{
color = 1;
glyphname = V;
lastChange = "2017-05-20 10:52:14 +0000";
layers = (
{
layerId = "71FD7A9F-05F5-4D76-8D4F-547475A05E4C";
paths = (
{
closed = 1;
nodes = (
"356 71 LINE",
"302 281 OFFCURVE",
"219 581 OFFCURVE",
"217 591 CURVE SMOOTH",
"212 613 OFFCURVE",
"192 624 OFFCURVE",
"170 626 CURVE",
"268 635 LINE",
"276 680 LINE",
"65 680 LINE",
"57 635 LINE",
"111 625 LINE",
"124 593 OFFCURVE",
"168 442 OFFCURVE",
"201 321 CURVE SMOOTH",
"231 209 OFFCURVE",
"275 63 OFFCURVE",
"297 -7 CURVE"
);
},
{
closed = 1;
nodes = (
"575 594 OFFCURVE",
"515 462 OFFCURVE",
"495 412 CURVE SMOOTH",
"406 199 OFFCURVE",
"324 37 OFFCURVE",
"297 -7 CURVE",
"368 4 LINE",
"489 268 OFFCURVE",
"602 518 OFFCURVE",
"649 622 CURVE",
"713 635 LINE",
"721 680 LINE",
"502 680 LINE",
"493 635 LINE",
"569 626 LINE"
);
}
);
width = 675;
},
{
background = {
paths = (
{
closed = 1;
nodes = (
"789 193 LINE",
"759 344 OFFCURVE",
"704 594 OFFCURVE",
"702 605 CURVE SMOOTH",
"698 634 OFFCURVE",
"711 650 OFFCURVE",
"744 650 CURVE",
"749 700 LINE",
"506 700 LINE",
"497 653 LINE",
"544 643 LINE",
"585 519 OFFCURVE",
"643 278 OFFCURVE",
"709 0 CURVE",
"711 0 LINE",
"810 58 LINE"
);
},
{
closed = 1;
nodes = (
"553 424 OFFCURVE",
"510 304 OFFCURVE",
"467 193 CURVE",
"443 349 OFFCURVE",
"387 613 OFFCURVE",
"384 618 CURVE SMOOTH",
"378 629 OFFCURVE",
"368 641 OFFCURVE",
"346 651 CURVE",
"427 651 LINE",
"432 700 LINE",
"189 700 LINE",
"180 653 LINE",
"231 647 LINE",
"264 569 OFFCURVE",
"364 110 OFFCURVE",
"383 0 CURVE",
"488 0 LINE",
"658 511 LINE",
"591 538 LINE"
);
},
{
closed = 1;
nodes = (
"920 614 OFFCURVE",
"890 518 OFFCURVE",
"874 468 CURVE SMOOTH",
"756 87 OFFCURVE",
"755 75 OFFCURVE",
"709 0 CURVE",
"813 0 LINE",
"903 276 OFFCURVE",
"990 534 OFFCURVE",
"1009 580 CURVE SMOOTH",
"1034 640 OFFCURVE",
"1073 650 OFFCURVE",
"1099 650 CURVE",
"1104 700 LINE",
"858 700 LINE",
"849 653 LINE",
"912 644 LINE"
);
}
);
};
layerId = "977FCFA9-45AC-4A33-B2D7-4D17E6BBF8E0";
paths = (
{
closed = 1;
nodes = (
"413 117 LINE",
"399 189 OFFCURVE",
"299 561 OFFCURVE",
"296 571 CURVE SMOOTH",
"291 593 OFFCURVE",
"268 604 OFFCURVE",
"247 606 CURVE",
"344 615 LINE",
"355 680 LINE",
"60 680 LINE",
"49 615 LINE",
"114 605 LINE",
"128 573 OFFCURVE",
"172 442 OFFCURVE",
"204 321 CURVE SMOOTH",
"233 209 OFFCURVE",
"279 65 OFFCURVE",
"295 -8 CURVE"
);
},
{
closed = 1;
nodes = (
"590 574 OFFCURVE",
"539 463 OFFCURVE",
"519 412 CURVE SMOOTH",
"380 66 OFFCURVE",
"322 36 OFFCURVE",
"295 -8 CURVE",
"438 4 LINE",
"557 274 OFFCURVE",
"654 496 OFFCURVE",
"709 598 CURVE",
"778 615 LINE",
"789 680 LINE",
"519 680 LINE",
"508 615 LINE",
"584 606 LINE"
);
}
);
width = 753;
}
);
leftKerningGroup = V;
rightKerningGroup = V;
unicode = 0056;
},
{
color = 1;
glyphname = W;
lastChange = "2017-05-20 11:56:26 +0000";
layers = (
{
layerId = "71FD7A9F-05F5-4D76-8D4F-547475A05E4C";
paths = (
{
closed = 1;
nodes = (
"767 635 LINE",
"850 626 LINE",
"856 594 OFFCURVE",
"812 464 OFFCURVE",
"793 412 CURVE SMOOTH",
"738 270 OFFCURVE",
"704 181 OFFCURVE",
"681 123 CURVE",
"658 222 OFFCURVE",
"569 581 OFFCURVE",
"561 622 CURVE",
"652 635 LINE",
"660 680 LINE",
"413 680 LINE",
"405 635 LINE",
"475 625 LINE",
"479 614 OFFCURVE",
"486 587 OFFCURVE",
"494 552 CURVE",
"477 497 OFFCURVE",
"445 419 OFFCURVE",
"430 382 CURVE SMOOTH",
"381 261 OFFCURVE",
"346 179 OFFCURVE",
"321 123 CURVE",
"304 204 OFFCURVE",
"221 582 OFFCURVE",
"218 592 CURVE SMOOTH",
"214 606 OFFCURVE",
"203 618 OFFCURVE",
"176 626 CURVE",
"288 636 LINE",
"296 680 LINE",
"66 680 LINE",
"58 636 LINE",
"114 626 LINE",
"128 594 OFFCURVE",
"163 442 OFFCURVE",
"194 321 CURVE SMOOTH",
"222 209 OFFCURVE",
"254 37 OFFCURVE",
"265 -7 CURVE",
"328 7 LINE",
"418 226 OFFCURVE",
"483 383 OFFCURVE",
"514 465 CURVE",
"525 418 OFFCURVE",
"538 367 OFFCURVE",
"550 321 CURVE SMOOTH",
"561 279 OFFCURVE",
"616 58 OFFCURVE",
"631 -5 CURVE",
"694 9 LINE",
"836 384 OFFCURVE",
"910 577 OFFCURVE",
"935 624 CURVE",
"997 635 LINE",
"1005 680 LINE",
"775 680 LINE"
);
}
);
width = 959;
},
{
anchors = (
{
name = bottom;
position = "{434, 0}";
},
{
name = top;
position = "{593, 680}";
}
);
guideLines = (
{
position = "{690, 177}";
}
);
layerId = "977FCFA9-45AC-4A33-B2D7-4D17E6BBF8E0";
paths = (
{
closed = 1;
nodes = (
"762 615 LINE",
"837 606 LINE",
"843 577 OFFCURVE",
"802 465 OFFCURVE",
"783 412 CURVE SMOOTH",
"756 339 OFFCURVE",
"728 267 OFFCURVE",
"701 194 CURVE",
"672 344 OFFCURVE",
"620 591 OFFCURVE",
"619 599 CURVE",
"709 615 LINE",
"720 680 LINE",
"396 680 LINE",
"385 615 LINE",
"461 605 LINE",
"465 594 OFFCURVE",
"471 570 OFFCURVE",
"479 540 CURVE",
"464 493 OFFCURVE",
"445 440 OFFCURVE",
"433 412 CURVE SMOOTH",
"399 331 OFFCURVE",
"372 268 OFFCURVE",
"351 217 CURVE",
"325 343 OFFCURVE",
"284 539 OFFCURVE",
"282 547 CURVE SMOOTH",
"277 568 OFFCURVE",
"265 598 OFFCURVE",
"239 606 CURVE",
"334 615 LINE",
"344 680 LINE",
"60 680 LINE",
"49 615 LINE",
"100 605 LINE",
"115 572 OFFCURVE",
"149 441 OFFCURVE",
"177 321 CURVE SMOOTH",
"202 209 OFFCURVE",
"239 35 OFFCURVE",
"249 -9 CURVE",
"361 6 LINE",
"422 164 OFFCURVE",
"474 307 OFFCURVE",
"511 407 CURVE",
"518 379 OFFCURVE",
"525 350 OFFCURVE",
"533 321 CURVE SMOOTH",
"562 210 OFFCURVE",
"593 37 OFFCURVE",
"604 -7 CURVE",
"720 7 LINE",
"868 407 OFFCURVE",
"947 553 OFFCURVE",
"969 601 CURVE",
"1025 615 LINE",
"1036 680 LINE",
"773 680 LINE"
);
}
);
width = 1000;
}
);
leftKerningGroup = V;
rightKerningGroup = V;
unicode = 0057;
},
{
color = 1;
glyphname = X;
lastChange = "2017-05-20 10:52:14 +0000";
layers = (
{
layerId = "71FD7A9F-05F5-4D76-8D4F-547475A05E4C";
paths = (
{
closed = 1;
nodes = (
"328 328 LINE",
"387 214 OFFCURVE",
"419 163 OFFCURVE",
"442 119 CURVE SMOOTH",
"462 80 OFFCURVE",
"485 59 OFFCURVE",
"504 56 CURVE",
"393 45 LINE",
"385 0 LINE",
"643 0 LINE",
"651 45 LINE",
"585 56 LINE",
"524 154 OFFCURVE",
"474 232 OFFCURVE",
"403 353 CURVE"
);
},
{
closed = 1;
nodes = (
"493 551 OFFCURVE",
"409 428 OFFCURVE",
"349 352 CURVE",
"396 327 LINE",
"465 420 OFFCURVE",
"588 593 OFFCURVE",
"616 624 CURVE",
"688 635 LINE",
"696 680 LINE",
"461 680 LINE",
"452 635 LINE",
"538 625 LINE"
);
},
{
closed = 1;
nodes = (
"197 113 OFFCURVE",
"313 280 OFFCURVE",
"347 326 CURVE",
"307 363 LINE",
"247 275 OFFCURVE",
"116 94 OFFCURVE",
"75 58 CURVE",
"-2 45 LINE",
"-10 0 LINE",
"231 0 LINE",
"239 46 LINE",
"163 55 LINE"
);
},
{
closed = 1;
nodes = (
"391 341 LINE",
"344 418 OFFCURVE",
"259 570 OFFCURVE",
"231 624 CURVE",
"319 635 LINE",
"327 680 LINE",
"69 680 LINE",
"60 635 LINE",
"124 625 LINE",
"176 546 OFFCURVE",
"274 375 OFFCURVE",
"313 318 CURVE"
);
}
);
width = 671;
},
{
background = {
paths = (
{
closed = 1;
nodes = (
"374 352 LINE",
"382 272 OFFCURVE",
"462 52 OFFCURVE",
"489 32 CURVE SMOOTH",
"498 25 OFFCURVE",
"570 -1 OFFCURVE",
"623 -1 CURVE",
"658 7 OFFCURVE",
"685 25 OFFCURVE",
"690 28 CURVE",
"685 74 LINE",
"665 66 OFFCURVE",
"651 65 OFFCURVE",
"640 63 CURVE",
"587 119 OFFCURVE",
"484 326 OFFCURVE",
"460 425 CURVE"
);
},
{
closed = 1;
nodes = (
"142 700 LINE",
"134 653 LINE",
"180 644 LINE",
"191 619 OFFCURVE",
"183 487 OFFCURVE",
"178 427 CURVE SMOOTH",
"166 292 OFFCURVE",
"139 104 OFFCURVE",
"142 88 CURVE SMOOTH",
"143 79 OFFCURVE",
"151 62 OFFCURVE",
"189 50 CURVE",
"82 50 LINE",
"78 0 LINE",
"359 0 LINE",
"366 47 LINE",
"310 55 LINE",
"275 114 OFFCURVE",
"294 286 OFFCURVE",
"305 408 CURVE SMOOTH",
"315 521 OFFCURVE",
"324 598 OFFCURVE",
"336 620 CURVE SMOOTH",
"348 640 OFFCURVE",
"365 648 OFFCURVE",
"388 650 CURVE",
"392 699 LINE"
);
},
{
closed = 1;
nodes = (
"511 584 OFFCURVE",
"365 400 OFFCURVE",
"286 312 CURVE",
"284 203 LINE",
"432 372 LINE",
"511 465 OFFCURVE",
"613 586 OFFCURVE",
"641 615 CURVE SMOOTH",
"665 639 OFFCURVE",
"689 650 OFFCURVE",
"716 650 CURVE",
"720 700 LINE",
"498 700 LINE",
"490 651 LINE",
"540 642 LINE"
);
}
);
};
layerId = "977FCFA9-45AC-4A33-B2D7-4D17E6BBF8E0";
paths = (
{
closed = 1;
nodes = (
"318 328 LINE",
"377 214 OFFCURVE",
"393 181 OFFCURVE",
"416 137 CURVE SMOOTH",
"437 98 OFFCURVE",
"459 77 OFFCURVE",
"479 74 CURVE",
"362 64 LINE",
"353 0 LINE",
"690 0 LINE",
"699 66 LINE",
"629 77 LINE",
"568 175 OFFCURVE",
"523 246 OFFCURVE",
"453 367 CURVE"
);
},
{
closed = 1;
nodes = (
"467 531 OFFCURVE",
"395 428 OFFCURVE",
"335 352 CURVE",
"432 327 LINE",
"501 420 OFFCURVE",
"622 573 OFFCURVE",
"649 604 CURVE",
"720 617 LINE",
"731 680 LINE",
"443 680 LINE",
"432 615 LINE",
"512 605 LINE"
);
},
{
closed = 1;
nodes = (
"259 132 OFFCURVE",
"359 280 OFFCURVE",
"393 326 CURVE",
"303 363 LINE",
"243 275 OFFCURVE",
"110 111 OFFCURVE",
"70 75 CURVE",
"-4 65 LINE",
"-13 0 LINE",
"277 0 LINE",
"287 65 LINE",
"225 74 LINE"
);
},
{
closed = 1;
nodes = (
"437 341 LINE",
"390 418 OFFCURVE",
"315 551 OFFCURVE",
"286 605 CURVE",
"365 615 LINE",
"375 680 LINE",
"60 680 LINE",
"49 615 LINE",
"112 605 LINE",
"165 526 OFFCURVE",
"250 375 OFFCURVE",
"289 318 CURVE"
);
}
);
width = 727;
}
);
leftKerningGroup = X;
rightKerningGroup = X;
unicode = 0058;
},
{
color = 1;
glyphname = Y;
lastChange = "2017-05-20 10:52:14 +0000";
layers = (
{
anchors = (
{
name = bottom;
position = "{289, 0}";
},
{
name = top;
position = "{360, 680}";
},
{
name = topleft;
position = "{66, 680}";
}
);
layerId = "71FD7A9F-05F5-4D76-8D4F-547475A05E4C";
paths = (
{
closed = 1;
nodes = (
"501 568 OFFCURVE",
"401 398 OFFCURVE",
"337 296 CURVE",
"364 238 LINE",
"412 331 OFFCURVE",
"580 591 OFFCURVE",
"605 624 CURVE",
"666 635 LINE",
"674 680 LINE",
"451 680 LINE",
"443 635 LINE",
"528 626 LINE"
);
},
{
closed = 1;
nodes = (
"352 301 LINE",
"317 394 OFFCURVE",
"217 606 OFFCURVE",
"210 626 CURVE",
"297 635 LINE",
"304 680 LINE",
"65 680 LINE",
"57 635 LINE",
"113 626 LINE",
"163 519 OFFCURVE",
"210 427 OFFCURVE",
"294 244 CURVE"
);
},
{
closed = 1;
nodes = (
"356 102 OFFCURVE",
"372 235 OFFCURVE",
"380 313 CURVE",
"291 297 LINE",
"283 188 OFFCURVE",
"278 147 OFFCURVE",
"274 96 CURVE SMOOTH",
"272 73 OFFCURVE",
"284 64 OFFCURVE",
"312 55 CURVE",
"189 45 LINE",
"182 0 LINE",
"446 0 LINE",
"456 45 LINE",
"374 55 LINE"
);
}
);
width = 628;
},
{
anchors = (
{
name = bottom;
position = "{283, 0}";
},
{
name = top;
position = "{392, 680}";
},
{
name = topleft;
position = "{135, 700}";
}
);
background = {
paths = (
{
closed = 1;
nodes = (
"327 341 LINE",
"364 247 OFFCURVE",
"410 130 OFFCURVE",
"432 82 CURVE SMOOTH",
"437 71 OFFCURVE",
"449 59 OFFCURVE",
"472 49 CURVE",
"392 49 LINE",
"387 0 LINE",
"653 0 LINE",
"658 47 LINE",
"611 55 LINE",
"543 158 OFFCURVE",
"468 318 OFFCURVE",
"426 403 CURVE"
);
},
{
closed = 1;
nodes = (
"505 562 OFFCURVE",
"422 446 OFFCURVE",
"380 396 CURVE",
"415 320 LINE",
"483 413 OFFCURVE",
"609 586 OFFCURVE",
"638 615 CURVE SMOOTH",
"662 639 OFFCURVE",
"686 650 OFFCURVE",
"713 650 CURVE",
"718 700 LINE",
"484 700 LINE",
"479 653 LINE",
"533 645 LINE"
);
},
{
closed = 1;
nodes = (
"262 113 OFFCURVE",
"351 257 OFFCURVE",
"382 307 CURVE",
"333 361 LINE",
"275 268 OFFCURVE",
"162 112 OFFCURVE",
"131 85 CURVE SMOOTH",
"103 61 OFFCURVE",
"79 50 OFFCURVE",
"52 50 CURVE",
"47 0 LINE",
"270 0 LINE",
"275 47 LINE",
"228 55 LINE"
);
},
{
closed = 1;
nodes = (
"419 394 LINE",
"378 478 OFFCURVE",
"356 521 OFFCURVE",
"337 574 CURVE SMOOTH",
"324 610 OFFCURVE",
"310 651 OFFCURVE",
"369 651 CURVE",
"374 700 LINE",
"117 700 LINE",
"112 653 LINE",
"159 643 LINE",
"232 505 OFFCURVE",
"287 388 OFFCURVE",
"318 321 CURVE"
);
}
);
};
layerId = "977FCFA9-45AC-4A33-B2D7-4D17E6BBF8E0";
paths = (
{
closed = 1;
nodes = (
"480 548 OFFCURVE",
"398 375 OFFCURVE",
"310 258 CURVE",
"378 202 LINE",
"426 295 OFFCURVE",
"591 570 OFFCURVE",
"616 603 CURVE",
"691 615 LINE",
"701 680 LINE",
"434 680 LINE",
"423 615 LINE",
"508 606 LINE"
);
},
{
closed = 1;
nodes = (
"394 328 LINE",
"354 418 OFFCURVE",
"279 586 OFFCURVE",
"273 606 CURVE",
"343 617 LINE",
"354 680 LINE",
"62 680 LINE",
"50 616 LINE",
"108 605 LINE",
"209 404 OFFCURVE",
"251 327 OFFCURVE",
"297 214 CURVE"
);
},
{
closed = 1;
nodes = (
"403 117 OFFCURVE",
"412 232 OFFCURVE",
"420 310 CURVE",
"268 294 LINE",
"254 185 OFFCURVE",
"254 203 OFFCURVE",
"247 123 CURVE SMOOTH",
"246 103 OFFCURVE",
"258 85 OFFCURVE",
"286 76 CURVE",
"167 66 LINE",
"158 0 LINE",
"490 0 LINE",
"501 66 LINE",
"429 76 LINE"
);
}
);
width = 665;
}
);
leftKerningGroup = V;
rightKerningGroup = V;
unicode = 0059;
},
{
color = 1;
glyphname = Z;
lastChange = "2017-05-20 11:25:44 +0000";
layers = (
{
anchors = (
{
name = bottom;
position = "{246, 0}";
},
{
name = top;
position = "{317, 680}";
}
);
layerId = "71FD7A9F-05F5-4D76-8D4F-547475A05E4C";
paths = (
{
closed = 1;
nodes = (
"378 678 OFFCURVE",
"204 678 OFFCURVE",
"73 685 CURVE",
"59 539 LINE",
"101 533 LINE",
"138 621 LINE",
"181 627 OFFCURVE",
"376 629 OFFCURVE",
"430 628 CURVE",
"395 570 OFFCURVE",
"291 423 OFFCURVE",
"207 308 CURVE SMOOTH",
"110 175 OFFCURVE",
"22 53 OFFCURVE",
"-6 42 CURVE",
"4 0 LINE",
"160 5 OFFCURVE",
"342 0 OFFCURVE",
"486 0 CURVE",
"518 150 LINE",
"473 154 LINE",
"430 68 LINE",
"361 55 OFFCURVE",
"230 53 OFFCURVE",
"118 53 CURVE",
"158 117 OFFCURVE",
"236 228 OFFCURVE",
"330 360 CURVE SMOOTH",
"412 476 OFFCURVE",
"510 620 OFFCURVE",
"548 640 CURVE",
"538 683 LINE"
);
}
);
width = 542;
},
{
anchors = (
{
name = bottom;
position = "{203, 0}";
},
{
name = top;
position = "{310, 680}";
}
);
background = {
components = (
{
name = T;
transform = "{1, 0, 0, 1, 6, 0}";
}
);
};
guideLines = (
{
position = "{431, 746}";
},
{
position = "{418, 865}";
}
);
layerId = "977FCFA9-45AC-4A33-B2D7-4D17E6BBF8E0";
paths = (
{
closed = 1;
nodes = (
"420 681 OFFCURVE",
"243 681 OFFCURVE",
"77 688 CURVE",
"61 494 LINE",
"121 486 LINE",
"155 574 LINE",
"209 585 OFFCURVE",
"305 591 OFFCURVE",
"382 589 CURVE",
"351 531 OFFCURVE",
"276 422 OFFCURVE",
"197 308 CURVE SMOOTH",
"104 173 OFFCURVE",
"20 76 OFFCURVE",
"-8 65 CURVE",
"11 0 LINE",
"166 5 OFFCURVE",
"384 2 OFFCURVE",
"526 -1 CURVE",
"566 194 LINE",
"498 201 LINE",
"452 109 LINE",
"383 96 OFFCURVE",
"321 90 OFFCURVE",
"213 92 CURVE",
"251 156 OFFCURVE",
"301 226 OFFCURVE",
"386 359 CURVE SMOOTH",
"462 479 OFFCURVE",
"557 600 OFFCURVE",
"591 617 CURVE",
"577 686 LINE"
);
}
);
width = 581;
}
);
leftKerningGroup = X;
rightKerningGroup = X;
unicode = 005A;
},
{
glyphname = Z.ss01;
lastChange = "2017-05-20 10:52:14 +0000";
layers = (
{
layerId = "71FD7A9F-05F5-4D76-8D4F-547475A05E4C";
paths = (
{
closed = 1;
nodes = (
"389 678 OFFCURVE",
"252 679 OFFCURVE",
"85 685 CURVE",
"67 520 LINE",
"110 514 LINE",
"125 556 OFFCURVE",
"133 571 OFFCURVE",
"143 598 CURVE",
"187 604 OFFCURVE",
"385 606 OFFCURVE",
"440 605 CURVE",
"404 547 OFFCURVE",
"315 423 OFFCURVE",
"233 317 CURVE SMOOTH",
"131 185 OFFCURVE",
"22 53 OFFCURVE",
"-6 42 CURVE",
"4 0 LINE",
"159 5 OFFCURVE",
"342 0 OFFCURVE",
"486 0 CURVE",
"519 168 LINE",
"475 172 LINE",
"433 91 LINE",
"364 78 OFFCURVE",
"238 76 OFFCURVE",
"126 76 CURVE",
"166 140 OFFCURVE",
"224 224 OFFCURVE",
"328 357 CURVE SMOOTH",
"416 470 OFFCURVE",
"520 620 OFFCURVE",
"559 640 CURVE",
"549 683 LINE"
);
},
{
closed = 1;
nodes = (
"127 316 LINE",
"224 319 OFFCURVE",
"323 319 OFFCURVE",
"422 316 CURVE",
"432 324 LINE",
"440 373 LINE",
"340 371 OFFCURVE",
"241 371 OFFCURVE",
"145 373 CURVE",
"135 365 LINE"
);
}
);
width = 542;
},
{
anchors = (
{
name = bottom;
position = "{202, 0}";
},
{
name = top;
position = "{317, 656}";
}
);
background = {
components = (
{
name = T;
transform = "{1, 0, 0, 1, 17, 0}";
}
);
};
layerId = "977FCFA9-45AC-4A33-B2D7-4D17E6BBF8E0";
paths = (
{
closed = 1;
nodes = (
"428 681 OFFCURVE",
"251 681 OFFCURVE",
"85 688 CURVE",
"58 445 LINE",
"118 437 LINE",
"154 525 LINE",
"208 536 OFFCURVE",
"322 542 OFFCURVE",
"399 540 CURVE",
"367 482 OFFCURVE",
"318 415 OFFCURVE",
"236 312 CURVE SMOOTH",
"95 133 OFFCURVE",
"21 76 OFFCURVE",
"-8 65 CURVE",
"7 0 LINE",
"162 5 OFFCURVE",
"380 2 OFFCURVE",
"522 -1 CURVE",
"573 230 LINE",
"504 237 LINE",
"457 145 LINE",
"387 132 OFFCURVE",
"319 129 OFFCURVE",
"210 131 CURVE",
"263 203 OFFCURVE",
"294 244 OFFCURVE",
"393 377 CURVE SMOOTH",
"482 496 OFFCURVE",
"564 600 OFFCURVE",
"598 617 CURVE",
"585 686 LINE"
);
},
{
closed = 1;
nodes = (
"143 301 LINE",
"243 307 OFFCURVE",
"361 307 OFFCURVE",
"461 304 CURVE",
"476 316 LINE",
"488 387 LINE",
"389 384 OFFCURVE",
"271 387 OFFCURVE",
"171 387 CURVE",
"157 375 LINE"
);
}
);
width = 584;
}
);
leftKerningGroup = X;
leftMetricsKey = Z;
rightKerningGroup = X;
rightMetricsKey = Z;
},
{
glyphname = a;
lastChange = "2017-05-20 11:08:34 +0000";
layers = (
{
anchors = (
{
name = bottom;
position = "{196, 0}";
},
{
name = ogonek;
position = "{332, 2}";
},
{
name = top;
position = "{263, 508}";
}
);
background = {
components = (
{
name = n;
transform = "{-1, 0, 0, -1, 483, 480}";
}
);
};
components = (
{
name = _part.bowl;
transform = "{-1, 0, -0.0524, -1, 460, 476}";
}
);
guideLines = (
{
angle = 84;
position = "{198, 57}";
},
{
position = "{408, 715}";
},
{
position = "{-131, 250}";
}
);
layerId = "71FD7A9F-05F5-4D76-8D4F-547475A05E4C";
paths = (
{
closed = 1;
nodes = (
"347 285 LINE",
"292 69 OFFCURVE",
"282 16 OFFCURVE",
"304 -5 CURVE",
"350 1 OFFCURVE",
"424 21 OFFCURVE",
"458 39 CURVE",
"451 80 LINE",
"373 71 LINE",
"363 115 OFFCURVE",
"387 295 OFFCURVE",
"422 481 CURVE",
"413 489 OFFCURVE",
"387 497 OFFCURVE",
"371 492 CURVE",
"349 403 LINE",
"319 281 LINE"
);
}
);
width = 481;
},
{
anchors = (
{
name = bottom;
position = "{225, 0}";
},
{
name = ogonek;
position = "{432, 10}";
},
{
name = top;
position = "{267, 480}";
}
);
background = {
components = (
{
name = n;
transform = "{-1, 0, 0, -1, 507, 481}";
}
);
};
components = (
{
name = _part.bowl;
transform = "{-0.9852, 0, -0.0518, -1, 491, 480}";
}
);
guideLines = (
{
angle = -20;
position = "{434, 503}";
},
{
position = "{202, 262}";
}
);
layerId = "977FCFA9-45AC-4A33-B2D7-4D17E6BBF8E0";
paths = (
{
closed = 1;
nodes = (
"345 276 LINE",
"307 150 OFFCURVE",
"282 11 OFFCURVE",
"305 -5 CURVE",
"376 -7 OFFCURVE",
"457 20 OFFCURVE",
"502 41 CURVE",
"492 95 LINE",
"432 89 LINE",
"416 113 OFFCURVE",
"430 270 OFFCURVE",
"474 480 CURVE",
"458 489 OFFCURVE",
"426 496 OFFCURVE",
"395 497 CURVE",
"379 424 LINE",
"327 284 LINE"
);
}
);
width = 523;
}
);
leftKerningGroup = o;
leftMetricsKey = o;
rightKerningGroup = i;
unicode = 0061;
},
{
glyphname = aogonek;
lastChange = "2017-05-20 10:52:14 +0000";
layers = (
{
components = (
{
name = a;
},
{
name = ogonekcomb;
transform = "{1, 0, 0, 1, -78, -8}";
}
);
layerId = "71FD7A9F-05F5-4D76-8D4F-547475A05E4C";
width = 481;
},
{
anchors = (
{
name = _ogonek;
position = "{434, 10}";
}
);
components = (
{
name = a;
}
);
layerId = "977FCFA9-45AC-4A33-B2D7-4D17E6BBF8E0";
paths = (
{
closed = 1;
nodes = (
"185 -102 OFFCURVE",
"329 23 OFFCURVE",
"433 44 CURVE",
"452 18 LINE",
"400 -5 OFFCURVE",
"358 -59 OFFCURVE",
"355 -110 CURVE SMOOTH",
"352 -169 OFFCURVE",
"427 -181 OFFCURVE",
"477 -146 CURVE",
"482 -202 LINE",
"407 -257 OFFCURVE",
"277 -268 OFFCURVE",
"239 -198 CURVE SMOOTH"
);
}
);
width = 515;
}
);
leftKerningGroup = o;
rightKerningGroup = i;
unicode = 0105;
},
{
glyphname = ae;
lastChange = "2017-05-20 13:05:14 +0000";
layers = (
{
anchors = (
{
name = bottom;
position = "{182, 0}";
},
{
name = ogonek;
position = "{347, 10}";
},
{
name = top;
position = "{232, 480}";
}
);
components = (
{
alignment = -1;
name = e;
transform = "{1, 0, 0, 1, 281, 0}";
},
{
name = _part.bowl;
transform = "{-1, 0, 0, -1, 461, 476}";
}
);
layerId = "71FD7A9F-05F5-4D76-8D4F-547475A05E4C";
width = 695;
},
{
anchors = (
{
name = bottom;
position = "{444, 0}";
},
{
name = ogonek;
position = "{609, 10}";
},
{
name = top;
position = "{494, 480}";
}
);
background = {
paths = (
{
closed = 1;
nodes = (
"343 369 OFFCURVE",
"238 386 OFFCURVE",
"177 382 CURVE",
"195 439 LINE",
"233 410 LINE",
"173 377 OFFCURVE",
"156 306 OFFCURVE",
"153 237 CURVE SMOOTH",
"150 170 OFFCURVE",
"168 109 OFFCURVE",
"226 106 CURVE",
"202 78 LINE",
"162 99 LINE",
"192 99 OFFCURVE",
"318 213 OFFCURVE",
"376 346 CURVE"
);
},
{
closed = 1;
nodes = (
"432 359 LINE",
"346 156 OFFCURVE",
"248 36 OFFCURVE",
"191 -5 CURVE",
"57 -9 OFFCURVE",
"2 112 OFFCURVE",
"11 231 CURVE SMOOTH",
"19 342 OFFCURVE",
"113 476 OFFCURVE",
"242 484 CURVE",
"299 479 OFFCURVE",
"437 451 OFFCURVE",
"473 414 CURVE"
);
}
);
};
components = (
{
name = e;
transform = "{1, 0, 0, 1, 274, 0}";
},
{
name = _part.bowl;
transform = "{-1, 0, 0, -1, 460, 480}";
piece = {
"b/q?" = 1;
};
}
);
layerId = "977FCFA9-45AC-4A33-B2D7-4D17E6BBF8E0";
width = 692;
}
);
leftKerningGroup = o;
leftMetricsKey = a;
rightKerningGroup = o;
rightMetricsKey = e;
unicode = 00E6;
},
{
glyphname = b;
lastChange = "2017-05-20 10:57:43 +0000";
layers = (
{
anchors = (
{
name = bottom;
position = "{200, 0}";
},
{
name = top;
position = "{250, 480}";
}
);
background = {
components = (
{
name = h;
transform = "{1, 0, 0, 1, -12, 0}";
}
);
};
components = (
{
name = _part.bowl;
transform = "{1, 0, 0, 1, 29, 5}";
piece = {
"b/q?" = 1;
};
}
);
guideLines = (
{
angle = -10.1326;
position = "{171, 724}";
},
{
angle = -20;
position = "{9, -2}";
},
{
position = "{1121, 137}";
},
{
position = "{1833, 225}";
}
);
layerId = "71FD7A9F-05F5-4D76-8D4F-547475A05E4C";
paths = (
{
closed = 1;
nodes = (
"112 89 LINE",
"126 174 LINE",
"112 178 LINE",
"137 365 OFFCURVE",
"194 670 OFFCURVE",
"203 741 CURVE",
"182 747 OFFCURVE",
"77 746 OFFCURVE",
"48 738 CURVE",
"44 701 LINE",
"110 682 LINE",
"113 658 OFFCURVE",
"106 576 OFFCURVE",
"98 491 CURVE SMOOTH",
"79 292 OFFCURVE",
"64 148 OFFCURVE",
"42 35 CURVE"
);
}
);
width = 475;
},
{
anchors = (
{
name = bottom;
position = "{225, 0}";
},
{
name = top;
position = "{301, 740}";
}
);
background = {
components = (
{
name = h;
transform = "{1, 0, 0, 1, -3, 0}";
}
);
};
components = (
{
name = _part.bowl;
transform = "{1, 0, 0, 1, 43, 5}";
piece = {
"b/q?" = 1;
};
}
);
guideLines = (
{
angle = -12;
position = "{195, 724}";
},
{
angle = -20;
position = "{33, -2}";
},
{
position = "{-360, 189}";
}
);
layerId = "977FCFA9-45AC-4A33-B2D7-4D17E6BBF8E0";
paths = (
{
closed = 1;
nodes = (
"143 119 LINE",
"174 239 LINE",
"157 239 LINE",
"190 444 OFFCURVE",
"217 602 OFFCURVE",
"244 740 CURVE",
"172 751 OFFCURVE",
"54 744 OFFCURVE",
"41 737 CURVE",
"35 689 LINE",
"95 666 LINE",
"97 647 OFFCURVE",
"92 547 OFFCURVE",
"78 426 CURVE SMOOTH",
"55 225 OFFCURVE",
"43 170 OFFCURVE",
"25 44 CURVE"
);
}
);
width = 492;
}
);
leftKerningGroup = l;
rightKerningGroup = o;
rightMetricsKey = o;
unicode = 0062;
},
{
glyphname = c;
lastChange = "2017-05-20 12:11:47 +0000";
layers = (
{
anchors = (
{
name = bottom;
position = "{258, 0}";
},
{
name = top;
position = "{235, 508}";
}
);
background = {
anchors = (
{
name = bottom;
position = "{199, 0}";
},
{
name = ogonek;
position = "{346, 10}";
},
{
name = top;
position = "{249, 480}";
}
);
components = (
{
name = e;
transform = "{1, 0, 0, 1, 11, 0}";
}
);
};
guideLines = (
{
position = "{-35, -6}";
},
{
angle = 180;
position = "{-228, 489}";
},
{
position = "{-159, 169}";
}
);
layerId = "71FD7A9F-05F5-4D76-8D4F-547475A05E4C";
paths = (
{
closed = 1;
nodes = (
"245 431 OFFCURVE",
"277 424 OFFCURVE",
"316 398 CURVE",
"335 404 LINE",
"359 468 LINE",
"342 480 OFFCURVE",
"283 502 OFFCURVE",
"206 478 CURVE SMOOTH",
"155 462 OFFCURVE",
"116 427 OFFCURVE",
"88 383 CURVE SMOOTH",
"56 332 OFFCURVE",
"39 268 OFFCURVE",
"37 208 CURVE SMOOTH",
"35 137 OFFCURVE",
"54 70 OFFCURVE",
"94 32 CURVE SMOOTH",
"119 8 OFFCURVE",
"154 -6 OFFCURVE",
"197 -6 CURVE",
"233 -3 OFFCURVE",
"272 6 OFFCURVE",
"335 31 CURVE",
"326 74 LINE",
"276 60 OFFCURVE",
"251 56 OFFCURVE",
"220 52 CURVE",
"171 61 OFFCURVE",
"144 91 OFFCURVE",
"129 140 CURVE SMOOTH",
"98 242 OFFCURVE",
"126 394 OFFCURVE",
"214 434 CURVE"
);
}
);
width = 367;
},
{
anchors = (
{
name = bottom;
position = "{209, 0}";
},
{
name = top;
position = "{241, 480}";
}
);
background = {
anchors = (
{
name = bottom;
position = "{195, 0}";
},
{
name = ogonek;
position = "{342, 10}";
},
{
name = top;
position = "{245, 480}";
}
);
components = (
{
name = e;
transform = "{1, 0, 0, 1, -10, 0}";
}
);
};
guideLines = (
{
position = "{-16, 93}";
},
{
position = "{-5, 36}";
}
);
layerId = "977FCFA9-45AC-4A33-B2D7-4D17E6BBF8E0";
paths = (
{
closed = 1;
nodes = (
"241 401 OFFCURVE",
"297 382 OFFCURVE",
"319 359 CURVE",
"354 374 LINE",
"385 472 LINE",
"356 483 OFFCURVE",
"326 494 OFFCURVE",
"277 493 CURVE SMOOTH",
"197 491 OFFCURVE",
"131 455 OFFCURVE",
"86 399 CURVE SMOOTH",
"49 355 OFFCURVE",
"26 298 OFFCURVE",
"20 237 CURVE SMOOTH",
"13 165 OFFCURVE",
"20 96 OFFCURVE",
"53 49 CURVE SMOOTH",
"80 10 OFFCURVE",
"127 -15 OFFCURVE",
"199 -12 CURVE",
"243 -7 OFFCURVE",
"314 18 OFFCURVE",
"354 34 CURVE",
"344 93 LINE",
"290 82 OFFCURVE",
"271 79 OFFCURVE",
"235 74 CURVE",
"176 78 OFFCURVE",
"150 170 OFFCURVE",
"151 221 CURVE SMOOTH",
"153 318 OFFCURVE",
"176 374 OFFCURVE",
"214 402 CURVE"
);
}
);
width = 363;
}
);
leftKerningGroup = o;
leftMetricsKey = o;
rightKerningGroup = z;
unicode = 0063;
},
{
glyphname = d;
lastChange = "2017-05-20 10:56:34 +0000";
layers = (
{
anchors = (
{
name = bottom;
position = "{235, 0}";
},
{
name = center;
position = "{112, 260}";
},
{
name = top;
position = "{285, 480}";
},
{
name = topright;
position = "{516, 480}";
}
);
background = {
components = (
{
name = q;
transform = "{1, 0, 0, 1, -3, 0}";
}
);
};
components = (
{
name = _part.bowl;
transform = "{-1, 0, 0, -1, 454, 478}";
}
);
guideLines = (
{
position = "{319, 410}";
},
{
angle = -18;
position = "{518, 111}";
},
{
position = "{1186, 374}";
}
);
layerId = "71FD7A9F-05F5-4D76-8D4F-547475A05E4C";
paths = (
{
closed = 1;
nodes = (
"353 1 OFFCURVE",
"416 17 OFFCURVE",
"461 38 CURVE",
"453 78 LINE",
"375 69 LINE",
"368 108 OFFCURVE",
"390 265 OFFCURVE",
"413 432 CURVE SMOOTH",
"425 521 OFFCURVE",
"445 636 OFFCURVE",
"462 742 CURVE",
"429 750 OFFCURVE",
"329 746 OFFCURVE",
"306 739 CURVE",
"302 701 LINE",
"368 684 LINE",
"371 623 OFFCURVE",
"361 473 OFFCURVE",
"342 326 CURVE",
"337 284 LINE",
"327 228 OFFCURVE",
"307 139 OFFCURVE",
"300 98 CURVE SMOOTH",
"294 63 OFFCURVE",
"285 16 OFFCURVE",
"305 -6 CURVE"
);
}
);
width = 492;
},
{
anchors = (
{
name = bottom;
position = "{237, 0}";
},
{
name = center;
position = "{407, 562}";
},
{
name = top;
position = "{313, 740}";
},
{
name = topright;
position = "{517, 480}";
}
);
background = {
components = (
{
name = u;
transform = "{1, 0, 0, 1, -21, 0}";
}
);
};
components = (
{
name = _part.bowl;
transform = "{-1, 0, 0, -1, 484, 482}";
}
);
guideLines = (
{
angle = -18;
position = "{519, 111}";
},
{
position = "{1187, 374}";
},
{
position = "{875, 284}";
}
);
layerId = "977FCFA9-45AC-4A33-B2D7-4D17E6BBF8E0";
paths = (
{
closed = 1;
nodes = (
"365 -4 OFFCURVE",
"461 19 OFFCURVE",
"499 39 CURVE",
"492 92 LINE",
"428 87 LINE",
"411 113 OFFCURVE",
"431 265 OFFCURVE",
"452 432 CURVE SMOOTH",
"463 521 OFFCURVE",
"491 699 OFFCURVE",
"497 739 CURVE",
"426 747 OFFCURVE",
"313 744 OFFCURVE",
"298 736 CURVE",
"291 687 LINE",
"352 664 LINE",
"352 603 OFFCURVE",
"346 442 OFFCURVE",
"330 326 CURVE",
"335 268 LINE",
"325 221 OFFCURVE",
"304 120 OFFCURVE",
"300 80 CURVE SMOOTH",
"295 32 OFFCURVE",
"294 19 OFFCURVE",
"308 -5 CURVE"
);
}
);
width = 505;
}
);
leftKerningGroup = o;
leftMetricsKey = o;
rightKerningGroup = i;
unicode = 0064;
},
{
glyphname = eth;
lastChange = "2017-05-20 11:10:27 +0000";
layers = (
{
components = (
{
name = d;
}
);
layerId = "71FD7A9F-05F5-4D76-8D4F-547475A05E4C";
paths = (
{
closed = 1;
nodes = (
"267 538 LINE",
"361 540 OFFCURVE",
"458 538 OFFCURVE",
"550 538 CURVE",
"554 598 LINE",
"459 596 OFFCURVE",
"368 596 OFFCURVE",
"273 598 CURVE"
);
}
);
width = 519;
},
{
components = (
{
name = d;
}
);
layerId = "977FCFA9-45AC-4A33-B2D7-4D17E6BBF8E0";
paths = (
{
closed = 1;
nodes = (
"267 538 LINE",
"361 540 OFFCURVE",
"456 540 OFFCURVE",
"550 538 CURVE",
"554 598 LINE",
"459 596 OFFCURVE",
"368 596 OFFCURVE",
"273 598 CURVE"
);
}
);
width = 524;
}
);
leftKerningGroup = o;
rightKerningGroup = i;
unicode = 00F0;
},
{
glyphname = e;
lastChange = "2017-05-20 10:52:14 +0000";
layers = (
{
anchors = (
{
name = bottom;
position = "{230, 0}";
},
{
name = ogonek;
position = "{407, 10}";
},
{
name = top;
position = "{242, 480}";
}
);
associatedMasterId = "71FD7A9F-05F5-4D76-8D4F-547475A05E4C";
background = {
components = (
{
name = o;
transform = "{1, 0, 0, 1, 6, 0}";
}
);
};
guideLines = (
{
angle = 98;
position = "{397, 220}";
}
);
layerId = "BDA96BF6-4193-4E65-9F3E-3F22181FBD6B";
name = black;
paths = (
{
closed = 1;
nodes = (
"178 240 OFFCURVE",
"188 357 OFFCURVE",
"221 386 CURVE",
"262 381 OFFCURVE",
"274 341 OFFCURVE",
"273 309 CURVE",
"247 306 OFFCURVE",
"193 304 OFFCURVE",
"132 305 CURVE",
"133 214 LINE",
"445 220 LINE",
"489 393 OFFCURVE",
"372 538 OFFCURVE",
"168 475 CURVE SMOOTH",
"42 436 OFFCURVE",
"-12 280 OFFCURVE",
"18 159 CURVE SMOOTH",
"61 -9 OFFCURVE",
"233 -64 OFFCURVE",
"441 34 CURVE",
"431 121 LINE",
"324 84 OFFCURVE",
"233 90 OFFCURVE",
"205 166 CURVE SMOOTH"
);
}
);
width = 466;
},
{
anchors = (
{
name = bottom;
position = "{189, 0}";
},
{
name = ogonek;
position = "{336, 10}";
},
{
name = top;
position = "{239, 508}";
}
);
background = {
components = (
{
name = n;
transform = "{1, 0, 0, 1, -144, 0}";
}
);
};
guideLines = (
{
position = "{428, 715}";
}
);
layerId = "71FD7A9F-05F5-4D76-8D4F-547475A05E4C";
paths = (
{
closed = 1;
nodes = (
"339 487 OFFCURVE",
"266 487 CURVE SMOOTH",
"138 487 OFFCURVE",
"54 375 OFFCURVE",
"40 242 CURVE SMOOTH",
"26 112 OFFCURVE",
"78 -8 OFFCURVE",
"206 -6 CURVE",
"250 -1 OFFCURVE",
"308 20 OFFCURVE",
"348 36 CURVE",
"338 78 LINE",
"286 65 OFFCURVE",
"250 60 OFFCURVE",
"210 55 CURVE",
"144 59 OFFCURVE",
"110 123 OFFCURVE",
"109 207 CURVE",
"239 241 OFFCURVE",
"364 291 OFFCURVE",
"373 378 CURVE SMOOTH",
"380 443 OFFCURVE"
);
},
{
closed = 1;
nodes = (
"251 435 OFFCURVE",
"304 408 OFFCURVE",
"308 361 CURVE",
"294 321 OFFCURVE",
"242 286 OFFCURVE",
"110 250 CURVE",
"112 324 OFFCURVE",
"151 401 OFFCURVE",
"218 435 CURVE"
);
}
);
width = 374;
},
{
anchors = (
{
name = bottom;
position = "{195, 0}";
},
{
name = ogonek;
position = "{342, 10}";
},
{
name = top;
position = "{245, 480}";
}
);
background = {
components = (
{
name = n;
transform = "{1, 0, 0, 1, -158, 0}";
}
);
};
layerId = "977FCFA9-45AC-4A33-B2D7-4D17E6BBF8E0";
paths = (
{
closed = 1;
nodes = (
"350 493 OFFCURVE",
"277 493 CURVE SMOOTH",
"134 493 OFFCURVE",
"35 375 OFFCURVE",
"20 237 CURVE SMOOTH",
"6 104 OFFCURVE",
"41 -18 OFFCURVE",
"199 -12 CURVE",
"243 -7 OFFCURVE",
"323 21 OFFCURVE",
"363 37 CURVE",
"353 96 LINE",
"299 85 OFFCURVE",
"271 79 OFFCURVE",
"235 74 CURVE",
"181 78 OFFCURVE",
"152 153 OFFCURVE",
"149 205 CURVE",
"268 238 OFFCURVE",
"382 286 OFFCURVE",
"391 378 CURVE SMOOTH",
"397 443 OFFCURVE"
);
},
{
closed = 1;
nodes = (
"240 409 OFFCURVE",
"282 384 OFFCURVE",
"286 342 CURVE",
"272 316 OFFCURVE",
"229 292 OFFCURVE",
"151 266 CURVE",
"155 322 OFFCURVE",
"171 380 OFFCURVE",
"213 409 CURVE"
);
}
);
width = 399;
}
);
leftKerningGroup = o;
leftMetricsKey = o;
note = " p ";
rightKerningGroup = o;
unicode = 0065;
},
{
color = 5;
glyphname = f;
lastChange = "2017-05-20 11:27:14 +0000";
layers = (
{
anchors = (
{
name = bottom;
position = "{96, 0}";
},
{
name = top;
position = "{146, 480}";
}
);
background = {
components = (
{
name = n;
transform = "{1, 0, 0, 1, -26, 0}";
}
);
};
layerId = "71FD7A9F-05F5-4D76-8D4F-547475A05E4C";
paths = (
{
closed = 1;
nodes = (
"24 437 LINE",
"92 427 LINE",
"68 116 LINE",
"55 -48 OFFCURVE",
"52 -110 OFFCURVE",
"4 -162 CURVE",
"-42 -159 OFFCURVE",
"-77 -154 OFFCURVE",
"-105 -150 CURVE",
"-125 -156 LINE",
"-133 -215 LINE",
"-113 -241 OFFCURVE",
"-51 -241 OFFCURVE",
"-7 -217 CURVE SMOOTH",
"88 -165 OFFCURVE",
"125 -76 OFFCURVE",
"139 84 CURVE SMOOTH",
"170 432 LINE",
"301 422 LINE",
"312 422 OFFCURVE",
"317 438 OFFCURVE",
"319 483 CURVE",
"175 480 LINE",
"190 610 OFFCURVE",
"203 646 OFFCURVE",
"263 676 CURVE",
"305 676 OFFCURVE",
"352 667 OFFCURVE",
"389 639 CURVE",
"407 645 LINE",
"410 670 OFFCURVE",
"413 694 OFFCURVE",
"416 719 CURVE",
"355 760 OFFCURVE",
"250 751 OFFCURVE",
"181 680 CURVE SMOOTH",
"139 636 OFFCURVE",
"111 572 OFFCURVE",
"100 480 CURVE",
"28 476 LINE"
);
}
);
width = 232;
},
{
anchors = (
{
name = bottom;
position = "{169, 260}";
},
{
name = top;
position = "{218, 740}";
}
);
background = {
components = (
{
name = t;
}
);
};
layerId = "977FCFA9-45AC-4A33-B2D7-4D17E6BBF8E0";
paths = (
{
closed = 1;
nodes = (
"13 425 LINE",
"84 414 LINE",
"63 102 LINE SMOOTH",
"51 -73 OFFCURVE",
"48 -111 OFFCURVE",
"21 -138 CURVE",
"-25 -134 OFFCURVE",
"-52 -131 OFFCURVE",
"-86 -126 CURVE",
"-114 -139 LINE",
"-123 -217 LINE",
"-95 -267 OFFCURVE",
"3 -251 OFFCURVE",
"66 -192 CURVE SMOOTH",
"135 -128 OFFCURVE",
"168 -61 OFFCURVE",
"183 94 CURVE SMOOTH",
"214 414 LINE",
"338 408 LINE SMOOTH",
"345 408 OFFCURVE",
"359 411 OFFCURVE",
"362 483 CURVE",
"220 480 LINE",
"232 589 OFFCURVE",
"245 626 OFFCURVE",
"282 652 CURVE",
"328 653 OFFCURVE",
"390 630 OFFCURVE",
"421 598 CURVE",
"458 617 LINE",
"465 633 OFFCURVE",
"470 681 OFFCURVE",
"473 718 CURVE",
"441 767 OFFCURVE",
"307 767 OFFCURVE",
"209 698 CURVE SMOOTH",
"147 654 OFFCURVE",
"106 582 OFFCURVE",
"93 481 CURVE",
"19 479 LINE"
);
}
);
width = 263;
}
);
leftKerningGroup = f;
rightKerningGroup = f;
unicode = 0066;
},
{
color = 5;
glyphname = f.001;
lastChange = "2017-05-20 11:35:35 +0000";
layers = (
{
anchors = (
{
name = bottom;
position = "{110, 0}";
},
{
name = top;
position = "{160, 480}";
}
);
background = {
anchors = (
{
name = bottom;
position = "{96, 0}";
},
{
name = top;
position = "{146, 480}";
}
);
paths = (
{
closed = 1;
nodes = (
"24 437 LINE",
"92 427 LINE",
"68 116 LINE",
"55 -48 OFFCURVE",
"52 -110 OFFCURVE",
"4 -162 CURVE",
"-42 -159 OFFCURVE",
"-77 -154 OFFCURVE",
"-105 -150 CURVE",
"-125 -156 LINE",
"-133 -215 LINE",
"-113 -241 OFFCURVE",
"-51 -241 OFFCURVE",
"-7 -217 CURVE SMOOTH",
"88 -165 OFFCURVE",
"125 -76 OFFCURVE",
"139 84 CURVE SMOOTH",
"170 432 LINE",
"301 422 LINE",
"312 422 OFFCURVE",
"317 438 OFFCURVE",
"319 483 CURVE",
"175 480 LINE",
"190 610 OFFCURVE",
"195 628 OFFCURVE",
"227 672 CURVE",
"264 669 OFFCURVE",
"288 666 OFFCURVE",
"328 660 CURVE",
"348 669 LINE",
"351 694 OFFCURVE",
"353 704 OFFCURVE",
"356 729 CURVE",
"308 754 OFFCURVE",
"241 751 OFFCURVE",
"172 680 CURVE SMOOTH",
"130 636 OFFCURVE",
"111 572 OFFCURVE",
"100 480 CURVE",
"28 476 LINE"
);
}
);
};
guideLines = (
{
position = "{215, -230}";
}
);
hints = (
{
horizontal = 1;
place = "{-233.07, 66.07}";
},
{
horizontal = 1;
place = "{432.5, 44.5}";
},
{
horizontal = 1;
place = "{676, -20}";
target = down;
type = TopGhost;
},
{
horizontal = 1;
place = "{708, 3515}";
},
{
horizontal = 1;
place = "{427, 54}";
},
{
place = "{-203, 646}";
}
);
layerId = "71FD7A9F-05F5-4D76-8D4F-547475A05E4C";
paths = (
{
closed = 1;
nodes = (
"24 437 LINE",
"92 427 LINE",
"68 116 LINE",
"55 -48 OFFCURVE",
"52 -110 OFFCURVE",
"4 -162 CURVE",
"-42 -159 OFFCURVE",
"-77 -154 OFFCURVE",
"-105 -150 CURVE",
"-125 -156 LINE",
"-133 -215 LINE",
"-113 -241 OFFCURVE",
"-51 -241 OFFCURVE",
"-7 -217 CURVE SMOOTH",
"88 -165 OFFCURVE",
"125 -76 OFFCURVE",
"139 84 CURVE SMOOTH",
"170 432 LINE",
"301 422 LINE",
"312 422 OFFCURVE",
"317 438 OFFCURVE",
"319 483 CURVE",
"175 480 LINE",
"190 610 OFFCURVE",
"195 628 OFFCURVE",
"227 672 CURVE",
"263 669 OFFCURVE",
"288 666 OFFCURVE",
"328 660 CURVE",
"348 669 LINE",
"351 694 OFFCURVE",
"353 704 OFFCURVE",
"356 729 CURVE",
"308 754 OFFCURVE",
"241 751 OFFCURVE",
"172 680 CURVE SMOOTH",
"130 636 OFFCURVE",
"111 572 OFFCURVE",
"100 480 CURVE",
"28 476 LINE"
);
}
);
width = 229;
},
{
anchors = (
{
name = bottom;
position = "{112, 0}";
},
{
name = top;
position = "{162, 480}";
}
);
background = {
paths = (
{
closed = 1;
nodes = (
"13 425 LINE",
"84 414 LINE",
"63 102 LINE SMOOTH",
"51 -73 OFFCURVE",
"48 -111 OFFCURVE",
"21 -138 CURVE",
"-25 -134 OFFCURVE",
"-52 -131 OFFCURVE",
"-86 -126 CURVE",
"-114 -139 LINE",
"-123 -217 LINE",
"-95 -267 OFFCURVE",
"3 -251 OFFCURVE",
"66 -192 CURVE SMOOTH",
"135 -128 OFFCURVE",
"168 -61 OFFCURVE",
"183 94 CURVE SMOOTH",
"214 414 LINE",
"338 408 LINE SMOOTH",
"345 408 OFFCURVE",
"359 411 OFFCURVE",
"362 483 CURVE",
"220 480 LINE",
"232 589 OFFCURVE",
"234 616 OFFCURVE",
"262 647 CURVE",
"298 645 OFFCURVE",
"324 642 OFFCURVE",
"367 638 CURVE",
"399 655 LINE",
"403 684 OFFCURVE",
"406 703 OFFCURVE",
"410 740 CURVE",
"378 762 OFFCURVE",
"296 770 OFFCURVE",
"201 698 CURVE SMOOTH",
"139 651 OFFCURVE",
"106 582 OFFCURVE",
"93 481 CURVE",
"19 479 LINE"
);
}
);
};
layerId = "977FCFA9-45AC-4A33-B2D7-4D17E6BBF8E0";
paths = (
{
closed = 1;
nodes = (
"13 425 LINE",
"84 414 LINE",
"63 102 LINE SMOOTH",
"51 -73 OFFCURVE",
"48 -111 OFFCURVE",
"21 -138 CURVE",
"-25 -134 OFFCURVE",
"-52 -131 OFFCURVE",
"-86 -126 CURVE",
"-114 -139 LINE",
"-123 -217 LINE",
"-95 -267 OFFCURVE",
"3 -251 OFFCURVE",
"66 -192 CURVE SMOOTH",
"135 -128 OFFCURVE",
"168 -61 OFFCURVE",
"183 94 CURVE SMOOTH",
"214 414 LINE",
"338 408 LINE SMOOTH",
"345 408 OFFCURVE",
"359 411 OFFCURVE",
"362 483 CURVE",
"220 480 LINE",
"232 589 OFFCURVE",
"234 616 OFFCURVE",
"262 647 CURVE",
"298 645 OFFCURVE",
"324 642 OFFCURVE",
"367 638 CURVE",
"399 655 LINE",
"403 684 OFFCURVE",
"406 703 OFFCURVE",
"410 740 CURVE",
"378 762 OFFCURVE",
"296 770 OFFCURVE",
"201 698 CURVE SMOOTH",
"139 651 OFFCURVE",
"106 582 OFFCURVE",
"93 481 CURVE",
"19 479 LINE"
);
}
);
width = 315;
}
);
leftKerningGroup = f;
leftMetricsKey = f;
rightKerningGroup = f;
},
{
color = 5;
glyphname = f.f;
lastChange = "2017-05-20 11:36:01 +0000";
layers = (
{
anchors = (
{
name = bottom;
position = "{142, 0}";
},
{
name = top;
position = "{192, 480}";
}
);
background = {
anchors = (
{
name = bottom;
position = "{96, 0}";
},
{
name = top;
position = "{146, 480}";
}
);
paths = (
{
closed = 1;
nodes = (
"269 739 OFFCURVE",
"185 672 CURVE SMOOTH",
"137 634 OFFCURVE",
"111 572 OFFCURVE",
"100 480 CURVE",
"28 476 LINE",
"24 437 LINE",
"92 427 LINE",
"85 349 OFFCURVE",
"77 231 OFFCURVE",
"68 116 CURVE SMOOTH",
"55 -48 OFFCURVE",
"52 -110 OFFCURVE",
"4 -162 CURVE",
"-42 -159 OFFCURVE",
"-77 -154 OFFCURVE",
"-105 -150 CURVE",
"-125 -156 LINE",
"-133 -215 LINE",
"-113 -241 OFFCURVE",
"-51 -241 OFFCURVE",
"-7 -217 CURVE SMOOTH",
"88 -165 OFFCURVE",
"125 -76 OFFCURVE",
"139 84 CURVE SMOOTH",
"170 432 LINE",
"214 430 OFFCURVE",
"357 426 OFFCURVE",
"375 426 CURVE SMOOTH",
"386 426 OFFCURVE",
"391 438 OFFCURVE",
"393 483 CURVE",
"175 480 LINE",
"190 610 OFFCURVE",
"213 644 OFFCURVE",
"250 665 CURVE",
"295 667 OFFCURVE",
"369 657 OFFCURVE",
"404 628 CURVE",
"447 681 LINE",
"398 730 OFFCURVE"
);
}
);
};
layerId = "71FD7A9F-05F5-4D76-8D4F-547475A05E4C";
paths = (
{
closed = 1;
nodes = (
"24 437 LINE",
"92 427 LINE",
"68 116 LINE",
"55 -48 OFFCURVE",
"52 -110 OFFCURVE",
"4 -162 CURVE",
"-42 -159 OFFCURVE",
"-77 -154 OFFCURVE",
"-105 -150 CURVE",
"-125 -156 LINE",
"-133 -215 LINE",
"-113 -241 OFFCURVE",
"-51 -241 OFFCURVE",
"-7 -217 CURVE SMOOTH",
"88 -165 OFFCURVE",
"125 -76 OFFCURVE",
"139 84 CURVE SMOOTH",
"170 432 LINE",
"375 426 LINE",
"386 426 OFFCURVE",
"391 438 OFFCURVE",
"393 483 CURVE",
"175 480 LINE",
"190 610 OFFCURVE",
"213 644 OFFCURVE",
"250 665 CURVE",
"295 667 OFFCURVE",
"369 657 OFFCURVE",
"404 628 CURVE",
"447 681 LINE",
"398 730 OFFCURVE",
"269 739 OFFCURVE",
"185 672 CURVE SMOOTH",
"137 634 OFFCURVE",
"111 572 OFFCURVE",
"100 480 CURVE",
"28 476 LINE"
);
}
);
width = 241;
},
{
anchors = (
{
name = bottom;
position = "{157, 0}";
}
);
background = {
anchors = (
{
name = bottom;
position = "{123, 0}";
},
{
name = top;
position = "{173, 480}";
}
);
paths = (
{
closed = 1;
nodes = (
"145 656 OFFCURVE",
"106 582 OFFCURVE",
"93 481 CURVE",
"7 479 LINE",
"1 425 LINE",
"84 414 LINE",
"63 102 LINE SMOOTH",
"51 -73 OFFCURVE",
"48 -111 OFFCURVE",
"21 -138 CURVE",
"-25 -134 OFFCURVE",
"-52 -131 OFFCURVE",
"-86 -126 CURVE",
"-114 -139 LINE",
"-123 -217 LINE",
"-95 -267 OFFCURVE",
"3 -251 OFFCURVE",
"66 -192 CURVE SMOOTH",
"135 -128 OFFCURVE",
"168 -61 OFFCURVE",
"183 94 CURVE SMOOTH",
"214 414 LINE",
"338 408 LINE SMOOTH",
"345 408 OFFCURVE",
"359 411 OFFCURVE",
"362 483 CURVE",
"220 480 LINE",
"232 589 OFFCURVE",
"250 633 OFFCURVE",
"287 659 CURVE",
"340 667 OFFCURVE",
"428 636 OFFCURVE",
"461 592 CURVE",
"524 684 LINE",
"491 735 OFFCURVE",
"346 788 OFFCURVE",
"209 698 CURVE SMOOTH"
);
}
);
};
layerId = "977FCFA9-45AC-4A33-B2D7-4D17E6BBF8E0";
paths = (
{
closed = 1;
nodes = (
"1 425 LINE",
"84 414 LINE",
"63 102 LINE SMOOTH",
"51 -73 OFFCURVE",
"48 -111 OFFCURVE",
"21 -138 CURVE",
"-25 -134 OFFCURVE",
"-52 -131 OFFCURVE",
"-86 -126 CURVE",
"-114 -139 LINE",
"-123 -217 LINE",
"-95 -267 OFFCURVE",
"3 -251 OFFCURVE",
"66 -192 CURVE SMOOTH",
"135 -128 OFFCURVE",
"168 -61 OFFCURVE",
"183 94 CURVE SMOOTH",
"214 414 LINE",
"338 408 LINE SMOOTH",
"345 408 OFFCURVE",
"359 411 OFFCURVE",
"362 483 CURVE",
"220 480 LINE",
"232 589 OFFCURVE",
"250 633 OFFCURVE",
"287 659 CURVE",
"340 667 OFFCURVE",
"428 636 OFFCURVE",
"461 592 CURVE",
"524 684 LINE",
"491 735 OFFCURVE",
"346 788 OFFCURVE",
"209 698 CURVE SMOOTH",
"145 656 OFFCURVE",
"106 582 OFFCURVE",
"93 481 CURVE",
"7 479 LINE"
);
}
);
width = 277;
}
);
leftMetricsKey = f;
},
{
color = 5;
glyphname = f.l;
lastChange = "2017-05-20 11:36:17 +0000";
layers = (
{
anchors = (
{
name = bottom;
position = "{99, 0}";
},
{
name = top;
position = "{149, 480}";
}
);
background = {
paths = (
{
closed = 1;
nodes = (
"262 746 OFFCURVE",
"193 691 CURVE SMOOTH",
"144 652 OFFCURVE",
"111 572 OFFCURVE",
"100 480 CURVE",
"28 476 LINE",
"24 437 LINE",
"92 427 LINE",
"85 349 OFFCURVE",
"77 231 OFFCURVE",
"68 116 CURVE SMOOTH",
"55 -48 OFFCURVE",
"52 -110 OFFCURVE",
"4 -162 CURVE",
"-42 -159 OFFCURVE",
"-77 -154 OFFCURVE",
"-105 -150 CURVE",
"-125 -156 LINE",
"-133 -215 LINE",
"-113 -241 OFFCURVE",
"-51 -241 OFFCURVE",
"-7 -217 CURVE SMOOTH",
"88 -165 OFFCURVE",
"125 -76 OFFCURVE",
"139 84 CURVE SMOOTH",
"170 432 LINE",
"214 430 OFFCURVE",
"283 423 OFFCURVE",
"301 423 CURVE SMOOTH",
"312 423 OFFCURVE",
"317 438 OFFCURVE",
"319 483 CURVE",
"175 480 LINE",
"190 644 OFFCURVE",
"225 659 OFFCURVE",
"262 680 CURVE",
"302 685 OFFCURVE",
"357 686 OFFCURVE",
"396 670 CURVE",
"468 741 LINE",
"344 763 OFFCURVE"
);
}
);
};
layerId = "71FD7A9F-05F5-4D76-8D4F-547475A05E4C";
paths = (
{
closed = 1;
nodes = (
"24 437 LINE",
"92 427 LINE",
"68 116 LINE",
"55 -48 OFFCURVE",
"52 -110 OFFCURVE",
"4 -162 CURVE",
"-42 -159 OFFCURVE",
"-77 -154 OFFCURVE",
"-105 -150 CURVE",
"-125 -156 LINE",
"-133 -215 LINE",
"-113 -241 OFFCURVE",
"-51 -241 OFFCURVE",
"-7 -217 CURVE SMOOTH",
"88 -165 OFFCURVE",
"125 -76 OFFCURVE",
"139 84 CURVE SMOOTH",
"170 432 LINE",
"301 423 LINE",
"312 423 OFFCURVE",
"317 438 OFFCURVE",
"319 483 CURVE",
"175 480 LINE",
"190 644 OFFCURVE",
"225 659 OFFCURVE",
"262 680 CURVE",
"302 685 OFFCURVE",
"357 686 OFFCURVE",
"396 670 CURVE",
"468 741 LINE",
"344 763 OFFCURVE",
"262 746 OFFCURVE",
"193 691 CURVE SMOOTH",
"144 652 OFFCURVE",
"111 572 OFFCURVE",
"100 480 CURVE",
"28 476 LINE"
);
}
);
width = 256;
},
{
anchors = (
{
name = bottom;
position = "{167, 0}";
},
{
name = top;
position = "{217, 480}";
}
);
background = {
paths = (
{
closed = 1;
nodes = (
"145 651 OFFCURVE",
"106 582 OFFCURVE",
"93 481 CURVE",
"7 479 LINE",
"1 425 LINE",
"84 414 LINE",
"63 102 LINE SMOOTH",
"51 -73 OFFCURVE",
"48 -111 OFFCURVE",
"21 -138 CURVE",
"-25 -134 OFFCURVE",
"-52 -131 OFFCURVE",
"-86 -126 CURVE",
"-114 -139 LINE",
"-123 -217 LINE",
"-95 -267 OFFCURVE",
"3 -251 OFFCURVE",
"66 -192 CURVE SMOOTH",
"135 -128 OFFCURVE",
"168 -61 OFFCURVE",
"183 94 CURVE SMOOTH",
"214 414 LINE",
"338 408 LINE SMOOTH",
"345 408 OFFCURVE",
"359 411 OFFCURVE",
"362 483 CURVE",
"220 480 LINE",
"232 589 OFFCURVE",
"260 643 OFFCURVE",
"297 669 CURVE",
"350 677 OFFCURVE",
"410 669 OFFCURVE",
"457 642 CURVE",
"558 740 LINE",
"485 766 OFFCURVE",
"337 791 OFFCURVE",
"209 698 CURVE SMOOTH"
);
}
);
};
layerId = "977FCFA9-45AC-4A33-B2D7-4D17E6BBF8E0";
paths = (
{
closed = 1;
nodes = (
"1 425 LINE",
"84 414 LINE",
"63 102 LINE SMOOTH",
"51 -73 OFFCURVE",
"48 -111 OFFCURVE",
"21 -138 CURVE",
"-25 -134 OFFCURVE",
"-52 -131 OFFCURVE",
"-86 -126 CURVE",
"-114 -139 LINE",
"-123 -217 LINE",
"-95 -267 OFFCURVE",
"3 -251 OFFCURVE",
"66 -192 CURVE SMOOTH",
"135 -128 OFFCURVE",
"168 -61 OFFCURVE",
"183 94 CURVE SMOOTH",
"214 414 LINE",
"338 408 LINE SMOOTH",
"345 408 OFFCURVE",
"359 411 OFFCURVE",
"362 483 CURVE",
"220 480 LINE",
"232 589 OFFCURVE",
"260 643 OFFCURVE",
"297 669 CURVE",
"350 677 OFFCURVE",
"410 669 OFFCURVE",
"457 642 CURVE",
"558 740 LINE",
"485 766 OFFCURVE",
"337 791 OFFCURVE",
"209 698 CURVE SMOOTH",
"145 651 OFFCURVE",
"106 582 OFFCURVE",
"93 481 CURVE",
"7 479 LINE"
);
}
);
width = 306;
}
);
leftKerningGroup = f;
leftMetricsKey = f;
rightKerningGroup = g;
},
{
color = 5;
glyphname = f.t;
lastChange = "2017-05-20 11:36:31 +0000";
layers = (
{
anchors = (
{
name = bottom;
position = "{212, 3}";
},
{
name = center;
position = "{237, 240}";
},
{
name = top;
position = "{258, 480}";
},
{
name = topright;
position = "{389, 480}";
}
);
background = {
anchors = (
{
name = bottom;
position = "{96, 0}";
},
{
name = top;
position = "{146, 480}";
}
);
paths = (
{
closed = 1;
nodes = (
"250 751 OFFCURVE",
"181 680 CURVE SMOOTH",
"139 636 OFFCURVE",
"111 572 OFFCURVE",
"100 480 CURVE",
"28 476 LINE",
"24 437 LINE",
"92 427 LINE",
"85 349 OFFCURVE",
"77 231 OFFCURVE",
"68 116 CURVE SMOOTH",
"55 -48 OFFCURVE",
"52 -110 OFFCURVE",
"4 -162 CURVE",
"-42 -159 OFFCURVE",
"-77 -154 OFFCURVE",
"-105 -150 CURVE",
"-125 -156 LINE",
"-133 -215 LINE",
"-113 -241 OFFCURVE",
"-51 -241 OFFCURVE",
"-7 -217 CURVE SMOOTH",
"88 -165 OFFCURVE",
"125 -76 OFFCURVE",
"139 84 CURVE SMOOTH",
"170 432 LINE",
"214 430 OFFCURVE",
"372 426 OFFCURVE",
"390 426 CURVE SMOOTH",
"401 426 OFFCURVE",
"406 438 OFFCURVE",
"408 483 CURVE",
"175 480 LINE",
"190 610 OFFCURVE",
"203 646 OFFCURVE",
"263 676 CURVE",
"305 676 OFFCURVE",
"352 667 OFFCURVE",
"389 639 CURVE",
"407 645 LINE",
"412 667 OFFCURVE",
"415 690 OFFCURVE",
"416 719 CURVE",
"355 760 OFFCURVE"
);
}
);
};
layerId = "71FD7A9F-05F5-4D76-8D4F-547475A05E4C";
paths = (
{
closed = 1;
nodes = (
"24 437 LINE",
"92 427 LINE",
"68 116 LINE",
"55 -48 OFFCURVE",
"52 -110 OFFCURVE",
"4 -162 CURVE",
"-42 -159 OFFCURVE",
"-77 -154 OFFCURVE",
"-105 -150 CURVE",
"-125 -156 LINE",
"-133 -215 LINE",
"-113 -241 OFFCURVE",
"-51 -241 OFFCURVE",
"-7 -217 CURVE SMOOTH",
"88 -165 OFFCURVE",
"125 -76 OFFCURVE",
"139 84 CURVE SMOOTH",
"170 432 LINE",
"390 426 LINE",
"401 426 OFFCURVE",
"406 438 OFFCURVE",
"408 483 CURVE",
"175 480 LINE",
"190 610 OFFCURVE",
"203 646 OFFCURVE",
"263 676 CURVE",
"305 676 OFFCURVE",
"353 667 OFFCURVE",
"390 639 CURVE",
"408 645 LINE",
"417 719 LINE",
"356 760 OFFCURVE",
"250 751 OFFCURVE",
"181 680 CURVE SMOOTH",
"139 636 OFFCURVE",
"111 572 OFFCURVE",
"100 480 CURVE",
"28 476 LINE"
);
}
);
width = 231;
},
{
anchors = (
{
name = bottom;
position = "{312, 3}";
},
{
name = center;
position = "{337, 240}";
},
{
name = top;
position = "{281, 483}";
},
{
name = topright;
position = "{489, 480}";
}
);
layerId = "977FCFA9-45AC-4A33-B2D7-4D17E6BBF8E0";
paths = (
{
closed = 1;
nodes = (
"1 425 LINE",
"84 414 LINE",
"63 102 LINE SMOOTH",
"51 -73 OFFCURVE",
"48 -111 OFFCURVE",
"21 -138 CURVE",
"-25 -134 OFFCURVE",
"-52 -131 OFFCURVE",
"-86 -126 CURVE",
"-114 -139 LINE",
"-123 -217 LINE",
"-95 -267 OFFCURVE",
"3 -251 OFFCURVE",
"66 -192 CURVE SMOOTH",
"135 -128 OFFCURVE",
"168 -61 OFFCURVE",
"183 94 CURVE SMOOTH",
"214 414 LINE",
"426 412 LINE SMOOTH",
"433 412 OFFCURVE",
"447 411 OFFCURVE",
"450 483 CURVE",
"220 480 LINE",
"232 589 OFFCURVE",
"245 626 OFFCURVE",
"282 652 CURVE",
"328 653 OFFCURVE",
"390 630 OFFCURVE",
"421 598 CURVE",
"458 617 LINE",
"464 651 OFFCURVE",
"468 681 OFFCURVE",
"470 718 CURVE",
"438 767 OFFCURVE",
"307 767 OFFCURVE",
"209 698 CURVE SMOOTH",
"147 654 OFFCURVE",
"106 582 OFFCURVE",
"93 481 CURVE",
"7 479 LINE"
);
}
);
width = 309;
}
);
leftKerningGroup = f;
leftMetricsKey = f;
rightKerningGroup = t;
},
{
glyphname = g;
lastChange = "2017-05-20 13:17:12 +0000";
layers = (
{
background = {
paths = (
{
closed = 1;
nodes = (
"351 276 LINE",
"310 24 OFFCURVE",
"280 -91 OFFCURVE",
"230 -146 CURVE",
"161 -159 OFFCURVE",
"89 -139 OFFCURVE",
"55 -108 CURVE",
"141 -73 OFFCURVE",
"192 -27 OFFCURVE",
"241 55 CURVE",
"179 32 LINE",
"119 -39 OFFCURVE",
"18 -53 OFFCURVE",
"-59 -42 CURVE",
"-78 -100 LINE",
"-47 -200 OFFCURVE",
"134 -312 OFFCURVE",
"298 -181 CURVE SMOOTH",
"445 -63 OFFCURVE",
"426 36 OFFCURVE",
"443 264 CURVE SMOOTH",
"446 303 OFFCURVE",
"457 391 OFFCURVE",
"484 481 CURVE",
"475 489 OFFCURVE",
"423 499 OFFCURVE",
"407 494 CURVE",
"330 286 LINE"
);
}
);
};
components = (
{
name = _part.bowl;
transform = "{-1, 0, -0.0349, -0.9706, 503, 480}";
}
);
guideLines = (
{
position = "{1860, 258}";
}
);
layerId = "977FCFA9-45AC-4A33-B2D7-4D17E6BBF8E0";
paths = (
{
closed = 1;
nodes = (
"445 -63 OFFCURVE",
"426 36 OFFCURVE",
"443 264 CURVE SMOOTH",
"446 303 OFFCURVE",
"457 391 OFFCURVE",
"484 481 CURVE",
"475 489 OFFCURVE",
"423 499 OFFCURVE",
"407 494 CURVE",
"328 280 LINE",
"351 276 LINE",
"310 24 OFFCURVE",
"280 -91 OFFCURVE",
"230 -146 CURVE",
"161 -159 OFFCURVE",
"89 -139 OFFCURVE",
"55 -108 CURVE",
"141 -73 OFFCURVE",
"192 -27 OFFCURVE",
"241 55 CURVE",
"203 70 LINE",
"147 -38 OFFCURVE",
"18 -53 OFFCURVE",
"-59 -42 CURVE",
"-78 -100 LINE",
"-47 -200 OFFCURVE",
"134 -312 OFFCURVE",
"298 -181 CURVE SMOOTH"
);
}
);
width = 499;
},
{
anchors = (
{
name = bottom;
position = "{189, 0}";
},
{
name = top;
position = "{246, 508}";
}
);
background = {
anchors = (
{
name = bottom;
position = "{200, 0}";
},
{
name = ogonek;
position = "{438, 10}";
},
{
name = top;
position = "{252, 480}";
}
);
components = (
{
name = a;
transform = "{1, 0, 0, 1, 4, 0}";
}
);
};
components = (
{
name = _part.bowl;
transform = "{-1, 0, -0.0178, -0.9803, 460, 476}";
}
);
guideLines = (
{
position = "{1257, 251}";
}
);
layerId = "71FD7A9F-05F5-4D76-8D4F-547475A05E4C";
paths = (
{
closed = 1;
nodes = (
"378 -90 OFFCURVE",
"384 -33 OFFCURVE",
"389 254 CURVE SMOOTH",
"390 338 OFFCURVE",
"401 404 OFFCURVE",
"429 481 CURVE",
"420 489 OFFCURVE",
"392 497 OFFCURVE",
"376 492 CURVE",
"322 281 LINE",
"347 276 LINE",
"317 46 OFFCURVE",
"297 -85 OFFCURVE",
"226 -164 CURVE",
"117 -200 OFFCURVE",
"34 -155 OFFCURVE",
"4 -106 CURVE",
"67 -88 OFFCURVE",
"136 -57 OFFCURVE",
"200 5 CURVE",
"179 17 LINE",
"101 -36 OFFCURVE",
"41 -64 OFFCURVE",
"-75 -65 CURVE",
"-86 -107 LINE",
"-36 -242 OFFCURVE",
"157 -287 OFFCURVE",
"272 -185 CURVE SMOOTH"
);
}
);
width = 442;
}
);
leftKerningGroup = o;
note = "this one too";
rightKerningGroup = g;
unicode = 0067;
},
{
glyphname = i;
lastChange = "2017-05-20 10:52:14 +0000";
layers = (
{
anchors = (
{
name = bottom;
position = "{104, 0}";
}
);
background = {
paths = (
{
closed = 1;
nodes = (
"199 461 OFFCURVE",
"133 479 OFFCURVE",
"85 479 CURVE",
"64 471 OFFCURVE",
"78 317 OFFCURVE",
"80 309 CURVE",
"70 270 OFFCURVE",
"49 159 OFFCURVE",
"46 112 CURVE SMOOTH",
"40 27 OFFCURVE",
"84 0 OFFCURVE",
"156 0 CURVE",
"195 8 OFFCURVE",
"216 21 OFFCURVE",
"228 30 CURVE",
"224 83 LINE",
"210 76 OFFCURVE",
"184 68 OFFCURVE",
"168 68 CURVE",
"153 122 OFFCURVE",
"196 379 OFFCURVE",
"213 444 CURVE"
);
}
);
};
components = (
{
name = idotless;
},
{
name = dotaccentcomb;
transform = "{1, 0, 0, 1, -152, 28}";
}
);
guideLines = (
{
angle = -20;
position = "{81, 30}";
},
{
position = "{418, 715}";
}
);
layerId = "71FD7A9F-05F5-4D76-8D4F-547475A05E4C";
width = 278;
},
{
anchors = (
{
name = bottom;
position = "{104, 0}";
}
);
background = {
paths = (
{
closed = 1;
nodes = (
"199 461 OFFCURVE",
"133 479 OFFCURVE",
"85 479 CURVE",
"64 471 OFFCURVE",
"78 317 OFFCURVE",
"80 309 CURVE",
"70 270 OFFCURVE",
"49 159 OFFCURVE",
"46 112 CURVE SMOOTH",
"40 27 OFFCURVE",
"84 0 OFFCURVE",
"156 0 CURVE",
"195 8 OFFCURVE",
"216 21 OFFCURVE",
"228 30 CURVE",
"224 83 LINE",
"210 76 OFFCURVE",
"184 68 OFFCURVE",
"168 68 CURVE",
"153 122 OFFCURVE",
"196 379 OFFCURVE",
"213 444 CURVE"
);
}
);
};
components = (
{
name = idotless;
},
{
name = dotaccentcomb;
transform = "{1, 0, 0, 1, -156, 21}";
}
);
guideLines = (
{
angle = -20;
position = "{81, 30}";
}
);
layerId = "977FCFA9-45AC-4A33-B2D7-4D17E6BBF8E0";
width = 283;
}
);
leftKerningGroup = i;
rightKerningGroup = i;
unicode = 0069;
},
{
glyphname = idotless;
lastChange = "2017-05-20 10:52:14 +0000";
layers = (
{
anchors = (
{
name = bottom;
position = "{145, 0}";
},
{
name = ogonek;
position = "{246, 10}";
},
{
name = top;
position = "{162, 508}";
}
);
background = {
components = (
{
name = n;
transform = "{1, 0, 0, 1, 12, 0}";
}
);
};
guideLines = (
{
position = "{428, 715}";
}
);
layerId = "71FD7A9F-05F5-4D76-8D4F-547475A05E4C";
paths = (
{
closed = 1;
nodes = (
"41 440 LINE",
"110 422 LINE",
"112 371 OFFCURVE",
"108 315 OFFCURVE",
"100 251 CURVE SMOOTH",
"76 59 OFFCURVE",
"69 16 OFFCURVE",
"92 -5 CURVE",
"117 -3 OFFCURVE",
"233 28 OFFCURVE",
"247 38 CURVE",
"241 80 LINE",
"162 70 LINE",
"148 99 OFFCURVE",
"151 151 OFFCURVE",
"174 312 CURVE SMOOTH",
"182 371 OFFCURVE",
"195 430 OFFCURVE",
"203 480 CURVE",
"158 486 OFFCURVE",
"66 482 OFFCURVE",
"45 476 CURVE"
);
}
);
width = 278;
},
{
anchors = (
{
name = bottom;
position = "{116, 0}";
},
{
name = ogonek;
position = "{217, 18}";
},
{
name = top;
position = "{163, 536}";
}
);
background = {
components = (
{
name = n;
transform = "{1, 0, 0, 1, -10, 0}";
}
);
};
layerId = "977FCFA9-45AC-4A33-B2D7-4D17E6BBF8E0";
paths = (
{
closed = 1;
nodes = (
"20 428 LINE",
"84 406 LINE",
"84 371 OFFCURVE",
"79 301 OFFCURVE",
"70 228 CURVE SMOOTH",
"50 68 OFFCURVE",
"48 13 OFFCURVE",
"67 -5 CURVE",
"90 -11 OFFCURVE",
"235 23 OFFCURVE",
"262 38 CURVE",
"255 91 LINE",
"187 88 LINE",
"178 117 OFFCURVE",
"178 171 OFFCURVE",
"190 285 CURVE SMOOTH",
"196 346 OFFCURVE",
"204 392 OFFCURVE",
"220 480 CURVE",
"183 489 OFFCURVE",
"56 487 OFFCURVE",
"27 478 CURVE"
);
}
);
width = 283;
}
);
leftKerningGroup = i;
rightKerningGroup = i;
unicode = 0131;
},
{
glyphname = j;
lastChange = "2017-05-20 10:52:14 +0000";
layers = (
{
background = {
paths = (
{
closed = 1;
nodes = (
"65 481 OFFCURVE",
"177 463 OFFCURVE",
"195 450 CURVE",
"193 433 OFFCURVE",
"135 122 OFFCURVE",
"154 60 CURVE",
"169 60 OFFCURVE",
"192 67 OFFCURVE",
"208 72 CURVE",
"212 26 LINE",
"196 14 OFFCURVE",
"163 -1 OFFCURVE",
"145 -4 CURVE",
"99 -5 OFFCURVE",
"64 11 OFFCURVE",
"42 27 CURVE SMOOTH",
"15 47 OFFCURVE",
"56 311 OFFCURVE",
"74 406 CURVE",
"32 433 LINE",
"45 476 LINE"
);
}
);
};
components = (
{
name = jdotless;
},
{
name = dotaccentcomb;
transform = "{1, 0, 0, 1, -176, 28}";
}
);
guideLines = (
{
alignment = center;
angle = -12;
position = "{223, 497}";
},
{
angle = -103;
position = "{12, 345}";
}
);
layerId = "71FD7A9F-05F5-4D76-8D4F-547475A05E4C";
width = 259;
},
{
background = {
paths = (
{
closed = 1;
nodes = (
"65 481 OFFCURVE",
"177 463 OFFCURVE",
"195 450 CURVE",
"193 433 OFFCURVE",
"135 122 OFFCURVE",
"154 60 CURVE",
"169 60 OFFCURVE",
"192 67 OFFCURVE",
"208 72 CURVE",
"212 26 LINE",
"196 14 OFFCURVE",
"163 -1 OFFCURVE",
"145 -4 CURVE",
"99 -5 OFFCURVE",
"64 11 OFFCURVE",
"42 27 CURVE SMOOTH",
"15 47 OFFCURVE",
"56 311 OFFCURVE",
"74 406 CURVE",
"32 433 LINE",
"45 476 LINE"
);
}
);
};
components = (
{
name = jdotless;
},
{
name = dotaccentcomb;
transform = "{1, 0, 0, 1, -156, 22}";
}
);
guideLines = (
{
alignment = center;
angle = -12;
position = "{223, 497}";
},
{
angle = -103;
position = "{12, 345}";
},
{
position = "{270, 742}";
}
);
layerId = "977FCFA9-45AC-4A33-B2D7-4D17E6BBF8E0";
width = 244;
}
);
leftKerningGroup = j;
rightKerningGroup = g;
unicode = 006A;
},
{
glyphname = jdotless;
lastChange = "2017-05-20 11:36:52 +0000";
layers = (
{
anchors = (
{
name = bottom;
position = "{106, 0}";
},
{
name = top;
position = "{138, 508}";
}
);
background = {
components = (
{
name = _part.stem;
transform = "{1, 0, 0, 1, 18, 0}";
}
);
};
guideLines = (
{
position = "{418, 715}";
}
);
layerId = "71FD7A9F-05F5-4D76-8D4F-547475A05E4C";
paths = (
{
closed = 1;
nodes = (
"147 486 OFFCURVE",
"69 481 OFFCURVE",
"38 477 CURVE",
"34 440 LINE",
"108 420 LINE",
"101 287 OFFCURVE",
"92 109 OFFCURVE",
"84 28 CURVE SMOOTH",
"73 -87 OFFCURVE",
"41 -142 OFFCURVE",
"-12 -195 CURVE",
"9 -231 LINE",
"97 -173 OFFCURVE",
"141 -101 OFFCURVE",
"157 83 CURVE SMOOTH",
"164 163 OFFCURVE",
"169 209 OFFCURVE",
"177 281 CURVE SMOOTH",
"183 338 OFFCURVE",
"192 403 OFFCURVE",
"203 480 CURVE"
);
}
);
width = 259;
},
{
anchors = (
{
name = bottom;
position = "{116, 0}";
},
{
name = top;
position = "{163, 537}";
}
);
background = {
components = (
{
name = i;
transform = "{1, 0, 0, 1, 0, -1}";
}
);
};
guideLines = (
{
position = "{270, 742}";
}
);
layerId = "977FCFA9-45AC-4A33-B2D7-4D17E6BBF8E0";
paths = (
{
closed = 1;
nodes = (
"162 490 OFFCURVE",
"68 481 OFFCURVE",
"37 475 CURVE",
"30 426 LINE",
"95 403 LINE",
"85 224 OFFCURVE",
"71 116 OFFCURVE",
"63 31 CURVE SMOOTH",
"55 -54 OFFCURVE",
"30 -136 OFFCURVE",
"-21 -193 CURVE",
"7 -242 LINE",
"98 -193 OFFCURVE",
"160 -93 OFFCURVE",
"181 97 CURVE SMOOTH",
"189 165 OFFCURVE",
"197 231 OFFCURVE",
"205 296 CURVE SMOOTH",
"213 358 OFFCURVE",
"221 419 OFFCURVE",
"229 480 CURVE"
);
}
);
width = 244;
}
);
leftKerningGroup = j;
rightKerningGroup = g;
unicode = 0237;
},
{
glyphname = k;
lastChange = "2017-05-20 11:37:19 +0000";
layers = (
{
anchors = (
{
name = bottom;
position = "{198, 0}";
},
{
name = top;
position = "{248, 480}";
}
);
background = {
components = (
{
name = n;
transform = "{1, 0, 0, 1, -22, 0}";
}
);
};
components = (
{
name = _part.stem_ascender;
transform = "{1, 0, 0, 1, 8, 0}";
}
);
layerId = "71FD7A9F-05F5-4D76-8D4F-547475A05E4C";
paths = (
{
closed = 1;
nodes = (
"108 0 LINE",
"128 139 OFFCURVE",
"249 380 OFFCURVE",
"288 423 CURVE",
"331 425 OFFCURVE",
"368 399 OFFCURVE",
"364 348 CURVE SMOOTH",
"356 257 OFFCURVE",
"306 213 OFFCURVE",
"238 205 CURVE",
"227 187 LINE",
"254 99 OFFCURVE",
"280 30 OFFCURVE",
"309 -5 CURVE",
"358 2 OFFCURVE",
"400 14 OFFCURVE",
"444 33 CURVE",
"438 74 LINE",
"359 64 LINE",
"344 78 OFFCURVE",
"313 129 OFFCURVE",
"293 181 CURVE",
"366 189 OFFCURVE",
"426 261 OFFCURVE",
"437 345 CURVE SMOOTH",
"451 453 OFFCURVE",
"384 498 OFFCURVE",
"268 479 CURVE",
"216 421 OFFCURVE",
"129 235 OFFCURVE",
"99 75 CURVE"
);
}
);
width = 463;
},
{
anchors = (
{
name = bottom;
position = "{240, 0}";
},
{
name = top;
position = "{316, 740}";
}
);
background = {
components = (
{
name = n;
transform = "{1, 0, 0, 1, -16, 0}";
}
);
};
components = (
{
name = _part.stem_ascender;
transform = "{1, 0, 0, 1, 32, 0}";
}
);
layerId = "977FCFA9-45AC-4A33-B2D7-4D17E6BBF8E0";
paths = (
{
closed = 1;
nodes = (
"174 73 LINE",
"218 230 OFFCURVE",
"270 338 OFFCURVE",
"308 381 CURVE",
"342 385 OFFCURVE",
"366 372 OFFCURVE",
"359 310 CURVE SMOOTH",
"354 268 OFFCURVE",
"335 215 OFFCURVE",
"267 210 CURVE",
"249 170 LINE",
"287 68 OFFCURVE",
"297 30 OFFCURVE",
"326 -5 CURVE",
"380 -6 OFFCURVE",
"465 14 OFFCURVE",
"509 33 CURVE",
"499 90 LINE",
"438 85 LINE",
"423 99 OFFCURVE",
"398 122 OFFCURVE",
"362 174 CURVE",
"454 199 OFFCURVE",
"483 262 OFFCURVE",
"490 329 CURVE SMOOTH",
"501 433 OFFCURVE",
"453 510 OFFCURVE",
"298 480 CURVE",
"231 396 OFFCURVE",
"186 261 OFFCURVE",
"132 96 CURVE"
);
}
);
width = 521;
},
{
anchors = (
{
name = bottom;
position = "{279, 0}";
},
{
name = top;
position = "{279, 480}";
}
);
associatedMasterId = "71FD7A9F-05F5-4D76-8D4F-547475A05E4C";
background = {
components = (
{
name = l;
transform = "{1, 0, 0, 1, 4, 0}";
},
{
name = n;
transform = "{1, 0, 0, 1, -3, 0}";
}
);
};
components = (
{
name = _part.stem_ascender;
transform = "{1, 0, 0, 1, 14, 0}";
}
);
guideLines = (
{
position = "{117, 666}";
},
{
position = "{135, 716}";
},
{
position = "{158, 21}";
},
{
position = "{176, 71}";
},
{
angle = 98;
position = "{535, 183}";
},
{
angle = 85;
position = "{532, 202}";
}
);
layerId = "518150AC-F114-4591-A649-34D0444E196A";
name = old;
paths = (
{
closed = 1;
nodes = (
"260 249 LINE",
"286 158 OFFCURVE",
"338 46 OFFCURVE",
"368 4 CURVE",
"376 0 LINE",
"443 -6 OFFCURVE",
"524 10 OFFCURVE",
"544 21 CURVE",
"549 78 LINE",
"495 82 LINE",
"437 165 OFFCURVE",
"370 255 OFFCURVE",
"347 303 CURVE"
);
},
{
closed = 1;
nodes = (
"326 359 OFFCURVE",
"223 256 OFFCURVE",
"150 168 CURVE",
"188 109 LINE",
"254 185 OFFCURVE",
"413 357 OFFCURVE",
"448 392 CURVE",
"514 409 LINE",
"506 474 LINE",
"282 474 LINE",
"292 410 LINE",
"347 399 LINE"
);
}
);
width = 554;
},
{
anchors = (
{
name = bottom;
position = "{287, 0}";
},
{
name = top;
position = "{287, 480}";
}
);
associatedMasterId = "71FD7A9F-05F5-4D76-8D4F-547475A05E4C";
background = {
components = (
{
name = l;
transform = "{1, 0, 0, 1, 12, 0}";
}
);
paths = (
{
closed = 1;
nodes = (
"275 270 LINE",
"317 145 OFFCURVE",
"375 36 OFFCURVE",
"405 -3 CURVE",
"478 -13 OFFCURVE",
"521 8 OFFCURVE",
"541 21 CURVE",
"536 59 LINE",
"480 59 LINE",
"443 107 OFFCURVE",
"349 219 OFFCURVE",
"317 294 CURVE"
);
},
{
closed = 1;
nodes = (
"355 388 OFFCURVE",
"246 260 OFFCURVE",
"168 174 CURVE",
"177 120 LINE",
"244 196 OFFCURVE",
"394 351 OFFCURVE",
"427 388 CURVE SMOOTH",
"445 408 OFFCURVE",
"481 438 OFFCURVE",
"512 439 CURVE",
"516 480 LINE",
"300 480 LINE",
"296 438 LINE",
"376 428 LINE"
);
}
);
};
components = (
{
name = _part.stem_ascender;
transform = "{1, 0, 0, 1, 11, 0}";
}
);
guideLines = (
{
position = "{125, 666}";
},
{
position = "{143, 716}";
},
{
position = "{166, 21}";
},
{
position = "{184, 71}";
},
{
position = "{178, 470}";
},
{
position = "{191, 480}";
},
{
angle = 85;
position = "{547, 202}";
}
);
layerId = "5AE3D0A9-046D-4866-B4A2-13AFFBC14F92";
name = old;
paths = (
{
closed = 1;
nodes = (
"275 270 LINE",
"303 174 OFFCURVE",
"375 34 OFFCURVE",
"405 -5 CURVE",
"449 -3 OFFCURVE",
"488 4 OFFCURVE",
"532 18 CURVE",
"535 61 LINE",
"475 61 LINE",
"438 109 OFFCURVE",
"352 219 OFFCURVE",
"317 294 CURVE"
);
},
{
closed = 1;
nodes = (
"354 377 OFFCURVE",
"246 260 OFFCURVE",
"168 174 CURVE",
"177 120 LINE",
"244 196 OFFCURVE",
"423 378 OFFCURVE",
"456 415 CURVE",
"506 424 LINE",
"502 470 LINE",
"289 470 LINE",
"295 424 LINE",
"375 417 LINE"
);
}
);
width = 535;
}
);
leftKerningGroup = l;
leftMetricsKey = l;
rightKerningGroup = i;
unicode = 006B;
},
{
glyphname = l;
lastChange = "2017-05-20 10:52:14 +0000";
layers = (
{
anchors = (
{
name = bottom;
position = "{92, 0}";
},
{
name = center;
position = "{124, 370}";
},
{
name = top;
position = "{161, 710}";
},
{
name = topright;
position = "{224, 480}";
}
);
background = {
components = (
{
name = _part.stem_ascender;
transform = "{1, 0, 0, 1, 11, 0}";
}
);
};
guideLines = (
{
angle = -103;
position = "{25, 624}";
}
);
layerId = "71FD7A9F-05F5-4D76-8D4F-547475A05E4C";
paths = (
{
closed = 1;
nodes = (
"119 2 OFFCURVE",
"202 26 OFFCURVE",
"223 37 CURVE",
"215 79 LINE",
"139 70 LINE",
"134 128 OFFCURVE",
"137 213 OFFCURVE",
"166 433 CURVE SMOOTH",
"177 518 OFFCURVE",
"183 542 OFFCURVE",
"215 741 CURVE",
"188 749 OFFCURVE",
"86 744 OFFCURVE",
"57 739 CURVE",
"53 702 LINE",
"119 684 LINE",
"120 614 OFFCURVE",
"110 517 OFFCURVE",
"92 355 CURVE SMOOTH",
"72 178 OFFCURVE",
"42 20 OFFCURVE",
"71 -5 CURVE"
);
}
);
width = 249;
},
{
anchors = (
{
name = bottom;
position = "{120, 0}";
},
{
name = center;
position = "{130, 370}";
},
{
name = top;
position = "{177, 740}";
},
{
name = topright;
position = "{252, 480}";
}
);
guideLines = (
{
angle = -103;
position = "{53, 624}";
}
);
layerId = "977FCFA9-45AC-4A33-B2D7-4D17E6BBF8E0";
paths = (
{
closed = 1;
nodes = (
"122 -10 OFFCURVE",
"214 16 OFFCURVE",
"252 35 CURVE",
"244 92 LINE",
"177 86 LINE",
"173 156 OFFCURVE",
"179 235 OFFCURVE",
"203 433 CURVE SMOOTH",
"214 522 OFFCURVE",
"226 579 OFFCURVE",
"253 740 CURVE",
"226 749 OFFCURVE",
"74 744 OFFCURVE",
"45 737 CURVE",
"38 688 LINE",
"102 666 LINE",
"101 596 OFFCURVE",
"89 474 OFFCURVE",
"72 312 CURVE SMOOTH",
"55 150 OFFCURVE",
"33 52 OFFCURVE",
"67 -6 CURVE"
);
}
);
width = 264;
}
);
leftKerningGroup = l;
rightKerningGroup = i;
unicode = 006C;
},
{
glyphname = m;
lastChange = "2017-05-20 12:19:48 +0000";
layers = (
{
anchors = (
{
name = bottom;
position = "{346, 0}";
},
{
name = top;
position = "{396, 480}";
}
);
background = {
components = (
{
name = n;
transform = "{1, 0, 0, 1, 247, 0}";
}
);
};
components = (
{
name = _part.stem;
transform = "{1, 0, 0, 1, 22, 0}";
},
{
name = _part.bow;
transform = "{0.9707, 0, 0, 1, 287, 0}";
}
);
guideLines = (
{
angle = -18;
position = "{-81, 0}";
},
{
position = "{1104, 369}";
},
{
position = "{266, 393}";
},
{
position = "{187, 87}";
},
{
position = "{-331, 225}";
}
);
layerId = "71FD7A9F-05F5-4D76-8D4F-547475A05E4C";
paths = (
{
closed = 1;
nodes = (
"152 128 OFFCURVE",
"234 325 OFFCURVE",
"306 423 CURVE",
"354 431 OFFCURVE",
"363 400 OFFCURVE",
"356 348 CURVE SMOOTH",
"340 229 OFFCURVE",
"331 135 OFFCURVE",
"310 16 CURVE",
"317 3 OFFCURVE",
"351 -3 OFFCURVE",
"377 -3 CURVE",
"385 57 OFFCURVE",
"392 116 OFFCURVE",
"400 176 CURVE",
"385 176 LINE",
"398 247 OFFCURVE",
"405 296 OFFCURVE",
"413 342 CURVE SMOOTH",
"434 463 OFFCURVE",
"406 506 OFFCURVE",
"283 478 CURVE",
"235 428 OFFCURVE",
"138 196 OFFCURVE",
"122 78 CURVE",
"130 -2 LINE"
);
}
);
width = 761;
},
{
anchors = (
{
name = bottom;
position = "{355, 0}";
},
{
name = top;
position = "{405, 480}";
}
);
background = {
components = (
{
name = n;
transform = "{1, 0, 0, 1, 259, 0}";
}
);
};
components = (
{
name = _part.stem;
transform = "{1, 0, 0, 1, 32, 0}";
},
{
name = _part.bow;
transform = "{1, 0, 0, 1, 285, 0}";
}
);
guideLines = (
{
angle = -18;
position = "{-72, 0}";
},
{
position = "{1113, 369}";
},
{
position = "{203, 230}";
}
);
layerId = "977FCFA9-45AC-4A33-B2D7-4D17E6BBF8E0";
paths = (
{
closed = 1;
nodes = (
"196 165 OFFCURVE",
"267 316 OFFCURVE",
"317 374 CURVE",
"346 378 OFFCURVE",
"356 365 OFFCURVE",
"353 347 CURVE SMOOTH",
"321 161 OFFCURVE",
"308 92 OFFCURVE",
"297 26 CURVE",
"325 8 OFFCURVE",
"409 -10 OFFCURVE",
"424 -2 CURVE",
"428 26 OFFCURVE",
"455 173 OFFCURVE",
"459 240 CURVE",
"438 242 LINE",
"447 281 OFFCURVE",
"454 306 OFFCURVE",
"464 355 CURVE SMOOTH",
"492 490 OFFCURVE",
"389 500 OFFCURVE",
"305 480 CURVE",
"241 399 OFFCURVE",
"178 221 OFFCURVE",
"153 100 CURVE",
"165 0 LINE"
);
}
);
width = 783;
}
);
leftKerningGroup = i;
leftMetricsKey = n;
rightKerningGroup = n;
unicode = 006D;
},
{
glyphname = n;
lastChange = "2017-05-20 10:52:14 +0000";
layers = (
{
anchors = (
{
name = bottom;
position = "{248, 0}";
},
{
name = top;
position = "{283, 480}";
}
);
background = {
components = (
{
name = _part.bowl;
transform = "{1, 0, 0, 1, 54, 0}";
}
);
};
components = (
{
name = _part.bow;
transform = "{1, 0, 0, 1, 29, 0}";
},
{
name = _part.stem;
transform = "{1, 0, 0, 1, 32, 0}";
}
);
guideLines = (
{
angle = -12;
position = "{368, 29}";
},
{
position = "{893, 369}";
},
{
position = "{203, 230}";
}
);
layerId = "977FCFA9-45AC-4A33-B2D7-4D17E6BBF8E0";
width = 531;
},
{
anchors = (
{
name = bottom;
position = "{236, 0}";
},
{
name = top;
position = "{283, 508}";
}
);
background = {
components = (
{
name = u;
transform = "{-1, 0, 0, -1, 510, 479}";
}
);
};
components = (
{
name = _part.bow;
transform = "{1, 0, 0, 1, 37, 0}";
},
{
name = _part.stem;
transform = "{1, 0, 0, 1, 22, 0}";
}
);
guideLines = (
{
angle = -12;
position = "{356, 29}";
},
{
position = "{881, 369}";
},
{
position = "{177, 87}";
},
{
position = "{414, 715}";
}
);
layerId = "71FD7A9F-05F5-4D76-8D4F-547475A05E4C";
width = 505;
},
{
anchors = (
{
name = bottom;
position = "{236, 0}";
},
{
name = top;
position = "{283, 508}";
}
);
associatedMasterId = "71FD7A9F-05F5-4D76-8D4F-547475A05E4C";
background = {
paths = (
{
closed = 1;
nodes = (
"-8 46 LINE",
"-16 0 LINE",
"194 0 LINE",
"203 46 LINE",
"134 55 LINE",
"94 55 LINE"
);
},
{
closed = 1;
nodes = (
"131 58 OFFCURVE",
"148 207 OFFCURVE",
"166 377 CURVE",
"163 395 LINE",
"164 417 OFFCURVE",
"166 444 OFFCURVE",
"168 481 CURVE",
"122 478 OFFCURVE",
"72 473 OFFCURVE",
"23 463 CURVE",
"24 421 LINE",
"85 418 LINE",
"88 357 OFFCURVE",
"69 220 OFFCURVE",
"56 96 CURVE SMOOTH",
"52 58 OFFCURVE",
"93 40 OFFCURVE",
"145 40 CURVE"
);
},
{
closed = 1;
nodes = (
"158 369 LINE",
"222 387 OFFCURVE",
"285 401 OFFCURVE",
"333 414 CURVE",
"365 414 OFFCURVE",
"379 399 OFFCURVE",
"374 348 CURVE SMOOTH",
"355 164 LINE SMOOTH",
"344 56 OFFCURVE",
"343 22 OFFCURVE",
"351 2 CURVE",
"358 -2 LINE",
"403 0 OFFCURVE",
"443 6 OFFCURVE",
"493 16 CURVE",
"501 59 LINE",
"430 62 LINE",
"424 125 OFFCURVE",
"448 290 OFFCURVE",
"456 369 CURVE SMOOTH",
"465 454 OFFCURVE",
"429 484 OFFCURVE",
"350 484 CURVE",
"283 454 OFFCURVE",
"195 422 OFFCURVE",
"161 406 CURVE"
);
}
);
};
components = (
{
name = _part.bow;
transform = "{1, 0, 0, 1, 26, 0}";
},
{
name = _part.stem;
transform = "{1, 0, 0, 1, 11, 0}";
}
);
guideLines = (
{
angle = -12;
position = "{356, 29}";
},
{
position = "{881, 369}";
},
{
position = "{177, 87}";
},
{
position = "{414, 715}";
}
);
layerId = "202BA07C-97FC-45E4-B264-0B8833650D43";
name = "Apr 22 17, 16:25";
width = 505;
}
);
leftKerningGroup = i;
rightKerningGroup = n;
unicode = 006E;
},
{
glyphname = eng;
lastChange = "2017-05-20 11:39:13 +0000";
layers = (
{
anchors = (
{
name = bottom;
position = "{208, 0}";
},
{
name = top;
position = "{258, 480}";
}
);
background = {
components = (
{
name = n;
transform = "{1, 0, 0, 1, -7, 0}";
}
);
};
components = (
{
name = _part.stem;
transform = "{1, 0, 0, 1, 15, 0}";
}
);
layerId = "71FD7A9F-05F5-4D76-8D4F-547475A05E4C";
paths = (
{
closed = 1;
nodes = (
"123 -2 LINE",
"169 192 OFFCURVE",
"255 359 OFFCURVE",
"306 421 CURVE",
"336 424 OFFCURVE",
"372 413 OFFCURVE",
"366 356 CURVE SMOOTH",
"353 235 OFFCURVE",
"338 128 OFFCURVE",
"323 -5 CURVE SMOOTH",
"310 -123 OFFCURVE",
"224 -120 OFFCURVE",
"181 -106 CURVE",
"173 -158 LINE",
"286 -184 OFFCURVE",
"385 -143 OFFCURVE",
"398 -5 CURVE SMOOTH",
"402 36 OFFCURVE",
"426 264 OFFCURVE",
"436 366 CURVE SMOOTH",
"444 449 OFFCURVE",
"408 500 OFFCURVE",
"280 478 CURVE",
"225 422 OFFCURVE",
"129 177 OFFCURVE",
"114 78 CURVE"
);
}
);
width = 495;
},
{
anchors = (
{
name = bottom;
position = "{229, 0}";
},
{
name = top;
position = "{279, 480}";
}
);
background = {
components = (
{
name = n;
transform = "{1, 0, 0, 1, -5, 0}";
}
);
};
components = (
{
name = _part.stem;
transform = "{1, 0, 0, 1, 27, 0}";
}
);
layerId = "977FCFA9-45AC-4A33-B2D7-4D17E6BBF8E0";
paths = (
{
closed = 1;
nodes = (
"160 -3 LINE",
"197 195 OFFCURVE",
"279 336 OFFCURVE",
"316 375 CURVE",
"338 377 OFFCURVE",
"365 372 OFFCURVE",
"359 326 CURVE SMOOTH",
"341 187 OFFCURVE",
"336 121 OFFCURVE",
"319 -8 CURVE SMOOTH",
"307 -102 OFFCURVE",
"266 -110 OFFCURVE",
"206 -100 CURVE",
"198 -163 LINE",
"397 -200 OFFCURVE",
"432 -95 OFFCURVE",
"444 16 CURVE SMOOTH",
"460 164 OFFCURVE",
"469 267 OFFCURVE",
"480 362 CURVE SMOOTH",
"492 468 OFFCURVE",
"393 499 OFFCURVE",
"301 481 CURVE",
"247 411 OFFCURVE",
"182 268 OFFCURVE",
"149 97 CURVE"
);
}
);
width = 536;
}
);
leftKerningGroup = i;
rightKerningGroup = n;
unicode = 014B;
},
{
glyphname = o;
lastChange = "2017-05-20 12:12:41 +0000";
layers = (
{
anchors = (
{
name = bottom;
position = "{202, 0}";
},
{
name = center;
position = "{227, 240}";
},
{
name = ogonek;
position = "{384, 10}";
},
{
name = top;
position = "{254, 508}";
},
{
name = topright;
position = "{460, 480}";
}
);
layerId = "71FD7A9F-05F5-4D76-8D4F-547475A05E4C";
paths = (
{
closed = 1;
nodes = (
"456 224 OFFCURVE",
"403 386 CURVE SMOOTH",
"383 447 OFFCURVE",
"332 488 OFFCURVE",
"268 488 CURVE SMOOTH",
"101 488 OFFCURVE",
"1 268 OFFCURVE",
"49 100 CURVE SMOOTH",
"66 35 OFFCURVE",
"119 -8 OFFCURVE",
"191 -8 CURVE SMOOTH",
"353 -8 OFFCURVE"
);
},
{
closed = 1;
nodes = (
"196 36 OFFCURVE",
"147 66 OFFCURVE",
"127 132 CURVE SMOOTH",
"94 242 OFFCURVE",
"133 414 OFFCURVE",
"235 442 CURVE",
"214 461 OFFCURVE",
"197 461 OFFCURVE",
"190 426 CURVE",
"244 446 OFFCURVE",
"304 418 OFFCURVE",
"324 354 CURVE SMOOTH",
"360 243 OFFCURVE",
"325 71 OFFCURVE",
"217 36 CURVE",
"241 18 OFFCURVE",
"257 19 OFFCURVE",
"264 53 CURVE"
);
}
);
width = 453;
},
{
anchors = (
{
name = bottom;
position = "{198, 0}";
},
{
name = center;
position = "{223, 240}";
},
{
name = ogonek;
position = "{380, 10}";
},
{
name = top;
position = "{249, 480}";
},
{
name = topright;
position = "{456, 480}";
}
);
background = {
anchors = (
{
name = bottom;
position = "{197, 0}";
},
{
name = center;
position = "{222, 240}";
},
{
name = ogonek;
position = "{379, 10}";
},
{
name = top;
position = "{244, 480}";
},
{
name = topright;
position = "{455, 480}";
}
);
paths = (
{
closed = 1;
nodes = (
"476 214 OFFCURVE",
"419 389 CURVE SMOOTH",
"399 451 OFFCURVE",
"352 493 OFFCURVE",
"266 493 CURVE SMOOTH",
"82 493 OFFCURVE",
"-21 279 OFFCURVE",
"28 99 CURVE SMOOTH",
"46 33 OFFCURVE",
"96 -12 OFFCURVE",
"187 -11 CURVE SMOOTH",
"356 -9 OFFCURVE"
);
},
{
closed = 1;
nodes = (
"203 87 OFFCURVE",
"169 123 OFFCURVE",
"156 168 CURVE SMOOTH",
"135 242 OFFCURVE",
"161 374 OFFCURVE",
"230 393 CURVE",
"200 382 LINE",
"235 396 OFFCURVE",
"276 359 OFFCURVE",
"290 317 CURVE SMOOTH",
"315 242 OFFCURVE",
"289 111 OFFCURVE",
"217 87 CURVE",
"247 100 LINE"
);
}
);
};
layerId = "977FCFA9-45AC-4A33-B2D7-4D17E6BBF8E0";
paths = (
{
closed = 1;
nodes = (
"478 214 OFFCURVE",
"421 389 CURVE SMOOTH",
"401 451 OFFCURVE",
"354 493 OFFCURVE",
"268 493 CURVE SMOOTH",
"78 493 OFFCURVE",
"-20 284 OFFCURVE",
"30 99 CURVE SMOOTH",
"48 33 OFFCURVE",
"98 -12 OFFCURVE",
"189 -11 CURVE SMOOTH",
"366 -9 OFFCURVE"
);
},
{
closed = 1;
nodes = (
"205 70 OFFCURVE",
"171 116 OFFCURVE",
"158 167 CURVE SMOOTH",
"139 243 OFFCURVE",
"163 384 OFFCURVE",
"232 403 CURVE",
"215 429 OFFCURVE",
"204 430 OFFCURVE",
"202 395 CURVE",
"237 409 OFFCURVE",
"280 366 OFFCURVE",
"295 317 CURVE SMOOTH",
"318 241 OFFCURVE",
"288 95 OFFCURVE",
"216 71 CURVE",
"240 37 OFFCURVE",
"250 42 OFFCURVE",
"249 83 CURVE"
);
}
);
width = 452;
}
);
leftKerningGroup = o;
rightKerningGroup = o;
unicode = 006F;
},
{
glyphname = oslash;
lastChange = "2017-05-20 13:13:50 +0000";
layers = (
{
components = (
{
name = o;
},
{
name = slashlongcomb;
transform = "{1, 0, 0, 1, -47, -124}";
}
);
layerId = "71FD7A9F-05F5-4D76-8D4F-547475A05E4C";
width = 453;
},
{
components = (
{
name = o;
},
{
name = slashlongcomb;
transform = "{1, 0, 0, 1, -51, -124}";
}
);
layerId = "977FCFA9-45AC-4A33-B2D7-4D17E6BBF8E0";
width = 452;
},
{
anchors = (
{
name = _center;
position = "{227, 240}";
}
);
associatedMasterId = "71FD7A9F-05F5-4D76-8D4F-547475A05E4C";
components = (
{
name = o;
}
);
layerId = "4BA6B979-9D82-4523-9503-D3419A836DCE";
name = "Light [110]";
paths = (
{
closed = 1;
nodes = (
"93 82 LINE",
"59 32 OFFCURVE",
"25 -15 OFFCURVE",
"-7 -55 CURVE",
"46 -84 LINE",
"61 -75 LINE",
"84 -37 OFFCURVE",
"111 6 OFFCURVE",
"139 52 CURVE"
);
},
{
closed = 1;
nodes = (
"357 391 LINE",
"393 445 OFFCURVE",
"428 497 OFFCURVE",
"460 541 CURVE",
"410 564 LINE",
"394 555 LINE",
"370 516 OFFCURVE",
"342 470 OFFCURVE",
"312 422 CURVE"
);
}
);
width = 453;
},
{
anchors = (
{
name = _center;
position = "{223, 240}";
}
);
associatedMasterId = "977FCFA9-45AC-4A33-B2D7-4D17E6BBF8E0";
components = (
{
name = o;
}
);
layerId = "0F5E500E-890B-4398-B365-6A820F352535";
name = "Bold [110]";
paths = (
{
closed = 1;
nodes = (
"112 128 LINE",
"69 60 OFFCURVE",
"27 -4 OFFCURVE",
"-12 -56 CURVE",
"61 -91 LINE",
"75 -82 LINE",
"103 -34 OFFCURVE",
"136 24 OFFCURVE",
"173 85 CURVE"
);
},
{
closed = 1;
nodes = (
"338 355 LINE",
"378 420 OFFCURVE",
"418 482 OFFCURVE",
"454 534 CURVE",
"383 563 LINE",
"368 554 LINE",
"340 506 OFFCURVE",
"307 449 OFFCURVE",
"271 389 CURVE"
);
}
);
width = 452;
}
);
leftKerningGroup = o;
rightKerningGroup = o;
unicode = 00F8;
},
{
glyphname = p;
lastChange = "2017-05-20 10:57:09 +0000";
layers = (
{
anchors = (
{
name = bottom;
position = "{218, 0}";
},
{
name = top;
position = "{268, 480}";
}
);
background = {
components = (
{
name = n;
transform = "{1, 0, 0, 1, -16, 0}";
}
);
};
components = (
{
name = _part.bowl;
transform = "{1, 0, 0, 1, 21, 0}";
}
);
guideLines = (
{
angle = -18;
position = "{751, -224}";
},
{
position = "{1107, 137}";
},
{
position = "{1293, 251}";
}
);
layerId = "71FD7A9F-05F5-4D76-8D4F-547475A05E4C";
paths = (
{
closed = 1;
nodes = (
"121 178 LINE",
"161 430 OFFCURVE",
"176 464 OFFCURVE",
"178 479 CURVE",
"148 489 OFFCURVE",
"43 481 OFFCURVE",
"32 476 CURVE",
"28 440 LINE",
"90 421 LINE",
"90 363 OFFCURVE",
"87 301 OFFCURVE",
"74 195 CURVE SMOOTH",
"48 -14 OFFCURVE",
"20 -169 OFFCURVE",
"16 -213 CURVE",
"31 -222 OFFCURVE",
"68 -234 OFFCURVE",
"93 -232 CURVE",
"95 -116 OFFCURVE",
"106 -21 OFFCURVE",
"132 176 CURVE"
);
}
);
width = 475;
},
{
anchors = (
{
name = bottom;
position = "{260, 0}";
},
{
name = top;
position = "{310, 480}";
}
);
background = {
components = (
{
name = d;
transform = "{-1, 0, 0, -1, 507, 482}";
}
);
};
components = (
{
name = _part.bowl;
transform = "{1, 0, 0, 1, 23, 0}";
piece = {
"b/q?" = 0;
};
}
);
guideLines = (
{
angle = -18;
position = "{793, -224}";
},
{
angle = 78;
position = "{66, 445}";
}
);
layerId = "977FCFA9-45AC-4A33-B2D7-4D17E6BBF8E0";
paths = (
{
closed = 1;
nodes = (
"162 131 LINE",
"183 257 OFFCURVE",
"209 382 OFFCURVE",
"223 480 CURVE",
"185 489 OFFCURVE",
"75 486 OFFCURVE",
"36 476 CURVE",
"30 430 LINE",
"90 404 LINE",
"87 316 OFFCURVE",
"85 268 OFFCURVE",
"76 186 CURVE SMOOTH",
"62 56 OFFCURVE",
"39 -107 OFFCURVE",
"24 -211 CURVE",
"52 -225 OFFCURVE",
"123 -238 OFFCURVE",
"156 -234 CURVE",
"160 -93 OFFCURVE",
"159 -36 OFFCURVE",
"164 38 CURVE"
);
}
);
width = 506;
},
{
anchors = (
{
name = bottom;
position = "{280, 0}";
},
{
name = top;
position = "{280, 480}";
}
);
associatedMasterId = "71FD7A9F-05F5-4D76-8D4F-547475A05E4C";
background = {
anchors = (
{
name = _connect;
position = "{234, 2}";
}
);
};
guideLines = (
{
position = "{170, 407}";
},
{
position = "{188, 457}";
}
);
layerId = "9F53F523-309F-4B20-95C9-BBB6F7844458";
name = "black test";
paths = (
{
closed = 1;
nodes = (
"252 -119 OFFCURVE",
"253 -84 OFFCURVE",
"253 97 CURVE SMOOTH",
"253 233 OFFCURVE",
"253 326 OFFCURVE",
"252 388 CURVE",
"252 394 OFFCURVE",
"243 400 OFFCURVE",
"243 406 CURVE",
"240 437 OFFCURVE",
"239 468 OFFCURVE",
"235 480 CURVE",
"216 485 OFFCURVE",
"91 496 OFFCURVE",
"4 459 CURVE",
"13 383 LINE",
"70 383 LINE",
"79 302 OFFCURVE",
"76 305 OFFCURVE",
"76 -119 CURVE SMOOTH",
"76 -147 OFFCURVE",
"121 -161 OFFCURVE",
"142 -163 CURVE SMOOTH",
"169 -166 OFFCURVE",
"223 -174 OFFCURVE",
"258 -174 CURVE"
);
},
{
closed = 1;
nodes = (
"9 -165 LINE",
"6 -250 LINE",
"325 -250 LINE",
"329 -164 LINE",
"252 -154 LINE",
"175 -154 LINE"
);
},
{
closed = 1;
nodes = (
"196 296 LINE",
"206 302 OFFCURVE",
"214 340 OFFCURVE",
"277 359 CURVE",
"338 345 OFFCURVE",
"351 294 OFFCURVE",
"351 227 CURVE SMOOTH",
"351 169 OFFCURVE",
"338 133 OFFCURVE",
"293 105 CURVE",
"250 106 OFFCURVE",
"234 121 OFFCURVE",
"197 151 CURVE",
"163 118 LINE",
"189 92 OFFCURVE",
"243 19 OFFCURVE",
"320 -3 CURVE",
"595 19 OFFCURVE",
"620 474 OFFCURVE",
"350 484 CURVE",
"306 474 OFFCURVE",
"195 379 OFFCURVE",
"169 357 CURVE"
);
}
);
width = 567;
}
);
rightKerningGroup = o;
rightMetricsKey = o;
unicode = 0070;
},
{
glyphname = thorn;
lastChange = "2017-05-20 11:10:47 +0000";
layers = (
{
anchors = (
{
name = bottom;
position = "{215, 0}";
},
{
name = top;
position = "{265, 480}";
}
);
background = {
components = (
{
name = p;
transform = "{1, 0, 0, 1, -19, 0}";
}
);
};
components = (
{
name = _part.bowl;
transform = "{1, 0, 0, 1, 5, 0}";
}
);
layerId = "71FD7A9F-05F5-4D76-8D4F-547475A05E4C";
paths = (
{
closed = 1;
nodes = (
"117 113 LINE",
"203 733 OFFCURVE",
"205 718 OFFCURVE",
"206 733 CURVE",
"176 743 OFFCURVE",
"63 735 OFFCURVE",
"52 730 CURVE",
"49 694 LINE",
"113 673 LINE",
"112 615 OFFCURVE",
"77 293 OFFCURVE",
"57 139 CURVE SMOOTH",
"30 -70 OFFCURVE",
"14 -165 OFFCURVE",
"10 -209 CURVE",
"25 -218 OFFCURVE",
"73 -234 OFFCURVE",
"98 -232 CURVE",
"100 -116 OFFCURVE",
"109 29 OFFCURVE",
"112 64 CURVE"
);
}
);
width = 469;
},
{
anchors = (
{
name = bottom;
position = "{243, 0}";
},
{
name = top;
position = "{293, 480}";
}
);
background = {
paths = (
{
closed = 1;
nodes = (
"224 355 LINE",
"233 472 OFFCURVE",
"230 448 OFFCURVE",
"275 706 CURVE",
"275 706 LINE",
"217 707 OFFCURVE",
"148 704 OFFCURVE",
"65 700 CURVE",
"58 643 LINE",
"104 634 LINE",
"114 612 OFFCURVE",
"106 481 OFFCURVE",
"101 421 CURVE SMOOTH",
"92 309 OFFCURVE",
"61 109 OFFCURVE",
"65 96 CURVE",
"67 84 OFFCURVE",
"90 70 OFFCURVE",
"124 58 CURVE",
"8 58 LINE",
"3 0 LINE",
"282 0 LINE",
"291 55 LINE",
"235 63 LINE",
"211 100 OFFCURVE",
"213 172 OFFCURVE",
"218 293 CURVE"
);
},
{
closed = 1;
nodes = (
"203 272 LINE",
"237 261 OFFCURVE",
"283 259 OFFCURVE",
"319 264 CURVE",
"565 312 OFFCURVE",
"618 589 OFFCURVE",
"448 670 CURVE SMOOTH",
"393 697 OFFCURVE",
"330 705 OFFCURVE",
"248 706 CURVE",
"240 624 LINE",
"417 651 OFFCURVE",
"463 416 OFFCURVE",
"338 350 CURVE",
"296 348 OFFCURVE",
"250 355 OFFCURVE",
"210 378 CURVE"
);
}
);
};
components = (
{
name = _part.bowl;
transform = "{1, 0, 0, 1, 26, 0}";
piece = {
"b/q?" = 0;
};
}
);
layerId = "977FCFA9-45AC-4A33-B2D7-4D17E6BBF8E0";
paths = (
{
closed = 1;
nodes = (
"156 109 LINE",
"177 235 OFFCURVE",
"227 642 OFFCURVE",
"241 740 CURVE",
"203 749 OFFCURVE",
"83 746 OFFCURVE",
"44 736 CURVE",
"38 690 LINE",
"99 664 LINE",
"98 606 OFFCURVE",
"60 218 OFFCURVE",
"48 128 CURVE SMOOTH",
"29 -15 OFFCURVE",
"11 -161 OFFCURVE",
"4 -211 CURVE",
"32 -225 OFFCURVE",
"106 -238 OFFCURVE",
"139 -234 CURVE",
"150 -93 OFFCURVE",
"153 -36 OFFCURVE",
"160 38 CURVE"
);
}
);
width = 509;
}
);
leftKerningGroup = l;
leftMetricsKey = l;
rightKerningGroup = o;
rightMetricsKey = o;
unicode = 00FE;
},
{
glyphname = q;
lastChange = "2017-05-20 10:57:55 +0000";
layers = (
{
anchors = (
{
name = bottom;
position = "{219, 0}";
},
{
name = top;
position = "{269, 480}";
}
);
background = {
components = (
{
name = a;
transform = "{1, 0, 0, 1, 13, 0}";
}
);
};
components = (
{
name = _part.bowl;
transform = "{-1, 0, 0, -1, 461, 476}";
}
);
guideLines = (
{
position = "{-108, 250}";
}
);
layerId = "71FD7A9F-05F5-4D76-8D4F-547475A05E4C";
paths = (
{
closed = 1;
nodes = (
"304 -231 OFFCURVE",
"327 -231 OFFCURVE",
"351 -232 CURVE",
"367 32 OFFCURVE",
"397 257 OFFCURVE",
"422 403 CURVE SMOOTH",
"438 496 LINE",
"422 506 OFFCURVE",
"407 510 OFFCURVE",
"389 507 CURVE",
"333 282 LINE",
"355 272 LINE",
"270 -182 OFFCURVE",
"337 180 OFFCURVE",
"266 -212 CURVE"
);
}
);
width = 476;
},
{
anchors = (
{
name = bottom;
position = "{234, 0}";
},
{
name = top;
position = "{284, 480}";
}
);
background = {
components = (
{
name = b;
transform = "{-1, 0, 0, -1, 492, 485}";
}
);
};
components = (
{
name = _part.bowl;
transform = "{-1, 0, 0, -1, 449, 480}";
piece = {
"b/q?" = 1;
};
}
);
guideLines = (
{
position = "{-701, 267}";
}
);
layerId = "977FCFA9-45AC-4A33-B2D7-4D17E6BBF8E0";
paths = (
{
closed = 1;
nodes = (
"295 -232 OFFCURVE",
"370 -236 OFFCURVE",
"394 -234 CURVE",
"409 47 OFFCURVE",
"441 283 OFFCURVE",
"466 428 CURVE SMOOTH",
"476 487 LINE",
"450 500 OFFCURVE",
"431 503 OFFCURVE",
"400 503 CURVE",
"361 375 LINE",
"345 364 LINE",
"299 50 OFFCURVE",
"280 -59 OFFCURVE",
"257 -213 CURVE"
);
}
);
width = 500;
}
);
leftKerningGroup = o;
leftMetricsKey = o;
rightKerningGroup = g;
unicode = 0071;
},
{
glyphname = r;
lastChange = "2017-05-20 11:13:05 +0000";
layers = (
{
anchors = (
{
name = bottom;
position = "{59, 0}";
},
{
name = top;
position = "{201, 508}";
}
);
background = {
components = (
{
name = n;
transform = "{1, 0, 0, 1, -20, 0}";
}
);
};
components = (
{
name = _part.stem;
transform = "{1, 0, 0, 1, 2, 0}";
}
);
guideLines = (
{
position = "{-1242, 367}";
},
{
angle = -30;
position = "{229, 371}";
},
{
position = "{419, 715}";
},
{
position = "{2759, 225}";
}
);
layerId = "71FD7A9F-05F5-4D76-8D4F-547475A05E4C";
paths = (
{
closed = 1;
nodes = (
"156 213 OFFCURVE",
"237 348 OFFCURVE",
"283 396 CURVE",
"359 387 LINE",
"370 415 OFFCURVE",
"374 437 OFFCURVE",
"374 471 CURVE",
"343 480 OFFCURVE",
"300 483 OFFCURVE",
"272 483 CURVE",
"212 425 OFFCURVE",
"138 237 OFFCURVE",
"105 105 CURVE",
"110 -2 LINE"
);
}
);
width = 357;
},
{
anchors = (
{
name = bottom;
position = "{103, 0}";
},
{
name = top;
position = "{244, 480}";
}
);
background = {
components = (
{
name = n;
transform = "{1, 0, 0, 1, -6, 0}";
}
);
};
components = (
{
name = _part.stem;
transform = "{1, 0, 0, 1, 27, 0}";
}
);
guideLines = (
{
position = "{-1198, 367}";
},
{
angle = -30;
position = "{273, 371}";
}
);
layerId = "977FCFA9-45AC-4A33-B2D7-4D17E6BBF8E0";
paths = (
{
closed = 1;
nodes = (
"224 218 OFFCURVE",
"297 332 OFFCURVE",
"324 359 CURVE",
"405 338 LINE",
"418 377 OFFCURVE",
"422 432 OFFCURVE",
"423 472 CURVE",
"397 485 OFFCURVE",
"359 489 OFFCURVE",
"317 485 CURVE",
"277 458 OFFCURVE",
"173 224 OFFCURVE",
"134 120 CURVE",
"174 90 LINE"
);
}
);
width = 396;
}
);
leftKerningGroup = i;
note = "     ";
rightKerningGroup = r;
unicode = 0072;
},
{
glyphname = s;
lastChange = "2017-05-20 11:13:51 +0000";
layers = (
{
anchors = (
{
name = bottom;
position = "{155, 0}";
},
{
name = top;
position = "{207, 508}";
}
);
background = {
components = (
{
name = c;
transform = "{1, 0, 0, 1, -15, 0}";
}
);
};
guideLines = (
{
angle = -96;
position = "{17, 308}";
},
{
position = "{-35, -6}";
}
);
layerId = "71FD7A9F-05F5-4D76-8D4F-547475A05E4C";
paths = (
{
closed = 1;
nodes = (
"248 -2 OFFCURVE",
"315 46 OFFCURVE",
"334 133 CURVE SMOOTH",
"350 205 OFFCURVE",
"299 245 OFFCURVE",
"210 282 CURVE SMOOTH",
"67 341 OFFCURVE",
"116 414 OFFCURVE",
"151 435 CURVE",
"196 435 OFFCURVE",
"279 422 OFFCURVE",
"327 393 CURVE",
"335 422 OFFCURVE",
"338 447 OFFCURVE",
"337 469 CURVE",
"309 484 OFFCURVE",
"262 491 OFFCURVE",
"207 489 CURVE SMOOTH",
"127 486 OFFCURVE",
"66 448 OFFCURVE",
"48 364 CURVE SMOOTH",
"33 288 OFFCURVE",
"128 238 OFFCURVE",
"180 216 CURVE SMOOTH",
"324 154 OFFCURVE",
"267 78 OFFCURVE",
"228 50 CURVE",
"147 50 OFFCURVE",
"68 74 OFFCURVE",
"17 106 CURVE",
"10 76 OFFCURVE",
"8 60 OFFCURVE",
"6 36 CURVE",
"32 10 OFFCURVE",
"100 -10 OFFCURVE",
"172 -6 CURVE SMOOTH"
);
}
);
width = 353;
},
{
anchors = (
{
name = bottom;
position = "{190, 0}";
},
{
name = top;
position = "{240, 480}";
}
);
guideLines = (
{
angle = -96;
position = "{52, 308}";
},
{
angle = -96;
position = "{375, 292}";
}
);
hints = (
{
horizontal = 1;
origin = "{0, 34}";
target = "{0, 35}";
},
{
horizontal = 1;
origin = "{0, 0}";
target = "{0, 33}";
},
{
horizontal = 1;
origin = "{0, 32}";
target = "{0, 1}";
},
{
horizontal = 1;
origin = "{0, 31}";
target = "{0, 26}";
},
{
horizontal = 1;
origin = "{0, 27}";
target = "{0, 2}";
},
{
horizontal = 1;
origin = "{0, 30}";
target = "{0, 28}";
},
{
horizontal = 1;
origin = "{0, 25}";
target = "{0, 29}";
},
{
horizontal = 1;
origin = "{0, 24}";
target = "{0, 23}";
},
{
horizontal = 1;
origin = "{0, 3}";
target = "{0, 22}";
},
{
horizontal = 1;
origin = "{0, 4}";
target = "{0, 21}";
},
{
horizontal = 1;
origin = "{0, 5}";
target = "{0, 6}";
},
{
horizontal = 1;
origin = "{0, 11}";
target = "{0, 7}";
},
{
horizontal = 1;
origin = "{0, 20}";
target = "{0, 10}";
},
{
horizontal = 1;
origin = "{0, 8}";
target = "{0, 9}";
},
{
horizontal = 1;
origin = "{0, 12}";
target = "{0, 13}";
},
{
horizontal = 1;
origin = "{0, 19}";
target = "{0, 14}";
},
{
horizontal = 1;
origin = "{0, 18}";
target = "{0, 17}";
},
{
horizontal = 1;
origin = "{0, 15}";
target = "{0, 16}";
}
);
layerId = "977FCFA9-45AC-4A33-B2D7-4D17E6BBF8E0";
paths = (
{
closed = 1;
nodes = (
"249 -11 OFFCURVE",
"329 31 OFFCURVE",
"353 100 CURVE SMOOTH",
"389 202 OFFCURVE",
"333 262 OFFCURVE",
"232 297 CURVE SMOOTH",
"143 328 OFFCURVE",
"150 376 OFFCURVE",
"172 393 CURVE",
"211 395 OFFCURVE",
"283 388 OFFCURVE",
"354 355 CURVE",
"366 397 OFFCURVE",
"373 441 OFFCURVE",
"372 472 CURVE",
"323 493 OFFCURVE",
"270 497 OFFCURVE",
"214 492 CURVE SMOOTH",
"132 485 OFFCURVE",
"75 448 OFFCURVE",
"53 379 CURVE SMOOTH",
"22 284 OFFCURVE",
"72 221 OFFCURVE",
"155 192 CURVE SMOOTH",
"272 151 OFFCURVE",
"241 110 OFFCURVE",
"221 83 CURVE",
"151 87 OFFCURVE",
"74 106 OFFCURVE",
"23 130 CURVE",
"14 101 OFFCURVE",
"7 52 OFFCURVE",
"7 22 CURVE",
"40 -3 OFFCURVE",
"97 -11 OFFCURVE",
"148 -11 CURVE SMOOTH"
);
}
);
width = 400;
}
);
leftKerningGroup = o;
rightKerningGroup = o;
unicode = 0073;
},
{
glyphname = germandbls;
lastChange = "2017-05-20 13:07:51 +0000";
layers = (
{
background = {
anchors = (
{
name = bottom;
position = "{115, 0}";
},
{
name = top;
position = "{165, 480}";
}
);
components = (
{
name = f;
}
);
};
guideLines = (
{
position = "{360, 81}";
},
{
position = "{358, 39}";
}
);
layerId = "71FD7A9F-05F5-4D76-8D4F-547475A05E4C";
paths = (
{
closed = 1;
nodes = (
"430 438 OFFCURVE",
"475 517 OFFCURVE",
"475 589 CURVE SMOOTH",
"475 671 OFFCURVE",
"416 744 OFFCURVE",
"328 744 CURVE SMOOTH",
"197 744 OFFCURVE",
"117 627 OFFCURVE",
"100 480 CURVE",
"28 476 LINE",
"24 437 LINE",
"92 427 LINE",
"85 346 OFFCURVE",
"75 222 OFFCURVE",
"66 88 CURVE SMOOTH",
"59 -13 OFFCURVE",
"56 -106 OFFCURVE",
"4 -162 CURVE",
"-105 -150 LINE",
"-125 -156 LINE",
"-133 -215 LINE",
"-123 -227 OFFCURVE",
"-102 -234 OFFCURVE",
"-77 -234 CURVE SMOOTH",
"-50 -234 OFFCURVE",
"-19 -226 OFFCURVE",
"8 -208 CURVE SMOOTH",
"108 -141 OFFCURVE",
"129 -47 OFFCURVE",
"145 142 CURVE SMOOTH",
"162 346 OFFCURVE",
"167 405 OFFCURVE",
"180 531 CURVE SMOOTH",
"188 606 OFFCURVE",
"213 651 OFFCURVE",
"260 675 CURVE",
"330 685 OFFCURVE",
"399 649 OFFCURVE",
"399 572 CURVE SMOOTH",
"399 507 OFFCURVE",
"348 433 OFFCURVE",
"257 414 CURVE",
"251 404 OFFCURVE",
"249 394 OFFCURVE",
"249 385 CURVE SMOOTH",
"249 346 OFFCURVE",
"297 318 OFFCURVE",
"343 290 CURVE SMOOTH",
"395 259 OFFCURVE",
"442 226 OFFCURVE",
"442 167 CURVE SMOOTH",
"442 97 OFFCURVE",
"399 51 OFFCURVE",
"319 51 CURVE SMOOTH",
"283 51 OFFCURVE",
"244 61 OFFCURVE",
"210 80 CURVE",
"190 40 LINE",
"230 10 OFFCURVE",
"275 -4 OFFCURVE",
"319 -4 CURVE SMOOTH",
"420 -4 OFFCURVE",
"513 70 OFFCURVE",
"513 186 CURVE SMOOTH",
"513 292 OFFCURVE",
"427 340 OFFCURVE",
"320 395 CURVE"
);
}
);
width = 520;
},
{
anchors = (
{
name = bottom;
position = "{202, 0}";
},
{
name = top;
position = "{252, 480}";
}
);
background = {
anchors = (
{
name = bottom;
position = "{93, 0}";
},
{
name = top;
position = "{143, 480}";
}
);
components = (
{
name = f;
}
);
};
guideLines = (
{
position = "{332, 92}";
}
);
layerId = "977FCFA9-45AC-4A33-B2D7-4D17E6BBF8E0";
paths = (
{
closed = 1;
nodes = (
"472 432 OFFCURVE",
"535 530 OFFCURVE",
"535 613 CURVE SMOOTH",
"535 685 OFFCURVE",
"488 747 OFFCURVE",
"381 747 CURVE SMOOTH",
"223 747 OFFCURVE",
"109 648 OFFCURVE",
"93 482 CURVE",
"18 479 LINE",
"12 425 LINE",
"84 414 LINE",
"78 334 OFFCURVE",
"72 225 OFFCURVE",
"63 105 CURVE SMOOTH",
"51 -59 OFFCURVE",
"54 -98 OFFCURVE",
"21 -138 CURVE",
"-85 -126 LINE",
"-115 -139 LINE",
"-123 -217 LINE",
"-114 -236 OFFCURVE",
"-91 -247 OFFCURVE",
"-60 -247 CURVE SMOOTH",
"-24 -247 OFFCURVE",
"23 -231 OFFCURVE",
"67 -191 CURVE SMOOTH",
"154 -113 OFFCURVE",
"175 -31 OFFCURVE",
"194 208 CURVE SMOOTH",
"203 317 OFFCURVE",
"214 428 OFFCURVE",
"227 531 CURVE SMOOTH",
"236 600 OFFCURVE",
"259 643 OFFCURVE",
"287 653 CURVE",
"347 654 OFFCURVE",
"393 611 OFFCURVE",
"393 558 CURVE SMOOTH",
"393 515 OFFCURVE",
"361 465 OFFCURVE",
"280 428 CURVE",
"271 414 OFFCURVE",
"266 394 OFFCURVE",
"266 366 CURVE SMOOTH",
"266 333 OFFCURVE",
"305 306 OFFCURVE",
"346 273 CURVE SMOOTH",
"386 241 OFFCURVE",
"424 204 OFFCURVE",
"424 152 CURVE SMOOTH",
"424 105 OFFCURVE",
"389 66 OFFCURVE",
"338 66 CURVE SMOOTH",
"316 66 OFFCURVE",
"291 73 OFFCURVE",
"264 90 CURVE",
"237 34 LINE",
"275 6 OFFCURVE",
"320 -7 OFFCURVE",
"364 -7 CURVE SMOOTH",
"469 -7 OFFCURVE",
"568 66 OFFCURVE",
"568 180 CURVE SMOOTH",
"568 296 OFFCURVE",
"466 350 OFFCURVE",
"366 399 CURVE"
);
}
);
width = 565;
}
);
leftKerningGroup = f;
leftMetricsKey = f;
rightKerningGroup = z;
unicode = 00DF;
},
{
glyphname = t;
lastChange = "2017-05-20 11:14:55 +0000";
layers = (
{
anchors = (
{
name = bottom;
position = "{133, 3}";
},
{
name = center;
position = "{132, 240}";
},
{
name = top;
position = "{153, 480}";
},
{
name = topright;
position = "{284, 480}";
}
);
background = {
components = (
{
name = f;
}
);
};
guideLines = (
{
position = "{145, 457}";
}
);
layerId = "71FD7A9F-05F5-4D76-8D4F-547475A05E4C";
paths = (
{
closed = 1;
nodes = (
"149 3 OFFCURVE",
"205 14 OFFCURVE",
"268 38 CURVE",
"261 80 LINE",
"154 70 LINE",
"126 105 OFFCURVE",
"153 319 OFFCURVE",
"167 431 CURVE",
"284 423 LINE SMOOTH",
"294 422 OFFCURVE",
"299 457 OFFCURVE",
"300 483 CURVE",
"251 482 OFFCURVE",
"194 481 OFFCURVE",
"177 480 CURVE",
"180 502 OFFCURVE",
"191 571 OFFCURVE",
"196 601 CURVE",
"186 610 LINE",
"155 591 OFFCURVE",
"126 576 OFFCURVE",
"113 570 CURVE",
"110 530 OFFCURVE",
"110 508 OFFCURVE",
"108 479 CURVE",
"34 476 LINE",
"29 437 LINE",
"99 425 LINE",
"92 340 OFFCURVE",
"72 204 OFFCURVE",
"67 118 CURVE SMOOTH",
"64 63 OFFCURVE",
"65 8 OFFCURVE",
"91 -5 CURVE"
);
}
);
width = 289;
},
{
anchors = (
{
name = bottom;
position = "{119, 3}";
},
{
name = center;
position = "{144, 240}";
},
{
name = top;
position = "{165, 480}";
},
{
name = topright;
position = "{296, 480}";
}
);
guideLines = (
{
position = "{157, 457}";
}
);
layerId = "977FCFA9-45AC-4A33-B2D7-4D17E6BBF8E0";
paths = (
{
closed = 1;
nodes = (
"129 -5 OFFCURVE",
"240 9 OFFCURVE",
"303 33 CURVE",
"296 95 LINE",
"191 90 LINE",
"163 125 OFFCURVE",
"192 302 OFFCURVE",
"206 414 CURVE",
"308 409 LINE SMOOTH",
"328 408 OFFCURVE",
"333 456 OFFCURVE",
"334 482 CURVE",
"285 481 OFFCURVE",
"231 480 OFFCURVE",
"214 479 CURVE",
"217 501 OFFCURVE",
"228 569 OFFCURVE",
"233 599 CURVE",
"206 614 LINE",
"170 598 OFFCURVE",
"132 582 OFFCURVE",
"103 570 CURVE",
"100 530 OFFCURVE",
"99 509 OFFCURVE",
"97 480 CURVE",
"26 478 LINE",
"19 423 LINE",
"77 413 LINE",
"72 376 OFFCURVE",
"49 217 OFFCURVE",
"43 112 CURVE SMOOTH",
"40 57 OFFCURVE",
"45 8 OFFCURVE",
"71 -5 CURVE"
);
}
);
width = 325;
}
);
leftKerningGroup = i;
rightKerningGroup = t;
unicode = 0074;
},
{
glyphname = tcaron;
lastChange = "2017-05-20 10:52:14 +0000";
layers = (
{
anchors = (
{
name = bottom;
position = "{108, 3}";
},
{
name = center;
position = "{133, 240}";
},
{
name = top;
position = "{154, 480}";
},
{
name = topright;
position = "{285, 480}";
}
);
components = (
{
name = quotesingle;
transform = "{1, 0, 0, 1, 236, -187}";
},
{
name = t;
}
);
layerId = "71FD7A9F-05F5-4D76-8D4F-547475A05E4C";
width = 405;
},
{
anchors = (
{
name = bottom;
position = "{126, 3}";
},
{
name = center;
position = "{151, 240}";
},
{
name = top;
position = "{172, 480}";
},
{
name = topright;
position = "{303, 480}";
}
);
components = (
{
name = quotesingle;
transform = "{1, 0, 0, 1, 254, -187}";
}
);
layerId = "977FCFA9-45AC-4A33-B2D7-4D17E6BBF8E0";
paths = (
{
closed = 1;
nodes = (
"311 455 OFFCURVE",
"309 402 OFFCURVE",
"300 399 CURVE SMOOTH",
"295 397 OFFCURVE",
"275 399 OFFCURVE",
"197 401 CURVE",
"183 289 OFFCURVE",
"157 108 OFFCURVE",
"181 73 CURVE",
"203 72 OFFCURVE",
"246 78 OFFCURVE",
"272 83 CURVE",
"273 30 LINE",
"210 -4 OFFCURVE",
"123 -25 OFFCURVE",
"75 8 CURVE SMOOTH",
"56 21 OFFCURVE",
"40 53 OFFCURVE",
"43 108 CURVE SMOOTH",
"49 213 OFFCURVE",
"73 366 OFFCURVE",
"78 403 CURVE",
"59 403 OFFCURVE",
"38 403 OFFCURVE",
"35 403 CURVE",
"42 466 LINE",
"55 467 LINE SMOOTH",
"94 470 OFFCURVE",
"101 478 OFFCURVE",
"105 509 CURVE",
"112 554 LINE",
"128 557 OFFCURVE",
"181 563 OFFCURVE",
"213 559 CURVE",
"209 528 OFFCURVE",
"207 501 OFFCURVE",
"203 474 CURVE",
"220 475 OFFCURVE",
"263 476 OFFCURVE",
"312 479 CURVE"
);
}
);
width = 413;
}
);
leftKerningGroup = i;
rightKerningGroup = t;
unicode = 0165;
},
{
glyphname = u;
lastChange = "2017-05-20 12:32:56 +0000";
layers = (
{
anchors = (
{
name = bottom;
position = "{238, 0}";
},
{
name = ogonek;
position = "{451, 10}";
},
{
name = top;
position = "{265, 480}";
},
{
name = topright;
position = "{489, 480}";
}
);
background = {
anchors = (
{
name = bottom;
position = "{237, 3}";
},
{
name = top;
position = "{287, 483}";
}
);
components = (
{
name = n;
transform = "{1, 0, 0, 1, 7, 1}";
}
);
};
layerId = "977FCFA9-45AC-4A33-B2D7-4D17E6BBF8E0";
paths = (
{
closed = 1;
nodes = (
"445 87 LINE",
"438 156 OFFCURVE",
"462 362 OFFCURVE",
"480 461 CURVE",
"443 483 OFFCURVE",
"404 486 OFFCURVE",
"361 486 CURVE",
"326 245 LINE",
"346 241 LINE",
"313 82 OFFCURVE",
"291 27 OFFCURVE",
"337 -7 CURVE",
"398 3 OFFCURVE",
"458 18 OFFCURVE",
"519 38 CURVE",
"513 91 LINE"
);
},
{
closed = 1;
nodes = (
"30 430 LINE",
"88 407 LINE",
"96 356 OFFCURVE",
"74 238 OFFCURVE",
"57 143 CURVE SMOOTH",
"42 58 OFFCURVE",
"66 7 OFFCURVE",
"137 -3 CURVE SMOOTH",
"159 -6 OFFCURVE",
"186 -5 OFFCURVE",
"217 0 CURVE",
"294 101 OFFCURVE",
"339 255 OFFCURVE",
"371 387 CURVE",
"361 486 LINE",
"315 276 OFFCURVE",
"247 147 OFFCURVE",
"208 108 CURVE",
"186 106 OFFCURVE",
"169 109 OFFCURVE",
"176 155 CURVE SMOOTH",
"196 279 OFFCURVE",
"213 372 OFFCURVE",
"238 480 CURVE",
"217 484 OFFCURVE",
"60 486 OFFCURVE",
"36 478 CURVE"
);
}
);
width = 540;
},
{
anchors = (
{
name = bottom;
position = "{221, 0}";
},
{
name = ogonek;
position = "{434, 10}";
},
{
name = top;
position = "{252, 508}";
},
{
name = topright;
position = "{472, 480}";
}
);
background = {
components = (
{
name = n;
transform = "{-1, 0, 0, -1, 497, 478}";
}
);
};
layerId = "71FD7A9F-05F5-4D76-8D4F-547475A05E4C";
paths = (
{
closed = 1;
nodes = (
"393 70 LINE",
"380 116 OFFCURVE",
"409 335 OFFCURVE",
"433 473 CURVE",
"418 486 OFFCURVE",
"387 490 OFFCURVE",
"365 486 CURVE",
"343 296 LINE",
"359 296 LINE",
"320 120 OFFCURVE",
"297 22 OFFCURVE",
"336 -5 CURVE",
"391 8 OFFCURVE",
"436 19 OFFCURVE",
"478 37 CURVE",
"471 79 LINE"
);
},
{
closed = 1;
nodes = (
"41 440 LINE",
"107 423 LINE",
"105 344 OFFCURVE",
"90 268 OFFCURVE",
"65 128 CURVE SMOOTH",
"48 30 OFFCURVE",
"91 -9 OFFCURVE",
"156 -6 CURVE SMOOTH",
"173 -5 OFFCURVE",
"201 -3 OFFCURVE",
"219 1 CURVE",
"274 82 OFFCURVE",
"327 182 OFFCURVE",
"376 394 CURVE",
"365 486 LINE",
"342 344 OFFCURVE",
"257 128 OFFCURVE",
"200 57 CURVE",
"147 49 OFFCURVE",
"118 72 OFFCURVE",
"136 168 CURVE SMOOTH",
"162 304 OFFCURVE",
"179 378 OFFCURVE",
"196 480 CURVE",
"160 486 OFFCURVE",
"80 482 OFFCURVE",
"45 476 CURVE"
);
}
);
width = 509;
}
);
leftKerningGroup = u;
note = " ";
rightKerningGroup = i;
unicode = 0075;
},
{
glyphname = v;
lastChange = "2017-05-20 10:52:14 +0000";
layers = (
{
anchors = (
{
name = bottom;
position = "{200, 0}";
},
{
name = top;
position = "{250, 480}";
}
);
background = {
components = (
{
name = w;
transform = "{1, 0, 0, 1, -176, 0}";
}
);
};
layerId = "71FD7A9F-05F5-4D76-8D4F-547475A05E4C";
paths = (
{
closed = 1;
nodes = (
"316 481 OFFCURVE",
"279 473 CURVE",
"275 448 OFFCURVE",
"272 423 OFFCURVE",
"275 397 CURVE",
"364 407 LINE",
"368 351 OFFCURVE",
"316 178 OFFCURVE",
"236 76 CURVE",
"166 87 LINE",
"175 287 OFFCURVE",
"182 468 OFFCURVE",
"176 480 CURVE",
"143 489 OFFCURVE",
"46 482 OFFCURVE",
"33 477 CURVE",
"30 441 LINE",
"97 422 LINE",
"106 365 OFFCURVE",
"107 178 OFFCURVE",
"114 28 CURVE",
"126 9 OFFCURVE",
"165 0 OFFCURVE",
"232 -1 CURVE",
"324 103 OFFCURVE",
"466 373 OFFCURVE",
"419 475 CURVE",
"381 487 OFFCURVE"
);
}
);
width = 449;
},
{
anchors = (
{
name = bottom;
position = "{209, 0}";
},
{
name = top;
position = "{259, 480}";
}
);
background = {
components = (
{
name = w;
transform = "{1, 0, 0, 1, -219, 0}";
}
);
};
layerId = "977FCFA9-45AC-4A33-B2D7-4D17E6BBF8E0";
paths = (
{
closed = 1;
nodes = (
"302 485 OFFCURVE",
"261 473 CURVE",
"252 440 OFFCURVE",
"247 405 OFFCURVE",
"252 373 CURVE",
"333 382 LINE",
"340 326 OFFCURVE",
"293 187 OFFCURVE",
"238 107 CURVE",
"192 113 LINE",
"201 313 OFFCURVE",
"218 468 OFFCURVE",
"209 480 CURVE",
"149 484 OFFCURVE",
"45 482 OFFCURVE",
"11 477 CURVE",
"5 427 LINE",
"65 406 LINE",
"74 349 OFFCURVE",
"74 176 OFFCURVE",
"86 26 CURVE",
"98 7 OFFCURVE",
"198 -5 OFFCURVE",
"236 -4 CURVE",
"329 99 OFFCURVE",
"490 391 OFFCURVE",
"426 474 CURVE",
"390 488 OFFCURVE"
);
}
);
width = 423;
}
);
leftKerningGroup = v;
rightKerningGroup = g;
unicode = 0076;
},
{
glyphname = w;
lastChange = "2017-05-20 10:52:14 +0000";
layers = (
{
anchors = (
{
name = bottom;
position = "{307, 0}";
},
{
name = top;
position = "{352, 508}";
}
);
background = {
components = (
{
name = y;
transform = "{1, 0, 0, 1, 17, 0}";
}
);
};
guideLines = (
{
angle = -12;
position = "{719, 437}";
},
{
angle = -96;
position = "{369, 480}";
}
);
layerId = "71FD7A9F-05F5-4D76-8D4F-547475A05E4C";
paths = (
{
closed = 1;
nodes = (
"341 396 LINE",
"341 340 OFFCURVE",
"301 179 OFFCURVE",
"221 77 CURVE",
"170 85 LINE",
"179 285 OFFCURVE",
"188 468 OFFCURVE",
"182 480 CURVE",
"140 485 OFFCURVE",
"46 482 OFFCURVE",
"33 477 CURVE",
"29 441 LINE",
"96 421 LINE",
"105 364 OFFCURVE",
"108 178 OFFCURVE",
"120 28 CURVE",
"132 9 OFFCURVE",
"170 0 OFFCURVE",
"217 -1 CURVE",
"309 103 OFFCURVE",
"421 358 OFFCURVE",
"373 441 CURVE"
);
},
{
closed = 1;
nodes = (
"584 485 OFFCURVE",
"520 480 OFFCURVE",
"481 473 CURVE",
"475 446 OFFCURVE",
"475 424 OFFCURVE",
"477 397 CURVE",
"565 408 LINE",
"569 352 OFFCURVE",
"519 181 OFFCURVE",
"439 79 CURVE",
"388 87 LINE",
"395 287 OFFCURVE",
"411 455 OFFCURVE",
"402 460 CURVE",
"376 475 OFFCURVE",
"349 479 OFFCURVE",
"317 480 CURVE",
"301 472 OFFCURVE",
"327 177 OFFCURVE",
"339 27 CURVE",
"351 8 OFFCURVE",
"388 0 OFFCURVE",
"435 -1 CURVE",
"527 103 OFFCURVE",
"664 365 OFFCURVE",
"622 474 CURVE"
);
}
);
width = 642;
},
{
anchors = (
{
name = bottom;
position = "{312, 0}";
},
{
name = top;
position = "{337, 480}";
}
);
background = {
paths = (
{
closed = 1;
nodes = (
"546 403 LINE",
"546 347 OFFCURVE",
"543 213 OFFCURVE",
"466 114 CURVE",
"428 119 LINE",
"440 313 OFFCURVE",
"443 468 OFFCURVE",
"437 480 CURVE",
"371 486 OFFCURVE",
"254 482 OFFCURVE",
"241 477 CURVE",
"236 427 LINE",
"294 407 LINE",
"303 350 OFFCURVE",
"306 179 OFFCURVE",
"318 29 CURVE",
"330 10 OFFCURVE",
"409 -5 OFFCURVE",
"456 -6 CURVE",
"546 98 OFFCURVE",
"628 324 OFFCURVE",
"615 443 CURVE"
);
}
);
};
guideLines = (
{
angle = 84;
position = "{454, 322}";
},
{
angle = -96;
position = "{374, 480}";
}
);
layerId = "977FCFA9-45AC-4A33-B2D7-4D17E6BBF8E0";
paths = (
{
closed = 1;
nodes = (
"315 403 LINE",
"315 347 OFFCURVE",
"312 213 OFFCURVE",
"235 114 CURVE",
"197 119 LINE",
"209 313 OFFCURVE",
"212 468 OFFCURVE",
"206 480 CURVE",
"140 486 OFFCURVE",
"23 482 OFFCURVE",
"10 477 CURVE",
"5 427 LINE",
"63 407 LINE",
"72 350 OFFCURVE",
"75 179 OFFCURVE",
"87 29 CURVE",
"99 10 OFFCURVE",
"178 -5 OFFCURVE",
"225 -6 CURVE",
"315 98 OFFCURVE",
"397 324 OFFCURVE",
"384 443 CURVE"
);
},
{
closed = 1;
nodes = (
"608 489 OFFCURVE",
"520 485 OFFCURVE",
"481 473 CURVE",
"473 441 OFFCURVE",
"471 407 OFFCURVE",
"473 372 CURVE",
"552 381 LINE",
"556 325 OFFCURVE",
"524 213 OFFCURVE",
"460 111 CURVE",
"422 116 LINE",
"433 316 OFFCURVE",
"437 453 OFFCURVE",
"428 458 CURVE",
"403 474 OFFCURVE",
"327 484 OFFCURVE",
"292 482 CURVE",
"277 473 OFFCURVE",
"306 173 OFFCURVE",
"318 30 CURVE",
"330 10 OFFCURVE",
"412 -6 OFFCURVE",
"460 -6 CURVE",
"552 98 OFFCURVE",
"707 391 OFFCURVE",
"645 474 CURVE"
);
}
);
width = 641;
},
{
anchors = (
{
name = bottom;
position = "{306, 0}";
},
{
name = top;
position = "{351, 508}";
}
);
associatedMasterId = "71FD7A9F-05F5-4D76-8D4F-547475A05E4C";
background = {
components = (
{
name = y;
transform = "{1, 0, 0, 1, 16, 0}";
}
);
};
guideLines = (
{
angle = -12;
position = "{718, 437}";
},
{
angle = -96;
position = "{368, 480}";
}
);
layerId = "99B1D419-4EF9-4109-9285-0A128B1B9370";
name = "Apr 18 17, 19:48";
paths = (
{
closed = 1;
nodes = (
"318 480 LINE",
"302 293 OFFCURVE",
"287 179 OFFCURVE",
"220 77 CURVE",
"169 85 LINE",
"178 285 OFFCURVE",
"187 468 OFFCURVE",
"181 480 CURVE",
"139 485 OFFCURVE",
"46 482 OFFCURVE",
"33 477 CURVE",
"29 441 LINE",
"97 421 LINE",
"106 364 OFFCURVE",
"107 178 OFFCURVE",
"119 28 CURVE",
"131 9 OFFCURVE",
"169 0 OFFCURVE",
"216 -1 CURVE",
"308 103 OFFCURVE",
"342 302 OFFCURVE",
"361 472 CURVE"
);
},
{
closed = 1;
nodes = (
"583 485 OFFCURVE",
"519 480 OFFCURVE",
"480 473 CURVE",
"474 446 OFFCURVE",
"474 424 OFFCURVE",
"476 397 CURVE",
"564 408 LINE",
"568 352 OFFCURVE",
"518 181 OFFCURVE",
"438 79 CURVE",
"387 87 LINE",
"389 287 OFFCURVE",
"391 374 OFFCURVE",
"392 468 CURVE",
"368 480 OFFCURVE",
"349 481 OFFCURVE",
"321 480 CURVE",
"321 326 OFFCURVE",
"326 177 OFFCURVE",
"338 27 CURVE",
"350 8 OFFCURVE",
"387 0 OFFCURVE",
"434 -1 CURVE",
"526 103 OFFCURVE",
"663 365 OFFCURVE",
"621 474 CURVE"
);
},
{
closed = 1;
nodes = (
"305 211 LINE",
"342 211 LINE",
"343 308 LINE",
"316 308 LINE"
);
}
);
width = 641;
}
);
leftKerningGroup = v;
leftMetricsKey = v;
note = "compare with v";
rightKerningGroup = g;
unicode = 0077;
},
{
glyphname = x;
lastChange = "2017-05-20 10:52:14 +0000";
layers = (
{
anchors = (
{
name = bottom;
position = "{215, 0}";
},
{
name = top;
position = "{265, 480}";
}
);
background = {
components = (
{
name = y;
transform = "{-1, 0, 0, 1, 719, -8}";
}
);
};
layerId = "71FD7A9F-05F5-4D76-8D4F-547475A05E4C";
paths = (
{
closed = 1;
nodes = (
"432 80 LINE",
"360 71 LINE",
"343 94 OFFCURVE",
"320 155 OFFCURVE",
"269 267 CURVE",
"248 271 LINE",
"237 323 OFFCURVE",
"213 435 OFFCURVE",
"195 485 CURVE",
"141 475 OFFCURVE",
"70 454 OFFCURVE",
"57 447 CURVE",
"65 403 LINE",
"134 405 LINE",
"163 347 OFFCURVE",
"194 252 OFFCURVE",
"212 192 CURVE",
"242 187 LINE",
"254 134 OFFCURVE",
"271 21 OFFCURVE",
"307 -5 CURVE",
"354 7 OFFCURVE",
"390 20 OFFCURVE",
"440 36 CURVE"
);
},
{
closed = 1;
nodes = (
"272 210 LINE",
"294 265 OFFCURVE",
"345 385 OFFCURVE",
"366 403 CURVE",
"441 394 LINE",
"449 425 OFFCURVE",
"450 436 OFFCURVE",
"451 467 CURVE",
"435 477 OFFCURVE",
"377 483 OFFCURVE",
"337 482 CURVE",
"317 464 OFFCURVE",
"272 315 OFFCURVE",
"245 227 CURVE"
);
},
{
closed = 1;
nodes = (
"204 270 LINE",
"182 215 OFFCURVE",
"131 98 OFFCURVE",
"110 80 CURVE",
"34 89 LINE",
"26 60 OFFCURVE",
"24 46 OFFCURVE",
"23 13 CURVE",
"39 3 OFFCURVE",
"91 -3 OFFCURVE",
"131 -2 CURVE",
"151 16 OFFCURVE",
"206 165 OFFCURVE",
"233 253 CURVE"
);
}
);
width = 471;
},
{
anchors = (
{
name = bottom;
position = "{206, 0}";
},
{
name = top;
position = "{256, 480}";
}
);
background = {
paths = (
{
closed = 1;
nodes = (
"22 388 LINE",
"85 393 LINE",
"119 341 OFFCURVE",
"134 306 OFFCURVE",
"172 216 CURVE",
"201 209 LINE",
"214 150 OFFCURVE",
"229 40 OFFCURVE",
"239 0 CURVE",
"304 -8 OFFCURVE",
"374 -5 OFFCURVE",
"419 2 CURVE",
"425 54 LINE",
"378 73 LINE",
"347 121 OFFCURVE",
"305 229 OFFCURVE",
"286 289 CURVE",
"252 298 LINE",
"242 350 OFFCURVE",
"233 450 OFFCURVE",
"204 486 CURVE",
"130 484 OFFCURVE",
"57 460 OFFCURVE",
"13 444 CURVE"
);
}
);
};
layerId = "977FCFA9-45AC-4A33-B2D7-4D17E6BBF8E0";
paths = (
{
closed = 1;
nodes = (
"431 93 LINE",
"368 88 LINE",
"334 140 OFFCURVE",
"319 175 OFFCURVE",
"281 265 CURVE",
"256 275 LINE",
"242 366 OFFCURVE",
"231 423 OFFCURVE",
"216 485 CURVE",
"146 483 OFFCURVE",
"87 470 OFFCURVE",
"22 447 CURVE",
"32 388 LINE",
"88 391 LINE",
"121 332 OFFCURVE",
"145 281 OFFCURVE",
"174 204 CURVE",
"200 195 LINE",
"210 143 OFFCURVE",
"220 31 OFFCURVE",
"249 -5 CURVE",
"323 -3 OFFCURVE",
"396 21 OFFCURVE",
"440 37 CURVE"
);
},
{
closed = 1;
nodes = (
"285 208 LINE",
"310 265 OFFCURVE",
"331 315 OFFCURVE",
"349 352 CURVE",
"445 345 LINE",
"460 376 OFFCURVE",
"465 432 OFFCURVE",
"464 462 CURVE",
"429 481 OFFCURVE",
"372 485 OFFCURVE",
"338 483 CURVE",
"309 454 OFFCURVE",
"280 361 OFFCURVE",
"238 237 CURVE"
);
},
{
closed = 1;
nodes = (
"181 272 LINE",
"156 215 OFFCURVE",
"130 162 OFFCURVE",
"112 125 CURVE",
"19 132 LINE",
"9 101 OFFCURVE",
"3 50 OFFCURVE",
"3 16 CURVE",
"38 -3 OFFCURVE",
"90 -6 OFFCURVE",
"124 -4 CURVE",
"153 25 OFFCURVE",
"186 119 OFFCURVE",
"228 243 CURVE"
);
}
);
width = 451;
}
);
leftKerningGroup = z;
rightKerningGroup = z;
unicode = 0078;
},
{
glyphname = y;
lastChange = "2017-05-20 12:40:32 +0000";
layers = (
{
anchors = (
{
name = bottom;
position = "{187, 0}";
},
{
name = top;
position = "{230, 508}";
}
);
background = {
components = (
{
name = v;
transform = "{1, 0, 0, 1, -15, 0}";
}
);
};
guideLines = (
{
angle = 84;
position = "{247, 314}";
}
);
layerId = "71FD7A9F-05F5-4D76-8D4F-547475A05E4C";
paths = (
{
closed = 1;
nodes = (
"15 441 LINE",
"83 424 LINE",
"90 357 OFFCURVE",
"95 124 OFFCURVE",
"99 22 CURVE",
"123 12 OFFCURVE",
"172 -3 OFFCURVE",
"200 13 CURVE",
"237 72 LINE",
"154 89 LINE",
"160 201 OFFCURVE",
"168 424 OFFCURVE",
"163 480 CURVE",
"131 489 OFFCURVE",
"37 483 OFFCURVE",
"19 477 CURVE"
);
},
{
closed = 1;
nodes = (
"256 448 OFFCURVE",
"254 424 OFFCURVE",
"255 396 CURVE",
"354 410 LINE",
"352 335 OFFCURVE",
"300 180 OFFCURVE",
"227 71 CURVE",
"220 49 LINE",
"150 -68 OFFCURVE",
"97 -127 OFFCURVE",
"58 -162 CURVE",
"14 -159 OFFCURVE",
"-16 -154 OFFCURVE",
"-52 -150 CURVE",
"-70 -156 LINE",
"-78 -215 LINE",
"-45 -252 OFFCURVE",
"45 -235 OFFCURVE",
"103 -181 CURVE SMOOTH",
"176 -113 OFFCURVE",
"251 -5 OFFCURVE",
"297 83 CURVE SMOOTH",
"375 232 OFFCURVE",
"434 403 OFFCURVE",
"408 474 CURVE",
"372 487 OFFCURVE",
"306 482 OFFCURVE",
"260 472 CURVE"
);
}
);
width = 434;
},
{
anchors = (
{
name = bottom;
position = "{190, 0}";
},
{
name = top;
position = "{227, 480}";
}
);
background = {
anchors = (
{
name = bottom;
position = "{188, 0}";
},
{
name = top;
position = "{238, 480}";
}
);
components = (
{
name = v;
}
);
};
layerId = "977FCFA9-45AC-4A33-B2D7-4D17E6BBF8E0";
paths = (
{
closed = 1;
nodes = (
"7 428 LINE",
"64 407 LINE",
"68 339 OFFCURVE",
"76 130 OFFCURVE",
"85 29 CURVE",
"111 10 OFFCURVE",
"174 0 OFFCURVE",
"203 19 CURVE",
"249 102 LINE",
"192 111 LINE",
"199 223 OFFCURVE",
"213 424 OFFCURVE",
"208 480 CURVE",
"176 489 OFFCURVE",
"30 483 OFFCURVE",
"12 477 CURVE"
);
},
{
closed = 1;
nodes = (
"251 443 OFFCURVE",
"245 410 OFFCURVE",
"251 373 CURVE",
"340 381 LINE",
"337 306 OFFCURVE",
"308 180 OFFCURVE",
"221 71 CURVE",
"204 38 LINE",
"153 -48 OFFCURVE",
"98 -100 OFFCURVE",
"46 -126 CURVE",
"8 -124 OFFCURVE",
"-23 -120 OFFCURVE",
"-61 -114 CURVE",
"-84 -124 LINE",
"-98 -217 LINE",
"-67 -245 OFFCURVE",
"3 -248 OFFCURVE",
"68 -211 CURVE SMOOTH",
"129 -176 OFFCURVE",
"244 -54 OFFCURVE",
"322 87 CURVE SMOOTH",
"394 217 OFFCURVE",
"474 397 OFFCURVE",
"438 474 CURVE",
"401 487 OFFCURVE",
"307 486 OFFCURVE",
"258 473 CURVE"
);
}
);
width = 428;
}
);
leftKerningGroup = v;
note = " ";
rightMetricsKey = v;
unicode = 0079;
},
{
glyphname = z;
lastChange = "2017-05-20 11:15:26 +0000";
layers = (
{
anchors = (
{
name = bottom;
position = "{154, 0}";
},
{
name = top;
position = "{196, 508}";
}
);
background = {
components = (
{
name = _part.stem;
transform = "{0, 1, -1, 0, 509, 301}";
}
);
};
layerId = "71FD7A9F-05F5-4D76-8D4F-547475A05E4C";
paths = (
{
closed = 1;
nodes = (
"88 5 OFFCURVE",
"113 33 OFFCURVE",
"148 80 CURVE SMOOTH",
"166 105 OFFCURVE",
"320 348 OFFCURVE",
"382 466 CURVE",
"369 476 OFFCURVE",
"346 483 OFFCURVE",
"326 483 CURVE",
"299 429 LINE",
"260 350 OFFCURVE",
"131 120 OFFCURVE",
"85 87 CURVE",
"59 91 OFFCURVE",
"44 98 OFFCURVE",
"13 105 CURVE",
"7 72 OFFCURVE",
"4 48 OFFCURVE",
"3 20 CURVE",
"12 7 OFFCURVE",
"28 -6 OFFCURVE",
"56 -1 CURVE SMOOTH"
);
},
{
closed = 1;
nodes = (
"346 50 OFFCURVE",
"358 77 OFFCURVE",
"370 119 CURVE",
"332 137 LINE",
"302 79 LINE",
"268 69 OFFCURVE",
"206 65 OFFCURVE",
"146 98 CURVE",
"105 72 LINE",
"170 8 OFFCURVE",
"242 -35 OFFCURVE",
"332 16 CURVE"
);
},
{
closed = 1;
nodes = (
"99 392 LINE",
"177 401 OFFCURVE",
"236 395 OFFCURVE",
"286 390 CURVE",
"318 455 LINE",
"239 460 OFFCURVE",
"126 467 OFFCURVE",
"52 479 CURVE",
"46 414 OFFCURVE",
"42 387 OFFCURVE",
"38 333 CURVE",
"76 328 LINE"
);
}
);
width = 383;
},
{
anchors = (
{
name = bottom;
position = "{208, 0}";
},
{
name = top;
position = "{258, 480}";
}
);
layerId = "977FCFA9-45AC-4A33-B2D7-4D17E6BBF8E0";
paths = (
{
closed = 1;
nodes = (
"103 -3 OFFCURVE",
"156 35 OFFCURVE",
"189 76 CURVE SMOOTH",
"209 101 OFFCURVE",
"374 338 OFFCURVE",
"438 456 CURVE",
"427 473 OFFCURVE",
"382 486 OFFCURVE",
"363 484 CURVE",
"343 443 LINE",
"301 363 OFFCURVE",
"166 134 OFFCURVE",
"124 121 CURVE",
"99 128 OFFCURVE",
"67 134 OFFCURVE",
"34 144 CURVE",
"26 102 OFFCURVE",
"20 55 OFFCURVE",
"18 23 CURVE",
"27 8 OFFCURVE",
"47 -3 OFFCURVE",
"76 -3 CURVE SMOOTH"
);
},
{
closed = 1;
nodes = (
"397 52 OFFCURVE",
"416 109 OFFCURVE",
"428 143 CURVE",
"375 168 LINE",
"349 123 LINE",
"315 117 OFFCURVE",
"251 107 OFFCURVE",
"184 154 CURVE",
"115 67 LINE",
"179 3 OFFCURVE",
"293 -33 OFFCURVE",
"384 18 CURVE"
);
},
{
closed = 1;
nodes = (
"145 353 LINE",
"189 359 OFFCURVE",
"304 355 OFFCURVE",
"329 353 CURVE",
"380 460 LINE",
"306 460 OFFCURVE",
"165 470 OFFCURVE",
"77 482 CURVE",
"67 423 OFFCURVE",
"62 352 OFFCURVE",
"60 304 CURVE",
"123 298 LINE"
);
}
);
width = 423;
}
);
leftKerningGroup = z;
rightKerningGroup = z;
unicode = 007A;
},
{
glyphname = T_h.dlig;
lastChange = "2017-05-20 13:22:04 +0000";
layers = (
{
anchors = (
{
name = bottom;
position = "{738, 0}";
},
{
name = center;
position = "{763, 240}";
},
{
name = top;
position = "{672, 666}";
}
);
background = {
anchors = (
{
name = bottom;
position = "{713.106, 602.084}";
},
{
name = top;
position = "{233.165, 652.637}";
}
);
backgroundImage = {
crop = "{{0, 0}, {63, 86}}";
imagePath = "/Users/MasterFGH/Desktop/Bildschirmfoto 2017-03-11 um 16.42.38.jpg";
transform = "{20.162, 0, 0, 20.162, -224, -361}";
};
};
components = (
{
name = _part.stem.cap;
transform = "{1, 0, -0.0171, 1, 122, 0}";
},
{
name = _part.bow;
transform = "{1, 0, 0, 1, 478, -1}";
}
);
layerId = "71FD7A9F-05F5-4D76-8D4F-547475A05E4C";
paths = (
{
closed = 1;
nodes = (
"453 680 OFFCURVE",
"237 677 OFFCURVE",
"57 687 CURVE",
"43 538 LINE",
"91 532 LINE",
"113 612 LINE",
"135 620 OFFCURVE",
"190 621 OFFCURVE",
"255 624 CURVE",
"375 624 LINE SMOOTH",
"411 625 OFFCURVE",
"485 618 OFFCURVE",
"576 606 CURVE",
"578 574 OFFCURVE",
"576 532 OFFCURVE",
"554 351 CURVE SMOOTH",
"536 200 OFFCURVE",
"506 23 OFFCURVE",
"504 12 CURVE",
"516 3 OFFCURVE",
"531 -6 OFFCURVE",
"571 -4 CURVE",
"574 30 OFFCURVE",
"580 74 OFFCURVE",
"592 174 CURVE",
"578 174 LINE",
"605 349 OFFCURVE",
"628 460 OFFCURVE",
"664 671 CURVE",
"645 691 LINE"
);
}
);
width = 949;
},
{
anchors = (
{
name = bottom;
position = "{730, 0}";
},
{
name = center;
position = "{755, 240}";
},
{
name = top;
position = "{664, 666}";
}
);
background = {
components = (
{
name = h;
transform = "{1, 0, 0, 1, 487, 0}";
}
);
};
components = (
{
name = _part.stem.cap;
transform = "{1, 0, 0, 1, -33, 0}";
},
{
alignment = -1;
name = _part.bow;
transform = "{1, 0, 0, 1, 525, 0}";
},
{
name = _part.bow;
transform = "{1, 0, 0, 1, 522, 0}";
}
);
layerId = "977FCFA9-45AC-4A33-B2D7-4D17E6BBF8E0";
paths = (
{
closed = 1;
nodes = (
"718 713 LINE",
"619 672 OFFCURVE",
"241 678 OFFCURVE",
"57 688 CURVE",
"42 509 LINE",
"110 499 LINE",
"137 589 LINE",
"172 594 OFFCURVE",
"224 596 OFFCURVE",
"281 595 CURVE SMOOTH",
"414 594 LINE",
"441 595 OFFCURVE",
"544 590 OFFCURVE",
"607 585 CURVE",
"602 523 OFFCURVE",
"595 441 OFFCURVE",
"585 353 CURVE SMOOTH",
"570 217 OFFCURVE",
"541 31 OFFCURVE",
"539 20 CURVE",
"555 8 OFFCURVE",
"607 -7 OFFCURVE",
"659 -3 CURVE",
"666 51 OFFCURVE",
"677 95 OFFCURVE",
"693 238 CURVE",
"672 240 LINE",
"716 537 OFFCURVE",
"742 637 OFFCURVE",
"749 680 CURVE"
);
}
);
width = 1093;
}
);
leftKerningGroup = T;
leftMetricsKey = T;
rightKerningGroup = i;
rightMetricsKey = h;
},
{
color = 5;
glyphname = fi;
lastChange = "2017-05-20 10:52:14 +0000";
layers = (
{
anchors = (
{
name = bottom;
position = "{420, 0}";
},
{
name = ogonek;
position = "{521, 10}";
},
{
name = top;
position = "{472, 487}";
}
);
background = {
components = (
{
name = i;
transform = "{1, 0, 0, 1, 36, 0}";
}
);
};
components = (
{
name = idotless;
transform = "{1, 0, 0, 1, 216, 0}";
}
);
layerId = "71FD7A9F-05F5-4D76-8D4F-547475A05E4C";
paths = (
{
closed = 1;
nodes = (
"356 760 OFFCURVE",
"250 751 OFFCURVE",
"181 680 CURVE SMOOTH",
"139 636 OFFCURVE",
"111 572 OFFCURVE",
"100 480 CURVE",
"28 476 LINE",
"24 437 LINE",
"92 427 LINE",
"85 349 OFFCURVE",
"77 231 OFFCURVE",
"68 116 CURVE SMOOTH",
"55 -48 OFFCURVE",
"52 -110 OFFCURVE",
"4 -162 CURVE",
"-42 -159 OFFCURVE",
"-77 -154 OFFCURVE",
"-105 -150 CURVE",
"-125 -156 LINE",
"-133 -215 LINE",
"-113 -241 OFFCURVE",
"-51 -241 OFFCURVE",
"-7 -217 CURVE SMOOTH",
"88 -165 OFFCURVE",
"125 -76 OFFCURVE",
"139 84 CURVE SMOOTH",
"170 432 LINE",
"214 430 OFFCURVE",
"362 426 OFFCURVE",
"380 426 CURVE",
"373 483 LINE",
"175 480 LINE",
"190 610 OFFCURVE",
"203 646 OFFCURVE",
"263 676 CURVE",
"305 676 OFFCURVE",
"352 667 OFFCURVE",
"389 639 CURVE",
"407 645 LINE",
"417 719 LINE"
);
}
);
width = 494;
},
{
anchors = (
{
name = bottom;
position = "{336, 0}";
},
{
name = ogonek;
position = "{437, 10}";
},
{
name = top;
position = "{388, 487}";
}
);
background = {
components = (
{
name = f;
transform = "{1, 0, 0, 1, 7, 0}";
}
);
};
components = (
{
name = idotless;
transform = "{1, 0, 0, 1, 291, 0}";
}
);
layerId = "977FCFA9-45AC-4A33-B2D7-4D17E6BBF8E0";
paths = (
{
closed = 1;
nodes = (
"154 654 OFFCURVE",
"113 582 OFFCURVE",
"100 481 CURVE",
"14 479 LINE",
"8 425 LINE",
"91 414 LINE",
"70 102 LINE SMOOTH",
"58 -73 OFFCURVE",
"55 -111 OFFCURVE",
"28 -138 CURVE",
"-18 -134 OFFCURVE",
"-45 -131 OFFCURVE",
"-79 -126 CURVE",
"-107 -139 LINE",
"-116 -217 LINE",
"-88 -267 OFFCURVE",
"10 -251 OFFCURVE",
"73 -192 CURVE SMOOTH",
"142 -128 OFFCURVE",
"175 -61 OFFCURVE",
"190 94 CURVE SMOOTH",
"221 414 LINE",
"395 408 LINE SMOOTH",
"402 408 OFFCURVE",
"416 413 OFFCURVE",
"419 485 CURVE",
"227 480 LINE",
"239 589 OFFCURVE",
"252 626 OFFCURVE",
"289 652 CURVE",
"335 653 OFFCURVE",
"397 630 OFFCURVE",
"428 598 CURVE",
"465 617 LINE",
"472 633 OFFCURVE",
"477 681 OFFCURVE",
"480 718 CURVE",
"448 767 OFFCURVE",
"314 767 OFFCURVE",
"216 698 CURVE SMOOTH"
);
}
);
width = 544;
}
);
leftKerningGroup = f;
leftMetricsKey = f;
rightKerningGroup = i;
rightMetricsKey = i;
unicode = FB01;
},
{
color = 5;
glyphname = fl;
lastChange = "2017-05-20 10:52:14 +0000";
layers = (
{
anchors = (
{
name = bottom;
position = "{111, 0}";
},
{
name = top;
position = "{161, 480}";
}
);
background = {
anchors = (
{
name = bottom;
position = "{81, 0}";
},
{
name = top;
position = "{131, 480}";
}
);
paths = (
{
closed = 1;
nodes = (
"235 751 OFFCURVE",
"166 680 CURVE SMOOTH",
"124 636 OFFCURVE",
"96 572 OFFCURVE",
"85 480 CURVE",
"13 476 LINE",
"9 437 LINE",
"77 427 LINE",
"70 349 OFFCURVE",
"62 231 OFFCURVE",
"53 116 CURVE SMOOTH",
"40 -48 OFFCURVE",
"29 -139 OFFCURVE",
"-37 -180 CURVE",
"-66 -171 OFFCURVE",
"-80 -164 OFFCURVE",
"-107 -150 CURVE",
"-127 -156 LINE",
"-148 -215 LINE",
"-128 -241 OFFCURVE",
"-66 -241 OFFCURVE",
"-22 -217 CURVE SMOOTH",
"73 -165 OFFCURVE",
"110 -76 OFFCURVE",
"124 84 CURVE SMOOTH",
"155 432 LINE",
"199 430 OFFCURVE",
"268 422 OFFCURVE",
"286 422 CURVE SMOOTH",
"297 422 OFFCURVE",
"302 438 OFFCURVE",
"304 483 CURVE",
"160 480 LINE",
"175 610 OFFCURVE",
"188 646 OFFCURVE",
"248 676 CURVE",
"290 677 OFFCURVE",
"347 680 OFFCURVE",
"384 652 CURVE",
"471 740 LINE",
"354 764 OFFCURVE"
);
}
);
};
components = (
{
name = l;
transform = "{1, 0, 0, 1, 257, 0}";
}
);
layerId = "71FD7A9F-05F5-4D76-8D4F-547475A05E4C";
paths = (
{
closed = 1;
nodes = (
"344 763 OFFCURVE",
"262 746 OFFCURVE",
"193 691 CURVE SMOOTH",
"144 652 OFFCURVE",
"111 572 OFFCURVE",
"100 480 CURVE",
"28 476 LINE",
"24 437 LINE",
"92 427 LINE",
"85 349 OFFCURVE",
"77 231 OFFCURVE",
"68 116 CURVE SMOOTH",
"55 -48 OFFCURVE",
"52 -110 OFFCURVE",
"4 -162 CURVE",
"-42 -159 OFFCURVE",
"-77 -154 OFFCURVE",
"-105 -150 CURVE",
"-125 -156 LINE",
"-133 -215 LINE",
"-113 -241 OFFCURVE",
"-51 -241 OFFCURVE",
"-7 -217 CURVE SMOOTH",
"88 -165 OFFCURVE",
"125 -76 OFFCURVE",
"139 84 CURVE SMOOTH",
"170 432 LINE",
"214 430 OFFCURVE",
"283 423 OFFCURVE",
"301 423 CURVE SMOOTH",
"312 423 OFFCURVE",
"317 438 OFFCURVE",
"319 483 CURVE",
"175 480 LINE",
"190 644 OFFCURVE",
"225 659 OFFCURVE",
"262 680 CURVE",
"302 685 OFFCURVE",
"357 686 OFFCURVE",
"396 670 CURVE",
"468 741 LINE"
);
}
);
width = 501;
},
{
anchors = (
{
name = bottom;
position = "{140, 0}";
},
{
name = top;
position = "{190, 480}";
}
);
background = {
paths = (
{
closed = 1;
nodes = (
"146 654 OFFCURVE",
"113 582 OFFCURVE",
"97 481 CURVE",
"39 479 LINE",
"33 425 LINE",
"87 414 LINE",
"86 400 OFFCURVE",
"73 255 OFFCURVE",
"58 102 CURVE SMOOTH",
"41 -73 OFFCURVE",
"25 -126 OFFCURVE",
"-8 -153 CURVE",
"-38 -143 OFFCURVE",
"-63 -132 OFFCURVE",
"-89 -118 CURVE",
"-117 -131 LINE",
"-142 -214 LINE",
"-114 -264 OFFCURVE",
"7 -251 OFFCURVE",
"70 -192 CURVE SMOOTH",
"139 -128 OFFCURVE",
"169 -61 OFFCURVE",
"183 94 CURVE SMOOTH",
"195 227 OFFCURVE",
"197 251 OFFCURVE",
"212 414 CURVE",
"323 408 LINE SMOOTH",
"341 407 OFFCURVE",
"349 412 OFFCURVE",
"353 483 CURVE",
"221 480 LINE",
"233 589 OFFCURVE",
"253 633 OFFCURVE",
"290 659 CURVE",
"336 660 OFFCURVE",
"394 662 OFFCURVE",
"425 630 CURVE",
"544 741 LINE",
"483 757 OFFCURVE",
"306 767 OFFCURVE",
"208 698 CURVE SMOOTH"
);
}
);
};
components = (
{
alignment = -1;
name = l;
transform = "{1, 0, 0, 1, 306, 0}";
}
);
layerId = "977FCFA9-45AC-4A33-B2D7-4D17E6BBF8E0";
paths = (
{
closed = 1;
nodes = (
"145 651 OFFCURVE",
"106 582 OFFCURVE",
"93 481 CURVE",
"7 479 LINE",
"1 425 LINE",
"84 414 LINE",
"63 102 LINE SMOOTH",
"51 -73 OFFCURVE",
"48 -111 OFFCURVE",
"21 -138 CURVE",
"-25 -134 OFFCURVE",
"-52 -131 OFFCURVE",
"-86 -126 CURVE",
"-114 -139 LINE",
"-123 -217 LINE",
"-95 -267 OFFCURVE",
"3 -251 OFFCURVE",
"66 -192 CURVE SMOOTH",
"135 -128 OFFCURVE",
"168 -61 OFFCURVE",
"183 94 CURVE SMOOTH",
"214 414 LINE",
"338 408 LINE SMOOTH",
"345 408 OFFCURVE",
"359 411 OFFCURVE",
"362 483 CURVE",
"220 480 LINE",
"232 589 OFFCURVE",
"260 643 OFFCURVE",
"297 669 CURVE",
"350 677 OFFCURVE",
"410 669 OFFCURVE",
"457 642 CURVE",
"558 740 LINE",
"485 766 OFFCURVE",
"337 791 OFFCURVE",
"209 698 CURVE SMOOTH"
);
}
);
width = 573;
}
);
leftKerningGroup = f;
leftMetricsKey = f;
rightKerningGroup = i;
rightMetricsKey = l;
unicode = FB02;
},
{
glyphname = zero.lf;
lastChange = "2017-05-20 10:52:14 +0000";
layers = (
{
guideLines = (
{
position = "{323, 623}";
}
);
layerId = "71FD7A9F-05F5-4D76-8D4F-547475A05E4C";
paths = (
{
closed = 1;
nodes = (
"133 -10 OFFCURVE",
"32 81 OFFCURVE",
"48 290 CURVE SMOOTH",
"65 516 OFFCURVE",
"191 631 OFFCURVE",
"324 631 CURVE SMOOTH",
"449 631 OFFCURVE",
"543 539 OFFCURVE",
"527 322 CURVE SMOOTH",
"513 120 OFFCURVE",
"410 -10 OFFCURVE",
"253 -10 CURVE SMOOTH"
);
},
{
closed = 1;
nodes = (
"409 87 OFFCURVE",
"468 201 OFFCURVE",
"465 347 CURVE",
"462 481 OFFCURVE",
"402 558 OFFCURVE",
"282 538 CURVE SMOOTH",
"164 518 OFFCURVE",
"116 404 OFFCURVE",
"111 266 CURVE SMOOTH",
"109 136 OFFCURVE",
"170 50 OFFCURVE",
"299 70 CURVE SMOOTH"
);
}
);
width = 550;
},
{
guideLines = (
{
position = "{323, 623}";
}
);
layerId = "977FCFA9-45AC-4A33-B2D7-4D17E6BBF8E0";
paths = (
{
closed = 1;
nodes = (
"132 -10 OFFCURVE",
"27 81 OFFCURVE",
"39 290 CURVE SMOOTH",
"52 516 OFFCURVE",
"178 631 OFFCURVE",
"311 631 CURVE SMOOTH",
"436 631 OFFCURVE",
"534 539 OFFCURVE",
"522 322 CURVE SMOOTH",
"511 120 OFFCURVE",
"409 -10 OFFCURVE",
"252 -10 CURVE SMOOTH"
);
},
{
closed = 1;
nodes = (
"380 144 OFFCURVE",
"430 226 OFFCURVE",
"425 335 CURVE SMOOTH",
"421 437 OFFCURVE",
"368 499 OFFCURVE",
"273 482 CURVE SMOOTH",
"178 465 OFFCURVE",
"137 379 OFFCURVE",
"137 275 CURVE SMOOTH",
"136 177 OFFCURVE",
"193 105 OFFCURVE",
"294 126 CURVE SMOOTH"
);
}
);
width = 550;
}
);
},
{
glyphname = one.lf;
lastChange = "2017-05-20 11:39:51 +0000";
layers = (
{
background = {
paths = (
{
closed = 1;
nodes = (
"-4 55 LINE",
"-12 0 LINE",
"274 0 LINE",
"283 56 LINE",
"202 70 LINE",
"144 68 LINE"
);
},
{
closed = 1;
nodes = (
"228 383 OFFCURVE",
"247 583 OFFCURVE",
"260 698 CURVE",
"178 708 LINE",
"151 661 OFFCURVE",
"93 626 OFFCURVE",
"45 613 CURVE",
"39 564 LINE",
"111 560 LINE",
"114 530 OFFCURVE",
"108 472 OFFCURVE",
"102 400 CURVE SMOOTH",
"95 340 OFFCURVE",
"73 112 OFFCURVE",
"71 102 CURVE",
"69 74 OFFCURVE",
"107 59 OFFCURVE",
"128 57 CURVE SMOOTH",
"170 54 OFFCURVE",
"182 40 OFFCURVE",
"217 40 CURVE",
"212 50 OFFCURVE",
"208 70 OFFCURVE",
"210 97 CURVE SMOOTH"
);
}
);
};
guideLines = (
{
position = "{359, 623}";
}
);
layerId = "71FD7A9F-05F5-4D76-8D4F-547475A05E4C";
paths = (
{
closed = 1;
nodes = (
"130 -7 OFFCURVE",
"157 -16 OFFCURVE",
"192 -16 CURVE",
"197 78 OFFCURVE",
"199 137 OFFCURVE",
"209 245 CURVE SMOOTH",
"222 379 OFFCURVE",
"242 549 OFFCURVE",
"252 626 CURVE",
"207 630 LINE",
"180 583 OFFCURVE",
"147 545 OFFCURVE",
"79 541 CURVE",
"75 502 LINE",
"153 498 LINE",
"156 468 OFFCURVE",
"148 403 OFFCURVE",
"141 331 CURVE SMOOTH",
"140 325 OFFCURVE",
"101 12 OFFCURVE",
"100 1 CURVE"
);
}
);
width = 272;
},
{
background = {
paths = (
{
closed = 1;
nodes = (
"-4 55 LINE",
"-12 0 LINE",
"274 0 LINE",
"283 56 LINE",
"202 70 LINE",
"144 68 LINE"
);
},
{
closed = 1;
nodes = (
"228 383 OFFCURVE",
"247 583 OFFCURVE",
"260 698 CURVE",
"178 708 LINE",
"151 661 OFFCURVE",
"93 626 OFFCURVE",
"45 613 CURVE",
"39 564 LINE",
"111 560 LINE",
"114 530 OFFCURVE",
"108 472 OFFCURVE",
"102 400 CURVE SMOOTH",
"95 340 OFFCURVE",
"73 112 OFFCURVE",
"71 102 CURVE",
"69 74 OFFCURVE",
"107 59 OFFCURVE",
"128 57 CURVE SMOOTH",
"170 54 OFFCURVE",
"182 40 OFFCURVE",
"217 40 CURVE",
"212 50 OFFCURVE",
"208 70 OFFCURVE",
"210 97 CURVE SMOOTH"
);
}
);
};
guideLines = (
{
position = "{359, 623}";
}
);
layerId = "977FCFA9-45AC-4A33-B2D7-4D17E6BBF8E0";
paths = (
{
closed = 1;
nodes = (
"92 -2 OFFCURVE",
"163 -16 OFFCURVE",
"198 -16 CURVE",
"199 21 OFFCURVE",
"203 81 OFFCURVE",
"205 108 CURVE SMOOTH",
"221 329 OFFCURVE",
"241 499 OFFCURVE",
"256 614 CURVE",
"174 624 LINE",
"146 577 OFFCURVE",
"87 542 OFFCURVE",
"39 529 CURVE",
"33 480 LINE",
"104 476 LINE",
"107 446 OFFCURVE",
"101 384 OFFCURVE",
"93 313 CURVE SMOOTH",
"82 211 OFFCURVE",
"65 74 OFFCURVE",
"54 17 CURVE"
);
}
);
width = 272;
}
);
},
{
glyphname = two.lf;
lastChange = "2017-05-20 10:52:14 +0000";
layers = (
{
background = {
paths = (
{
closed = 1;
nodes = (
"548 671 OFFCURVE",
"404 772 OFFCURVE",
"106 668 CURVE",
"75 503 LINE",
"136 492 LINE",
"165 563 LINE",
"213 576 OFFCURVE",
"274 585 OFFCURVE",
"320 587 CURVE",
"366 534 OFFCURVE",
"323 399 OFFCURVE",
"271 315 CURVE SMOOTH",
"217 229 OFFCURVE",
"160 160 OFFCURVE",
"54 79 CURVE SMOOTH",
"37 66 OFFCURVE",
"17 55 OFFCURVE",
"6 50 CURVE",
"18 -1 LINE",
"167 1 OFFCURVE",
"329 0 OFFCURVE",
"474 -5 CURVE",
"507 172 LINE",
"455 180 LINE",
"424 118 LINE",
"376 108 OFFCURVE",
"284 104 OFFCURVE",
"188 103 CURVE",
"254 115 OFFCURVE",
"429 297 OFFCURVE",
"484 470 CURVE SMOOTH"
);
}
);
};
guideLines = (
{
position = "{-141, 520}";
},
{
position = "{321, 623}";
}
);
layerId = "71FD7A9F-05F5-4D76-8D4F-547475A05E4C";
paths = (
{
closed = 1;
nodes = (
"460 612 OFFCURVE",
"335 668 OFFCURVE",
"98 598 CURVE",
"83 470 LINE",
"100 467 OFFCURVE",
"119 468 OFFCURVE",
"138 472 CURVE",
"146 506 OFFCURVE",
"152 527 OFFCURVE",
"158 547 CURVE",
"190 555 OFFCURVE",
"300 562 OFFCURVE",
"331 556 CURVE",
"437 425 OFFCURVE",
"221 129 OFFCURVE",
"17 45 CURVE",
"25 0 LINE",
"175 2 OFFCURVE",
"262 1 OFFCURVE",
"407 -4 CURVE",
"445 133 LINE",
"393 139 LINE",
"366 77 LINE",
"319 69 OFFCURVE",
"210 67 OFFCURVE",
"143 67 CURVE",
"197 84 OFFCURVE",
"426 280 OFFCURVE",
"446 472 CURVE SMOOTH"
);
}
);
width = 529;
},
{
background = {
paths = (
{
closed = 1;
nodes = (
"548 671 OFFCURVE",
"404 772 OFFCURVE",
"106 668 CURVE",
"75 503 LINE",
"136 492 LINE",
"165 563 LINE",
"213 576 OFFCURVE",
"274 585 OFFCURVE",
"320 587 CURVE",
"366 534 OFFCURVE",
"323 399 OFFCURVE",
"271 315 CURVE SMOOTH",
"217 229 OFFCURVE",
"160 160 OFFCURVE",
"54 79 CURVE SMOOTH",
"37 66 OFFCURVE",
"17 55 OFFCURVE",
"6 50 CURVE",
"18 -1 LINE",
"167 1 OFFCURVE",
"329 0 OFFCURVE",
"474 -5 CURVE",
"507 172 LINE",
"455 180 LINE",
"424 118 LINE",
"376 108 OFFCURVE",
"284 104 OFFCURVE",
"188 103 CURVE",
"254 115 OFFCURVE",
"429 297 OFFCURVE",
"484 470 CURVE SMOOTH"
);
}
);
};
guideLines = (
{
position = "{-141, 520}";
},
{
position = "{321, 623}";
}
);
layerId = "977FCFA9-45AC-4A33-B2D7-4D17E6BBF8E0";
paths = (
{
closed = 1;
nodes = (
"485 612 OFFCURVE",
"332 674 OFFCURVE",
"94 599 CURVE",
"73 438 LINE",
"91 435 OFFCURVE",
"129 436 OFFCURVE",
"147 440 CURVE",
"156 474 OFFCURVE",
"160 489 OFFCURVE",
"166 509 CURVE",
"199 517 OFFCURVE",
"278 522 OFFCURVE",
"308 516 CURVE",
"375 372 OFFCURVE",
"206 151 OFFCURVE",
"8 63 CURVE",
"19 0 LINE",
"168 2 OFFCURVE",
"278 1 OFFCURVE",
"423 -4 CURVE",
"473 166 LINE",
"398 172 LINE",
"371 117 LINE",
"324 109 OFFCURVE",
"264 107 OFFCURVE",
"197 107 CURVE",
"251 124 OFFCURVE",
"452 280 OFFCURVE",
"472 472 CURVE SMOOTH"
);
}
);
width = 529;
}
);
},
{
glyphname = three.lf;
lastChange = "2017-05-20 10:52:14 +0000";
layers = (
{
background = {
paths = (
{
closed = 1;
nodes = (
"504 643 OFFCURVE",
"344 784 OFFCURVE",
"92 674 CURVE",
"67 527 LINE",
"129 516 LINE",
"166 594 OFFCURVE",
"220 603 OFFCURVE",
"318 595 CURVE",
"347 498 OFFCURVE",
"236 404 OFFCURVE",
"131 393 CURVE",
"141 337 LINE",
"303 337 OFFCURVE",
"323 217 OFFCURVE",
"322 162 CURVE SMOOTH",
"321 126 OFFCURVE",
"311 103 OFFCURVE",
"289 88 CURVE",
"211 91 OFFCURVE",
"112 122 OFFCURVE",
"57 167 CURVE",
"38 139 OFFCURVE",
"10 72 OFFCURVE",
"5 45 CURVE",
"27 16 OFFCURVE",
"208 -48 OFFCURVE",
"339 19 CURVE SMOOTH",
"407 54 OFFCURVE",
"461 125 OFFCURVE",
"454 213 CURVE SMOOTH",
"444 342 OFFCURVE",
"335 384 OFFCURVE",
"304 384 CURVE",
"323 386 OFFCURVE",
"406 429 OFFCURVE",
"446 516 CURVE SMOOTH"
);
}
);
};
components = (
{
name = three;
transform = "{1, 0, 0, 1, 5, 119}";
}
);
guideLines = (
{
position = "{298, 623}";
}
);
layerId = "71FD7A9F-05F5-4D76-8D4F-547475A05E4C";
width = 485;
},
{
background = {
paths = (
{
closed = 1;
nodes = (
"504 643 OFFCURVE",
"344 784 OFFCURVE",
"92 674 CURVE",
"67 527 LINE",
"129 516 LINE",
"166 594 OFFCURVE",
"220 603 OFFCURVE",
"318 595 CURVE",
"347 498 OFFCURVE",
"236 404 OFFCURVE",
"131 393 CURVE",
"141 337 LINE",
"303 337 OFFCURVE",
"323 217 OFFCURVE",
"322 162 CURVE SMOOTH",
"321 126 OFFCURVE",
"311 103 OFFCURVE",
"289 88 CURVE",
"211 91 OFFCURVE",
"112 122 OFFCURVE",
"57 167 CURVE",
"38 139 OFFCURVE",
"10 72 OFFCURVE",
"5 45 CURVE",
"27 16 OFFCURVE",
"208 -48 OFFCURVE",
"339 19 CURVE SMOOTH",
"407 54 OFFCURVE",
"461 125 OFFCURVE",
"454 213 CURVE SMOOTH",
"444 342 OFFCURVE",
"335 384 OFFCURVE",
"304 384 CURVE",
"323 386 OFFCURVE",
"406 429 OFFCURVE",
"446 516 CURVE SMOOTH"
);
}
);
};
components = (
{
name = three.osf;
transform = "{1, 0, 0, 1, 8, 120}";
}
);
guideLines = (
{
position = "{298, 623}";
}
);
layerId = "977FCFA9-45AC-4A33-B2D7-4D17E6BBF8E0";
width = 485;
}
);
},
